%TF.GenerationSoftware,KiCad,Pcbnew,7.0.2*%
%TF.CreationDate,2023-07-05T19:02:59-04:00*%
%TF.ProjectId,paul,7061756c-2e6b-4696-9361-645f70636258,v1.0.0*%
%TF.SameCoordinates,Original*%
%TF.FileFunction,Copper,L1,Top*%
%TF.FilePolarity,Positive*%
%FSLAX46Y46*%
G04 Gerber Fmt 4.6, Leading zero omitted, Abs format (unit mm)*
G04 Created by KiCad (PCBNEW 7.0.2) date 2023-07-05 19:02:59*
%MOMM*%
%LPD*%
G01*
G04 APERTURE LIST*
G04 Aperture macros list*
%AMRotRect*
0 Rectangle, with rotation*
0 The origin of the aperture is its center*
0 $1 length*
0 $2 width*
0 $3 Rotation angle, in degrees counterclockwise*
0 Add horizontal line*
21,1,$1,$2,0,0,$3*%
G04 Aperture macros list end*
%TA.AperFunction,ComponentPad*%
%ADD10C,2.032000*%
%TD*%
%TA.AperFunction,SMDPad,CuDef*%
%ADD11RotRect,0.900000X1.200000X20.000000*%
%TD*%
%TA.AperFunction,ComponentPad*%
%ADD12RotRect,1.778000X1.778000X20.000000*%
%TD*%
%TA.AperFunction,ComponentPad*%
%ADD13C,1.905000*%
%TD*%
%TA.AperFunction,ComponentPad*%
%ADD14RotRect,1.778000X1.778000X15.000000*%
%TD*%
%TA.AperFunction,SMDPad,CuDef*%
%ADD15RotRect,0.900000X1.200000X15.000000*%
%TD*%
%TA.AperFunction,SMDPad,CuDef*%
%ADD16RotRect,0.900000X1.200000X10.000000*%
%TD*%
%TA.AperFunction,ComponentPad*%
%ADD17RotRect,1.778000X1.778000X10.000000*%
%TD*%
%TA.AperFunction,SMDPad,CuDef*%
%ADD18RotRect,0.900000X1.200000X5.000000*%
%TD*%
%TA.AperFunction,ComponentPad*%
%ADD19RotRect,1.778000X1.778000X5.000000*%
%TD*%
%TA.AperFunction,SMDPad,CuDef*%
%ADD20R,0.900000X1.200000*%
%TD*%
%TA.AperFunction,ComponentPad*%
%ADD21R,1.778000X1.778000*%
%TD*%
%TA.AperFunction,ComponentPad*%
%ADD22R,1.752600X1.752600*%
%TD*%
%TA.AperFunction,ComponentPad*%
%ADD23C,1.752600*%
%TD*%
%TA.AperFunction,ComponentPad*%
%ADD24O,1.700000X1.700000*%
%TD*%
%TA.AperFunction,ComponentPad*%
%ADD25R,1.700000X1.700000*%
%TD*%
%TA.AperFunction,ComponentPad*%
%ADD26C,1.800000*%
%TD*%
%TA.AperFunction,ComponentPad*%
%ADD27O,2.200000X1.600000*%
%TD*%
%TA.AperFunction,Conductor*%
%ADD28C,0.250000*%
%TD*%
%TA.AperFunction,Conductor*%
%ADD29C,0.500000*%
%TD*%
G04 APERTURE END LIST*
D10*
%TO.P,S1,1*%
%TO.N,F4*%
X99918191Y-120400482D03*
%TO.P,S1,2*%
%TO.N,farPinky_bottom*%
X94501485Y-120137229D03*
%TO.P,S1,1*%
%TO.N,F4*%
X90521264Y-123820684D03*
%TO.P,S1,2*%
%TO.N,farPinky_bottom*%
X94501485Y-120137229D03*
%TD*%
%TO.P,S2,1*%
%TO.N,F4*%
X93761829Y-103486014D03*
%TO.P,S2,2*%
%TO.N,farPinky_home*%
X88345123Y-103222761D03*
%TO.P,S2,1*%
%TO.N,F4*%
X84364902Y-106906216D03*
%TO.P,S2,2*%
%TO.N,farPinky_home*%
X88345123Y-103222761D03*
%TD*%
%TO.P,S3,1*%
%TO.N,F4*%
X87605470Y-86571548D03*
%TO.P,S3,2*%
%TO.N,farPinky_top*%
X82188764Y-86308295D03*
%TO.P,S3,1*%
%TO.N,F4*%
X78208543Y-89991750D03*
%TO.P,S3,2*%
%TO.N,farPinky_top*%
X82188764Y-86308295D03*
%TD*%
%TO.P,S4,1*%
%TO.N,F5*%
X117772353Y-113902101D03*
%TO.P,S4,2*%
%TO.N,pinky_bottom*%
X112355647Y-113638848D03*
%TO.P,S4,1*%
%TO.N,F5*%
X108375426Y-117322303D03*
%TO.P,S4,2*%
%TO.N,pinky_bottom*%
X112355647Y-113638848D03*
%TD*%
%TO.P,S5,1*%
%TO.N,F5*%
X111615988Y-96987635D03*
%TO.P,S5,2*%
%TO.N,pinky_home*%
X106199282Y-96724382D03*
%TO.P,S5,1*%
%TO.N,F5*%
X102219061Y-100407837D03*
%TO.P,S5,2*%
%TO.N,pinky_home*%
X106199282Y-96724382D03*
%TD*%
%TO.P,S6,1*%
%TO.N,F5*%
X105459625Y-80073166D03*
%TO.P,S6,2*%
%TO.N,pinky_top*%
X100042919Y-79809913D03*
%TO.P,S6,1*%
%TO.N,F5*%
X96062698Y-83493368D03*
%TO.P,S6,2*%
%TO.N,pinky_top*%
X100042919Y-79809913D03*
%TD*%
%TO.P,S7,2*%
%TO.N,ring_bottom*%
X131325255Y-105195079D03*
%TO.P,S7,1*%
%TO.N,F6*%
X127039145Y-108517618D03*
%TO.P,S7,2*%
%TO.N,ring_bottom*%
X131325255Y-105195079D03*
%TO.P,S7,1*%
%TO.N,F6*%
X136698404Y-105929428D03*
%TD*%
%TO.P,S8,1*%
%TO.N,F6*%
X132039661Y-88542769D03*
%TO.P,S8,2*%
%TO.N,ring_home*%
X126666512Y-87808420D03*
%TO.P,S8,1*%
%TO.N,F6*%
X122380402Y-91130959D03*
%TO.P,S8,2*%
%TO.N,ring_home*%
X126666512Y-87808420D03*
%TD*%
%TO.P,S9,1*%
%TO.N,F6*%
X127380927Y-71156100D03*
%TO.P,S9,2*%
%TO.N,ring_top*%
X122007778Y-70421751D03*
%TO.P,S9,1*%
%TO.N,F6*%
X117721668Y-73744290D03*
%TO.P,S9,2*%
%TO.N,ring_top*%
X122007778Y-70421751D03*
%TD*%
%TO.P,S10,1*%
%TO.N,F7*%
X155727873Y-102331898D03*
%TO.P,S10,2*%
%TO.N,middle_bottom*%
X150439173Y-101132042D03*
%TO.P,S10,1*%
%TO.N,F7*%
X145879795Y-104068379D03*
%TO.P,S10,2*%
%TO.N,middle_bottom*%
X150439173Y-101132042D03*
%TD*%
%TO.P,S11,1*%
%TO.N,F7*%
X152602212Y-84605355D03*
%TO.P,S11,2*%
%TO.N,middle_home*%
X147313512Y-83405499D03*
%TO.P,S11,1*%
%TO.N,F7*%
X142754134Y-86341836D03*
%TO.P,S11,2*%
%TO.N,middle_home*%
X147313512Y-83405499D03*
%TD*%
%TO.P,S12,1*%
%TO.N,F7*%
X149476541Y-66878821D03*
%TO.P,S12,2*%
%TO.N,middle_top*%
X144187841Y-65678965D03*
%TO.P,S12,1*%
%TO.N,F7*%
X139628463Y-68615302D03*
%TO.P,S12,2*%
%TO.N,middle_top*%
X144187841Y-65678965D03*
%TD*%
%TO.P,S13,1*%
%TO.N,B1*%
X174998475Y-100406580D03*
%TO.P,S13,2*%
%TO.N,index_bottom*%
X169834474Y-98750350D03*
%TO.P,S13,1*%
%TO.N,B1*%
X165036528Y-101278138D03*
%TO.P,S13,2*%
%TO.N,index_bottom*%
X169834474Y-98750350D03*
%TD*%
%TO.P,S14,1*%
%TO.N,B1*%
X173429677Y-82475071D03*
%TO.P,S14,2*%
%TO.N,index_home*%
X168265676Y-80818841D03*
%TO.P,S14,1*%
%TO.N,B1*%
X163467730Y-83346629D03*
%TO.P,S14,2*%
%TO.N,index_home*%
X168265676Y-80818841D03*
%TD*%
%TO.P,S15,1*%
%TO.N,B1*%
X171860869Y-64543570D03*
%TO.P,S15,2*%
%TO.N,index_top*%
X166696868Y-62887340D03*
%TO.P,S15,1*%
%TO.N,B1*%
X161898922Y-65415128D03*
%TO.P,S15,2*%
%TO.N,index_top*%
X166696868Y-62887340D03*
%TD*%
%TO.P,S16,1*%
%TO.N,B3*%
X194363552Y-100168132D03*
%TO.P,S16,2*%
%TO.N,inner_bottom*%
X189363552Y-98068132D03*
%TO.P,S16,1*%
%TO.N,B3*%
X184363552Y-100168132D03*
%TO.P,S16,2*%
%TO.N,inner_bottom*%
X189363552Y-98068132D03*
%TD*%
%TO.P,S17,1*%
%TO.N,B3*%
X194363547Y-82168138D03*
%TO.P,S17,2*%
%TO.N,inner_home*%
X189363547Y-80068138D03*
%TO.P,S17,1*%
%TO.N,B3*%
X184363547Y-82168138D03*
%TO.P,S17,2*%
%TO.N,inner_home*%
X189363547Y-80068138D03*
%TD*%
%TO.P,S18,1*%
%TO.N,B3*%
X194363549Y-64168131D03*
%TO.P,S18,2*%
%TO.N,inner_top*%
X189363549Y-62068131D03*
%TO.P,S18,1*%
%TO.N,B3*%
X184363549Y-64168131D03*
%TO.P,S18,2*%
%TO.N,inner_top*%
X189363549Y-62068131D03*
%TD*%
%TO.P,S19,1*%
%TO.N,F7*%
X187363553Y-123168134D03*
%TO.P,S19,2*%
%TO.N,near_thumb*%
X182363553Y-121068134D03*
%TO.P,S19,1*%
%TO.N,F7*%
X177363553Y-123168134D03*
%TO.P,S19,2*%
%TO.N,near_thumb*%
X182363553Y-121068134D03*
%TD*%
%TO.P,S20,1*%
%TO.N,B1*%
X206363550Y-123168136D03*
%TO.P,S20,2*%
%TO.N,home_thumb*%
X201363550Y-121068136D03*
%TO.P,S20,1*%
%TO.N,B1*%
X196363550Y-123168136D03*
%TO.P,S20,2*%
%TO.N,home_thumb*%
X201363550Y-121068136D03*
%TD*%
%TO.P,S21,1*%
%TO.N,B3*%
X225363548Y-123168134D03*
%TO.P,S21,2*%
%TO.N,far_thumb*%
X220363548Y-121068134D03*
%TO.P,S21,1*%
%TO.N,B3*%
X215363548Y-123168134D03*
%TO.P,S21,2*%
%TO.N,far_thumb*%
X220363548Y-121068134D03*
%TD*%
D11*
%TO.P,D1,1*%
%TO.N,D7*%
X96679015Y-130944219D03*
%TO.P,D1,2*%
%TO.N,farPinky_bottom*%
X99780001Y-129815553D03*
D12*
%TO.P,D1,1*%
%TO.N,D7*%
X94649279Y-131682983D03*
D13*
%TO.P,D1,2*%
%TO.N,farPinky_bottom*%
X101809737Y-129076789D03*
%TD*%
D11*
%TO.P,D2,1*%
%TO.N,C6*%
X90522651Y-114029746D03*
%TO.P,D2,2*%
%TO.N,farPinky_home*%
X93623637Y-112901080D03*
D12*
%TO.P,D2,1*%
%TO.N,C6*%
X88492915Y-114768510D03*
D13*
%TO.P,D2,2*%
%TO.N,farPinky_home*%
X95653373Y-112162316D03*
%TD*%
D11*
%TO.P,D3,1*%
%TO.N,D4*%
X84366286Y-97115281D03*
%TO.P,D3,2*%
%TO.N,farPinky_top*%
X87467272Y-95986615D03*
D12*
%TO.P,D3,1*%
%TO.N,D4*%
X82336550Y-97854045D03*
D13*
%TO.P,D3,2*%
%TO.N,farPinky_top*%
X89497008Y-95247851D03*
%TD*%
D11*
%TO.P,D4,1*%
%TO.N,D7*%
X114533173Y-124445829D03*
%TO.P,D4,2*%
%TO.N,pinky_bottom*%
X117634159Y-123317163D03*
D12*
%TO.P,D4,1*%
%TO.N,D7*%
X112503437Y-125184593D03*
D13*
%TO.P,D4,2*%
%TO.N,pinky_bottom*%
X119663895Y-122578399D03*
%TD*%
D11*
%TO.P,D5,1*%
%TO.N,C6*%
X108376812Y-107531364D03*
%TO.P,D5,2*%
%TO.N,pinky_home*%
X111477798Y-106402698D03*
D12*
%TO.P,D5,1*%
%TO.N,C6*%
X106347076Y-108270128D03*
D13*
%TO.P,D5,2*%
%TO.N,pinky_home*%
X113507534Y-105663934D03*
%TD*%
D11*
%TO.P,D6,1*%
%TO.N,D4*%
X102220446Y-90616893D03*
%TO.P,D6,2*%
%TO.N,pinky_top*%
X105321432Y-89488227D03*
D12*
%TO.P,D6,1*%
%TO.N,D4*%
X100190710Y-91355657D03*
D13*
%TO.P,D6,2*%
%TO.N,pinky_top*%
X107351168Y-88749463D03*
%TD*%
%TO.P,D7,2*%
%TO.N,ring_bottom*%
X137826565Y-114737567D03*
D14*
%TO.P,D7,1*%
%TO.N,D7*%
X130466211Y-116709769D03*
D15*
%TO.P,D7,2*%
%TO.N,ring_bottom*%
X135740166Y-115296617D03*
%TO.P,D7,1*%
%TO.N,D7*%
X132552610Y-116150719D03*
%TD*%
%TO.P,D8,1*%
%TO.N,C6*%
X127893863Y-98764059D03*
%TO.P,D8,2*%
%TO.N,ring_home*%
X131081419Y-97909957D03*
D14*
%TO.P,D8,1*%
%TO.N,C6*%
X125807464Y-99323109D03*
D13*
%TO.P,D8,2*%
%TO.N,ring_home*%
X133167818Y-97350907D03*
%TD*%
D15*
%TO.P,D9,1*%
%TO.N,D4*%
X123235120Y-81377390D03*
%TO.P,D9,2*%
%TO.N,ring_top*%
X126422676Y-80523288D03*
D14*
%TO.P,D9,1*%
%TO.N,D4*%
X121148721Y-81936440D03*
D13*
%TO.P,D9,2*%
%TO.N,ring_top*%
X128509075Y-79964238D03*
%TD*%
D16*
%TO.P,D10,1*%
%TO.N,D7*%
X150707006Y-112152965D03*
%TO.P,D10,2*%
%TO.N,middle_bottom*%
X153956872Y-111579927D03*
D17*
%TO.P,D10,1*%
%TO.N,D7*%
X148579821Y-112528046D03*
D13*
%TO.P,D10,2*%
%TO.N,middle_bottom*%
X156084057Y-111204846D03*
%TD*%
D16*
%TO.P,D11,1*%
%TO.N,C6*%
X147581344Y-94426427D03*
%TO.P,D11,2*%
%TO.N,middle_home*%
X150831210Y-93853389D03*
D17*
%TO.P,D11,1*%
%TO.N,C6*%
X145454159Y-94801508D03*
D13*
%TO.P,D11,2*%
%TO.N,middle_home*%
X152958395Y-93478308D03*
%TD*%
D16*
%TO.P,D12,1*%
%TO.N,D4*%
X144455671Y-76699883D03*
%TO.P,D12,2*%
%TO.N,middle_top*%
X147705537Y-76126845D03*
D17*
%TO.P,D12,1*%
%TO.N,D4*%
X142328486Y-77074964D03*
D13*
%TO.P,D12,2*%
%TO.N,middle_top*%
X149832722Y-75751764D03*
%TD*%
D18*
%TO.P,D13,1*%
%TO.N,D7*%
X169140757Y-109752676D03*
%TO.P,D13,2*%
%TO.N,index_bottom*%
X172428199Y-109465062D03*
D19*
%TO.P,D13,1*%
%TO.N,D7*%
X166988976Y-109940932D03*
D13*
%TO.P,D13,2*%
%TO.N,index_bottom*%
X174579980Y-109276806D03*
%TD*%
D18*
%TO.P,D14,1*%
%TO.N,C6*%
X167571949Y-91821171D03*
%TO.P,D14,2*%
%TO.N,index_home*%
X170859391Y-91533557D03*
D19*
%TO.P,D14,1*%
%TO.N,C6*%
X165420168Y-92009427D03*
D13*
%TO.P,D14,2*%
%TO.N,index_home*%
X173011172Y-91345301D03*
%TD*%
D18*
%TO.P,D15,1*%
%TO.N,D4*%
X166003146Y-73889669D03*
%TO.P,D15,2*%
%TO.N,index_top*%
X169290588Y-73602055D03*
D19*
%TO.P,D15,1*%
%TO.N,D4*%
X163851365Y-74077925D03*
D13*
%TO.P,D15,2*%
%TO.N,index_top*%
X171442369Y-73413799D03*
%TD*%
D20*
%TO.P,D16,1*%
%TO.N,D7*%
X187713546Y-108968133D03*
%TO.P,D16,2*%
%TO.N,inner_bottom*%
X191013546Y-108968133D03*
D21*
%TO.P,D16,1*%
%TO.N,D7*%
X185553546Y-108968133D03*
D13*
%TO.P,D16,2*%
%TO.N,inner_bottom*%
X193173546Y-108968133D03*
%TD*%
D20*
%TO.P,D17,1*%
%TO.N,C6*%
X187713549Y-90968133D03*
%TO.P,D17,2*%
%TO.N,inner_home*%
X191013549Y-90968133D03*
D21*
%TO.P,D17,1*%
%TO.N,C6*%
X185553549Y-90968133D03*
D13*
%TO.P,D17,2*%
%TO.N,inner_home*%
X193173549Y-90968133D03*
%TD*%
D20*
%TO.P,D18,1*%
%TO.N,D4*%
X187713551Y-72968133D03*
%TO.P,D18,2*%
%TO.N,inner_top*%
X191013551Y-72968133D03*
D21*
%TO.P,D18,1*%
%TO.N,D4*%
X185553551Y-72968133D03*
D13*
%TO.P,D18,2*%
%TO.N,inner_top*%
X193173551Y-72968133D03*
%TD*%
D20*
%TO.P,D19,1*%
%TO.N,E6*%
X180713550Y-131968134D03*
%TO.P,D19,2*%
%TO.N,near_thumb*%
X184013550Y-131968134D03*
D21*
%TO.P,D19,1*%
%TO.N,E6*%
X178553550Y-131968134D03*
D13*
%TO.P,D19,2*%
%TO.N,near_thumb*%
X186173550Y-131968134D03*
%TD*%
D20*
%TO.P,D20,1*%
%TO.N,E6*%
X199713549Y-131968138D03*
%TO.P,D20,2*%
%TO.N,home_thumb*%
X203013549Y-131968138D03*
D21*
%TO.P,D20,1*%
%TO.N,E6*%
X197553549Y-131968138D03*
D13*
%TO.P,D20,2*%
%TO.N,home_thumb*%
X205173549Y-131968138D03*
%TD*%
D20*
%TO.P,D21,1*%
%TO.N,E6*%
X218713552Y-131968130D03*
%TO.P,D21,2*%
%TO.N,far_thumb*%
X222013552Y-131968130D03*
D21*
%TO.P,D21,1*%
%TO.N,E6*%
X216553552Y-131968130D03*
D13*
%TO.P,D21,2*%
%TO.N,far_thumb*%
X224173552Y-131968130D03*
%TD*%
D22*
%TO.P,MCU1,1*%
%TO.N,B0*%
X206743550Y-62998131D03*
D23*
%TO.P,MCU1,2*%
%TO.N,GND*%
X206743550Y-65538131D03*
%TO.P,MCU1,3*%
%TO.N,RST*%
X206743550Y-68078131D03*
%TO.P,MCU1,4*%
%TO.N,VCC*%
X206743550Y-70618131D03*
%TO.P,MCU1,5*%
%TO.N,F4*%
X206743550Y-73158131D03*
%TO.P,MCU1,6*%
%TO.N,F5*%
X206743550Y-75698131D03*
%TO.P,MCU1,7*%
%TO.N,F6*%
X206743550Y-78238131D03*
%TO.P,MCU1,8*%
%TO.N,F7*%
X206743550Y-80778131D03*
%TO.P,MCU1,9*%
%TO.N,B1*%
X206743550Y-83318131D03*
%TO.P,MCU1,10*%
%TO.N,B3*%
X206743550Y-85858131D03*
%TO.P,MCU1,11*%
%TO.N,B2*%
X206743550Y-88398131D03*
%TO.P,MCU1,12*%
%TO.N,B6*%
X206743550Y-90938131D03*
%TO.P,MCU1,13*%
%TO.N,D3*%
X221983550Y-62998131D03*
%TO.P,MCU1,14*%
%TO.N,D2*%
X221983550Y-65538131D03*
%TO.P,MCU1,15*%
%TO.N,GND*%
X221983550Y-68078131D03*
%TO.P,MCU1,16*%
X221983550Y-70618131D03*
%TO.P,MCU1,17*%
%TO.N,D1*%
X221983550Y-73158131D03*
%TO.P,MCU1,18*%
%TO.N,D0*%
X221983550Y-75698131D03*
%TO.P,MCU1,19*%
%TO.N,D4*%
X221983550Y-78238131D03*
%TO.P,MCU1,20*%
%TO.N,C6*%
X221983550Y-80778131D03*
%TO.P,MCU1,21*%
%TO.N,D7*%
X221983550Y-83318131D03*
%TO.P,MCU1,22*%
%TO.N,E6*%
X221983550Y-85858131D03*
%TO.P,MCU1,23*%
%TO.N,B4*%
X221983550Y-88398131D03*
%TO.P,MCU1,24*%
%TO.N,B5*%
X221983550Y-90938131D03*
%TD*%
D24*
%TO.P,OLED1,4*%
%TO.N,D1*%
X210543555Y-94368135D03*
%TO.P,OLED1,3*%
%TO.N,D0*%
X213083555Y-94368135D03*
%TO.P,OLED1,2*%
%TO.N,VCC*%
X215623555Y-94368135D03*
D25*
%TO.P,OLED1,1*%
%TO.N,GND*%
X218163555Y-94368135D03*
%TD*%
D26*
%TO.P,B1,1*%
%TO.N,GND*%
X205263549Y-102118135D03*
X211463549Y-102118135D03*
%TO.P,B1,2*%
%TO.N,RST*%
X205263549Y-105818135D03*
X211463549Y-105818135D03*
%TD*%
D27*
%TO.P,TRRS1,1*%
%TO.N,GND*%
X216063548Y-101668133D03*
%TO.P,TRRS1,2*%
%TO.N,B0*%
X217163548Y-106268133D03*
%TO.P,TRRS1,3*%
%TO.N,GND*%
X221163548Y-106268133D03*
%TO.P,TRRS1,4*%
%TO.N,VCC*%
X224163548Y-106268133D03*
%TO.P,TRRS1,1*%
%TO.N,GND*%
X216063548Y-103968133D03*
%TO.P,TRRS1,2*%
%TO.N,B0*%
X217163548Y-99368133D03*
%TO.P,TRRS1,3*%
%TO.N,GND*%
X221163548Y-99368133D03*
%TO.P,TRRS1,4*%
%TO.N,VCC*%
X224163548Y-99368133D03*
%TD*%
D28*
%TO.N,C6*%
X187713549Y-90968133D02*
X185553549Y-90968133D01*
%TO.N,inner_home*%
X193173549Y-90968133D02*
X191013549Y-90968133D01*
%TO.N,D4*%
X187713551Y-72968133D02*
X185553551Y-72968133D01*
%TO.N,inner_top*%
X193173551Y-72968133D02*
X191013551Y-72968133D01*
%TO.N,C6*%
X167571949Y-91821170D02*
X165420168Y-92009427D01*
%TO.N,index_home*%
X173011172Y-91345300D02*
X170859391Y-91533557D01*
%TO.N,D4*%
X166003146Y-73889669D02*
X163851365Y-74077925D01*
%TO.N,index_top*%
X171442369Y-73413799D02*
X169290588Y-73602055D01*
%TO.N,C6*%
X147581345Y-94426427D02*
X145454159Y-94801507D01*
%TO.N,middle_home*%
X152958395Y-93478308D02*
X150831210Y-93853388D01*
%TO.N,D4*%
X144455671Y-76699884D02*
X142328486Y-77074963D01*
%TO.N,middle_top*%
X149832722Y-75751764D02*
X148444996Y-75996457D01*
X148444996Y-75996457D02*
X149832723Y-75751766D01*
X147705537Y-76126844D02*
X148444996Y-75996457D01*
%TO.N,C6*%
X127893863Y-98764059D02*
X125807464Y-99323108D01*
%TO.N,ring_home*%
X133167818Y-97350908D02*
X131081419Y-97909956D01*
%TO.N,D4*%
X123235121Y-81377390D02*
X121148720Y-81936440D01*
%TO.N,ring_top*%
X128509076Y-79964239D02*
X126422676Y-80523287D01*
%TO.N,D4*%
X84366286Y-97115280D02*
X82336551Y-97854044D01*
%TO.N,farPinky_top*%
X89497007Y-95247852D02*
X87467272Y-95986614D01*
%TO.N,D4*%
X102220447Y-90616894D02*
X100190710Y-91355657D01*
%TO.N,pinky_top*%
X107351168Y-88749463D02*
X105321431Y-89488227D01*
%TO.N,C6*%
X108376813Y-107531365D02*
X106347077Y-108270127D01*
%TO.N,pinky_home*%
X113507534Y-105663935D02*
X111477798Y-106402699D01*
%TO.N,C6*%
X90522651Y-114029747D02*
X88492916Y-114768511D01*
%TO.N,farPinky_home*%
X95653373Y-112162317D02*
X93623637Y-112901080D01*
%TO.N,D7*%
X96679014Y-130944220D02*
X94649279Y-131682983D01*
%TO.N,farPinky_bottom*%
X101809736Y-129076789D02*
X99780001Y-129815553D01*
%TO.N,D7*%
X114533173Y-124445830D02*
X112503436Y-125184592D01*
%TO.N,pinky_bottom*%
X119663895Y-122578399D02*
X117634158Y-123317163D01*
%TO.N,D7*%
X132552609Y-116150720D02*
X130466211Y-116709769D01*
%TO.N,ring_bottom*%
X137826564Y-114737568D02*
X135740165Y-115296617D01*
%TO.N,D7*%
X150707006Y-112152967D02*
X148579821Y-112528046D01*
%TO.N,middle_bottom*%
X156084057Y-111204847D02*
X153956871Y-111579927D01*
%TO.N,D7*%
X169140754Y-109752676D02*
X166988974Y-109940930D01*
%TO.N,index_bottom*%
X174579978Y-109276805D02*
X172428198Y-109465063D01*
%TO.N,D7*%
X187713544Y-108968133D02*
X185553546Y-108968133D01*
%TO.N,inner_bottom*%
X193173545Y-108968134D02*
X191013544Y-108968133D01*
%TO.N,E6*%
X180713550Y-131968135D02*
X178553550Y-131968134D01*
%TO.N,near_thumb*%
X186173551Y-131968134D02*
X184013551Y-131968135D01*
%TO.N,E6*%
X199713550Y-131968138D02*
X197553549Y-131968136D01*
%TO.N,home_thumb*%
X205173550Y-131968137D02*
X203013549Y-131968138D01*
%TO.N,E6*%
X218713551Y-131968130D02*
X216553552Y-131968131D01*
%TO.N,far_thumb*%
X224173551Y-131968130D02*
X222013551Y-131968131D01*
D29*
%TO.N,GND*%
X221163548Y-97368130D02*
X218163555Y-94368134D01*
X221163549Y-99368133D02*
X221163548Y-97368130D01*
D28*
%TO.N,B0*%
X201845682Y-67896000D02*
X206743551Y-62998132D01*
X211895683Y-108137604D02*
X204505682Y-108137605D01*
X201845683Y-105477606D02*
X201845682Y-67896000D01*
X213715683Y-106317606D02*
X211895683Y-108137604D01*
X204505682Y-108137605D02*
X201845683Y-105477606D01*
X213715681Y-101598413D02*
X213715683Y-106317606D01*
X215945963Y-99368132D02*
X213715681Y-101598413D01*
X217163549Y-99368131D02*
X215945963Y-99368132D01*
%TO.N,C6*%
X223135154Y-80778132D02*
X221983549Y-80778132D01*
X225275681Y-78637605D02*
X223135154Y-80778132D01*
X225275681Y-63027606D02*
X225275681Y-78637605D01*
X206711478Y-60627606D02*
X222875683Y-60627605D01*
X195995680Y-88847605D02*
X200005682Y-84837605D01*
X200005683Y-67333399D02*
X206711478Y-60627606D01*
X187674080Y-88847604D02*
X195995680Y-88847605D01*
X200005682Y-84837605D02*
X200005683Y-67333399D01*
X222875683Y-60627605D02*
X225275681Y-63027606D01*
X185553553Y-90968134D02*
X187674080Y-88847604D01*
%TO.N,RST*%
X204335682Y-91947605D02*
X203265682Y-93017605D01*
X203265682Y-93017605D02*
X203265682Y-103820270D01*
X204335681Y-70486000D02*
X204335682Y-91947605D01*
X203265682Y-103820270D02*
X205263548Y-105818135D01*
X206743548Y-68078131D02*
X204335681Y-70486000D01*
%TO.N,E6*%
X227985684Y-91860264D02*
X221983550Y-85858133D01*
X225795682Y-134217604D02*
X227985683Y-132027605D01*
X218803026Y-134217605D02*
X225795682Y-134217604D01*
X227985683Y-132027605D02*
X227985684Y-91860264D01*
X216553552Y-131968131D02*
X218803026Y-134217605D01*
%TO.N,D4*%
X144455672Y-76699884D02*
X142328487Y-77074965D01*
%TO.N,F4*%
X84364906Y-106906219D02*
X93761831Y-103486015D01*
D29*
%TO.N,GND*%
X209393553Y-100048140D02*
X209393556Y-83208131D01*
X209393556Y-83208131D02*
X221983551Y-70618131D01*
X211463542Y-102118133D02*
X209393553Y-100048140D01*
X205263546Y-102496914D02*
X205244912Y-102515555D01*
X205263546Y-102118134D02*
X205263546Y-102496914D01*
X221163549Y-99368134D02*
X221163550Y-99395552D01*
X211463542Y-102118133D02*
X205263546Y-102118134D01*
D28*
%TO.N,RST*%
X211463547Y-105818135D02*
X205263548Y-105818133D01*
%TO.N,B0*%
X217463552Y-105968135D02*
X217163546Y-106268134D01*
X217463548Y-99668136D02*
X217463552Y-105968135D01*
X217163550Y-99368133D02*
X217463548Y-99668136D01*
D29*
%TO.N,GND*%
X221163549Y-99368134D02*
X221163548Y-106268133D01*
%TO.N,VCC*%
X224163549Y-99368132D02*
X224163552Y-106268131D01*
D28*
%TO.N,D1*%
X210543552Y-84598127D02*
X221983550Y-73158130D01*
X210543553Y-94368136D02*
X210543552Y-84598127D01*
%TO.N,D0*%
X213083554Y-84598130D02*
X221983551Y-75698134D01*
X213083554Y-94368131D02*
X213083554Y-84598130D01*
%TO.N,F7*%
X173687401Y-117320209D02*
X176898634Y-120531440D01*
X160249906Y-117320206D02*
X173687401Y-117320209D01*
X176898634Y-120531440D02*
X177363550Y-123168135D01*
X158829906Y-115900208D02*
X160249906Y-117320206D01*
X158829900Y-105433934D02*
X158829906Y-115900208D01*
X155727875Y-102331901D02*
X158829900Y-105433934D01*
%TO.N,B3*%
X212359906Y-117340204D02*
X215363553Y-120343851D01*
X215363553Y-120343851D02*
X215363551Y-123168133D01*
X201229903Y-117340204D02*
X212359906Y-117340204D01*
X198789904Y-114900206D02*
X201229903Y-117340204D01*
X194363554Y-100168134D02*
X198789904Y-104594484D01*
X198789904Y-104594484D02*
X198789904Y-114900206D01*
X215363551Y-123168133D02*
X225363547Y-123168129D01*
%TO.N,B1*%
X196363547Y-123168135D02*
X206363545Y-123168135D01*
%TO.N,F7*%
X177363550Y-123168135D02*
X187363551Y-123168133D01*
%TO.N,B1*%
X178152416Y-110416559D02*
X196363547Y-123168135D01*
X174998475Y-100406575D02*
X176583020Y-101516088D01*
X176583020Y-101516088D02*
X178152416Y-110416559D01*
%TO.N,F7*%
X143909384Y-102688685D02*
X145879799Y-104068375D01*
X141374430Y-88312254D02*
X143909384Y-102688685D01*
X142754133Y-86341840D02*
X141374430Y-88312254D01*
%TO.N,B3*%
X184363552Y-100168133D02*
X194363554Y-100168134D01*
X182662648Y-98467230D02*
X184363552Y-100168133D01*
X182662650Y-83869036D02*
X182662648Y-98467230D01*
X184363550Y-82168133D02*
X182662650Y-83869036D01*
X184363550Y-82168133D02*
X194363550Y-82168138D01*
X182662651Y-80467240D02*
X184363550Y-82168133D01*
X182662647Y-65869031D02*
X182662651Y-80467240D01*
X184363554Y-64168134D02*
X182662647Y-65869031D01*
X184363554Y-64168134D02*
X194363553Y-64168130D01*
%TO.N,B1*%
X165036530Y-101278140D02*
X174998474Y-100406576D01*
X161921548Y-85189301D02*
X163193864Y-99731952D01*
X163193864Y-99731952D02*
X165036530Y-101278140D01*
X163467726Y-83346629D02*
X161921548Y-85189301D01*
X163467726Y-83346629D02*
X173429671Y-82475075D01*
X160352740Y-67257797D02*
X161625054Y-81800448D01*
X161898918Y-65415131D02*
X160352740Y-67257797D01*
X161625054Y-81800448D02*
X163467726Y-83346629D01*
X171860874Y-64543574D02*
X161898918Y-65415131D01*
%TO.N,F7*%
X145879799Y-104068378D02*
X155727876Y-102331901D01*
X142754128Y-86341839D02*
X152602207Y-84605354D01*
X140783713Y-84962136D02*
X142754128Y-86341839D01*
X139628463Y-68615296D02*
X138248762Y-70585717D01*
X138248762Y-70585717D02*
X140783713Y-84962136D01*
X139628463Y-68615296D02*
X149476546Y-66878812D01*
%TO.N,F6*%
X127039148Y-108517623D02*
X136698405Y-105929425D01*
X121088547Y-93368506D02*
X124801593Y-107225764D01*
X122380405Y-91130950D02*
X121088547Y-93368506D01*
X124801593Y-107225764D02*
X127039148Y-108517623D01*
X122380405Y-91130950D02*
X132039661Y-88542765D01*
X120142839Y-89839099D02*
X122380405Y-91130950D01*
X116429803Y-75981850D02*
X120142839Y-89839099D01*
X117721665Y-73744292D02*
X116429803Y-75981850D01*
X117721665Y-73744292D02*
X127380920Y-71156096D01*
%TO.N,F5*%
X108375428Y-117322309D02*
X117772353Y-113902101D01*
X105504389Y-115983517D02*
X108375428Y-117322309D01*
X100880278Y-103278873D02*
X105504389Y-115983517D01*
X102219063Y-100407830D02*
X100880278Y-103278873D01*
X102219063Y-100407830D02*
X111615994Y-96987635D01*
X99348028Y-99069048D02*
X102219063Y-100407830D01*
X94723914Y-86364402D02*
X99348028Y-99069048D01*
X96062703Y-83493367D02*
X94723914Y-86364402D01*
X96062703Y-83493367D02*
X105459626Y-80073161D01*
%TO.N,F4*%
X90521265Y-123820684D02*
X99918190Y-120400491D01*
X88341201Y-122804107D02*
X90521265Y-123820684D01*
X83348323Y-109086290D02*
X88341201Y-122804107D01*
X84364906Y-106906219D02*
X83348323Y-109086290D01*
X82184835Y-105889631D02*
X84364906Y-106906219D01*
X77191964Y-92171817D02*
X82184835Y-105889631D01*
X78208544Y-89991757D02*
X77191964Y-92171817D01*
X87605462Y-86571555D02*
X78208544Y-89991757D01*
%TD*%
M02*
