%TF.GenerationSoftware,KiCad,Pcbnew,7.0.2*%
%TF.CreationDate,2023-07-05T19:02:59-04:00*%
%TF.ProjectId,paul,7061756c-2e6b-4696-9361-645f70636258,v1.0.0*%
%TF.SameCoordinates,Original*%
%TF.FileFunction,Copper,L2,Bot*%
%TF.FilePolarity,Positive*%
%FSLAX46Y46*%
G04 Gerber Fmt 4.6, Leading zero omitted, Abs format (unit mm)*
G04 Created by KiCad (PCBNEW 7.0.2) date 2023-07-05 19:02:59*
%MOMM*%
%LPD*%
G01*
G04 APERTURE LIST*
G04 Aperture macros list*
%AMRotRect*
0 Rectangle, with rotation*
0 The origin of the aperture is its center*
0 $1 length*
0 $2 width*
0 $3 Rotation angle, in degrees counterclockwise*
0 Add horizontal line*
21,1,$1,$2,0,0,$3*%
G04 Aperture macros list end*
%TA.AperFunction,ComponentPad*%
%ADD10C,2.032000*%
%TD*%
%TA.AperFunction,SMDPad,CuDef*%
%ADD11RotRect,0.900000X1.200000X20.000000*%
%TD*%
%TA.AperFunction,ComponentPad*%
%ADD12RotRect,1.778000X1.778000X20.000000*%
%TD*%
%TA.AperFunction,ComponentPad*%
%ADD13C,1.905000*%
%TD*%
%TA.AperFunction,ComponentPad*%
%ADD14RotRect,1.778000X1.778000X15.000000*%
%TD*%
%TA.AperFunction,SMDPad,CuDef*%
%ADD15RotRect,0.900000X1.200000X15.000000*%
%TD*%
%TA.AperFunction,SMDPad,CuDef*%
%ADD16RotRect,0.900000X1.200000X10.000000*%
%TD*%
%TA.AperFunction,ComponentPad*%
%ADD17RotRect,1.778000X1.778000X10.000000*%
%TD*%
%TA.AperFunction,SMDPad,CuDef*%
%ADD18RotRect,0.900000X1.200000X5.000000*%
%TD*%
%TA.AperFunction,ComponentPad*%
%ADD19RotRect,1.778000X1.778000X5.000000*%
%TD*%
%TA.AperFunction,SMDPad,CuDef*%
%ADD20R,0.900000X1.200000*%
%TD*%
%TA.AperFunction,ComponentPad*%
%ADD21R,1.778000X1.778000*%
%TD*%
%TA.AperFunction,ComponentPad*%
%ADD22R,1.752600X1.752600*%
%TD*%
%TA.AperFunction,ComponentPad*%
%ADD23C,1.752600*%
%TD*%
%TA.AperFunction,ComponentPad*%
%ADD24O,1.700000X1.700000*%
%TD*%
%TA.AperFunction,ComponentPad*%
%ADD25R,1.700000X1.700000*%
%TD*%
%TA.AperFunction,ComponentPad*%
%ADD26C,1.800000*%
%TD*%
%TA.AperFunction,ComponentPad*%
%ADD27O,2.200000X1.600000*%
%TD*%
%TA.AperFunction,Conductor*%
%ADD28C,0.500000*%
%TD*%
%TA.AperFunction,Conductor*%
%ADD29C,0.250000*%
%TD*%
%TA.AperFunction,Conductor*%
%ADD30C,0.200000*%
%TD*%
G04 APERTURE END LIST*
D10*
%TO.P,S1,1*%
%TO.N,F4*%
X99918191Y-120400482D03*
%TO.P,S1,2*%
%TO.N,farPinky_bottom*%
X94501485Y-120137229D03*
%TO.P,S1,1*%
%TO.N,F4*%
X90521264Y-123820684D03*
%TO.P,S1,2*%
%TO.N,farPinky_bottom*%
X94501485Y-120137229D03*
%TD*%
%TO.P,S2,1*%
%TO.N,F4*%
X93761829Y-103486014D03*
%TO.P,S2,2*%
%TO.N,farPinky_home*%
X88345123Y-103222761D03*
%TO.P,S2,1*%
%TO.N,F4*%
X84364902Y-106906216D03*
%TO.P,S2,2*%
%TO.N,farPinky_home*%
X88345123Y-103222761D03*
%TD*%
%TO.P,S3,1*%
%TO.N,F4*%
X87605470Y-86571548D03*
%TO.P,S3,2*%
%TO.N,farPinky_top*%
X82188764Y-86308295D03*
%TO.P,S3,1*%
%TO.N,F4*%
X78208543Y-89991750D03*
%TO.P,S3,2*%
%TO.N,farPinky_top*%
X82188764Y-86308295D03*
%TD*%
%TO.P,S4,1*%
%TO.N,F5*%
X117772353Y-113902101D03*
%TO.P,S4,2*%
%TO.N,pinky_bottom*%
X112355647Y-113638848D03*
%TO.P,S4,1*%
%TO.N,F5*%
X108375426Y-117322303D03*
%TO.P,S4,2*%
%TO.N,pinky_bottom*%
X112355647Y-113638848D03*
%TD*%
%TO.P,S5,1*%
%TO.N,F5*%
X111615988Y-96987635D03*
%TO.P,S5,2*%
%TO.N,pinky_home*%
X106199282Y-96724382D03*
%TO.P,S5,1*%
%TO.N,F5*%
X102219061Y-100407837D03*
%TO.P,S5,2*%
%TO.N,pinky_home*%
X106199282Y-96724382D03*
%TD*%
%TO.P,S6,1*%
%TO.N,F5*%
X105459625Y-80073166D03*
%TO.P,S6,2*%
%TO.N,pinky_top*%
X100042919Y-79809913D03*
%TO.P,S6,1*%
%TO.N,F5*%
X96062698Y-83493368D03*
%TO.P,S6,2*%
%TO.N,pinky_top*%
X100042919Y-79809913D03*
%TD*%
%TO.P,S7,2*%
%TO.N,ring_bottom*%
X131325255Y-105195079D03*
%TO.P,S7,1*%
%TO.N,F6*%
X127039145Y-108517618D03*
%TO.P,S7,2*%
%TO.N,ring_bottom*%
X131325255Y-105195079D03*
%TO.P,S7,1*%
%TO.N,F6*%
X136698404Y-105929428D03*
%TD*%
%TO.P,S8,1*%
%TO.N,F6*%
X132039661Y-88542769D03*
%TO.P,S8,2*%
%TO.N,ring_home*%
X126666512Y-87808420D03*
%TO.P,S8,1*%
%TO.N,F6*%
X122380402Y-91130959D03*
%TO.P,S8,2*%
%TO.N,ring_home*%
X126666512Y-87808420D03*
%TD*%
%TO.P,S9,1*%
%TO.N,F6*%
X127380927Y-71156100D03*
%TO.P,S9,2*%
%TO.N,ring_top*%
X122007778Y-70421751D03*
%TO.P,S9,1*%
%TO.N,F6*%
X117721668Y-73744290D03*
%TO.P,S9,2*%
%TO.N,ring_top*%
X122007778Y-70421751D03*
%TD*%
%TO.P,S10,1*%
%TO.N,F7*%
X155727873Y-102331898D03*
%TO.P,S10,2*%
%TO.N,middle_bottom*%
X150439173Y-101132042D03*
%TO.P,S10,1*%
%TO.N,F7*%
X145879795Y-104068379D03*
%TO.P,S10,2*%
%TO.N,middle_bottom*%
X150439173Y-101132042D03*
%TD*%
%TO.P,S11,1*%
%TO.N,F7*%
X152602212Y-84605355D03*
%TO.P,S11,2*%
%TO.N,middle_home*%
X147313512Y-83405499D03*
%TO.P,S11,1*%
%TO.N,F7*%
X142754134Y-86341836D03*
%TO.P,S11,2*%
%TO.N,middle_home*%
X147313512Y-83405499D03*
%TD*%
%TO.P,S12,1*%
%TO.N,F7*%
X149476541Y-66878821D03*
%TO.P,S12,2*%
%TO.N,middle_top*%
X144187841Y-65678965D03*
%TO.P,S12,1*%
%TO.N,F7*%
X139628463Y-68615302D03*
%TO.P,S12,2*%
%TO.N,middle_top*%
X144187841Y-65678965D03*
%TD*%
%TO.P,S13,1*%
%TO.N,B1*%
X174998475Y-100406580D03*
%TO.P,S13,2*%
%TO.N,index_bottom*%
X169834474Y-98750350D03*
%TO.P,S13,1*%
%TO.N,B1*%
X165036528Y-101278138D03*
%TO.P,S13,2*%
%TO.N,index_bottom*%
X169834474Y-98750350D03*
%TD*%
%TO.P,S14,1*%
%TO.N,B1*%
X173429677Y-82475071D03*
%TO.P,S14,2*%
%TO.N,index_home*%
X168265676Y-80818841D03*
%TO.P,S14,1*%
%TO.N,B1*%
X163467730Y-83346629D03*
%TO.P,S14,2*%
%TO.N,index_home*%
X168265676Y-80818841D03*
%TD*%
%TO.P,S15,1*%
%TO.N,B1*%
X171860869Y-64543570D03*
%TO.P,S15,2*%
%TO.N,index_top*%
X166696868Y-62887340D03*
%TO.P,S15,1*%
%TO.N,B1*%
X161898922Y-65415128D03*
%TO.P,S15,2*%
%TO.N,index_top*%
X166696868Y-62887340D03*
%TD*%
%TO.P,S16,1*%
%TO.N,B3*%
X194363552Y-100168132D03*
%TO.P,S16,2*%
%TO.N,inner_bottom*%
X189363552Y-98068132D03*
%TO.P,S16,1*%
%TO.N,B3*%
X184363552Y-100168132D03*
%TO.P,S16,2*%
%TO.N,inner_bottom*%
X189363552Y-98068132D03*
%TD*%
%TO.P,S17,1*%
%TO.N,B3*%
X194363547Y-82168138D03*
%TO.P,S17,2*%
%TO.N,inner_home*%
X189363547Y-80068138D03*
%TO.P,S17,1*%
%TO.N,B3*%
X184363547Y-82168138D03*
%TO.P,S17,2*%
%TO.N,inner_home*%
X189363547Y-80068138D03*
%TD*%
%TO.P,S18,1*%
%TO.N,B3*%
X194363549Y-64168131D03*
%TO.P,S18,2*%
%TO.N,inner_top*%
X189363549Y-62068131D03*
%TO.P,S18,1*%
%TO.N,B3*%
X184363549Y-64168131D03*
%TO.P,S18,2*%
%TO.N,inner_top*%
X189363549Y-62068131D03*
%TD*%
%TO.P,S19,1*%
%TO.N,F7*%
X187363553Y-123168134D03*
%TO.P,S19,2*%
%TO.N,near_thumb*%
X182363553Y-121068134D03*
%TO.P,S19,1*%
%TO.N,F7*%
X177363553Y-123168134D03*
%TO.P,S19,2*%
%TO.N,near_thumb*%
X182363553Y-121068134D03*
%TD*%
%TO.P,S20,1*%
%TO.N,B1*%
X206363550Y-123168136D03*
%TO.P,S20,2*%
%TO.N,home_thumb*%
X201363550Y-121068136D03*
%TO.P,S20,1*%
%TO.N,B1*%
X196363550Y-123168136D03*
%TO.P,S20,2*%
%TO.N,home_thumb*%
X201363550Y-121068136D03*
%TD*%
%TO.P,S21,1*%
%TO.N,B3*%
X225363548Y-123168134D03*
%TO.P,S21,2*%
%TO.N,far_thumb*%
X220363548Y-121068134D03*
%TO.P,S21,1*%
%TO.N,B3*%
X215363548Y-123168134D03*
%TO.P,S21,2*%
%TO.N,far_thumb*%
X220363548Y-121068134D03*
%TD*%
D11*
%TO.P,D1,2*%
%TO.N,farPinky_bottom*%
X99780001Y-129815553D03*
%TO.P,D1,1*%
%TO.N,D7*%
X96679015Y-130944219D03*
D12*
X94649279Y-131682983D03*
D13*
%TO.P,D1,2*%
%TO.N,farPinky_bottom*%
X101809737Y-129076789D03*
%TD*%
D11*
%TO.P,D2,2*%
%TO.N,farPinky_home*%
X93623637Y-112901080D03*
%TO.P,D2,1*%
%TO.N,C6*%
X90522651Y-114029746D03*
D12*
X88492915Y-114768510D03*
D13*
%TO.P,D2,2*%
%TO.N,farPinky_home*%
X95653373Y-112162316D03*
%TD*%
D11*
%TO.P,D3,2*%
%TO.N,farPinky_top*%
X87467272Y-95986615D03*
%TO.P,D3,1*%
%TO.N,D4*%
X84366286Y-97115281D03*
D12*
X82336550Y-97854045D03*
D13*
%TO.P,D3,2*%
%TO.N,farPinky_top*%
X89497008Y-95247851D03*
%TD*%
D11*
%TO.P,D4,2*%
%TO.N,pinky_bottom*%
X117634159Y-123317163D03*
%TO.P,D4,1*%
%TO.N,D7*%
X114533173Y-124445829D03*
D12*
X112503437Y-125184593D03*
D13*
%TO.P,D4,2*%
%TO.N,pinky_bottom*%
X119663895Y-122578399D03*
%TD*%
D11*
%TO.P,D5,2*%
%TO.N,pinky_home*%
X111477798Y-106402698D03*
%TO.P,D5,1*%
%TO.N,C6*%
X108376812Y-107531364D03*
D12*
X106347076Y-108270128D03*
D13*
%TO.P,D5,2*%
%TO.N,pinky_home*%
X113507534Y-105663934D03*
%TD*%
D11*
%TO.P,D6,2*%
%TO.N,pinky_top*%
X105321432Y-89488227D03*
%TO.P,D6,1*%
%TO.N,D4*%
X102220446Y-90616893D03*
D12*
X100190710Y-91355657D03*
D13*
%TO.P,D6,2*%
%TO.N,pinky_top*%
X107351168Y-88749463D03*
%TD*%
%TO.P,D7,2*%
%TO.N,ring_bottom*%
X137826565Y-114737567D03*
D14*
%TO.P,D7,1*%
%TO.N,D7*%
X130466211Y-116709769D03*
D15*
X132552610Y-116150719D03*
%TO.P,D7,2*%
%TO.N,ring_bottom*%
X135740166Y-115296617D03*
%TD*%
%TO.P,D8,2*%
%TO.N,ring_home*%
X131081419Y-97909957D03*
%TO.P,D8,1*%
%TO.N,C6*%
X127893863Y-98764059D03*
D14*
X125807464Y-99323109D03*
D13*
%TO.P,D8,2*%
%TO.N,ring_home*%
X133167818Y-97350907D03*
%TD*%
D15*
%TO.P,D9,2*%
%TO.N,ring_top*%
X126422676Y-80523288D03*
%TO.P,D9,1*%
%TO.N,D4*%
X123235120Y-81377390D03*
D14*
X121148721Y-81936440D03*
D13*
%TO.P,D9,2*%
%TO.N,ring_top*%
X128509075Y-79964238D03*
%TD*%
D16*
%TO.P,D10,2*%
%TO.N,middle_bottom*%
X153956872Y-111579927D03*
%TO.P,D10,1*%
%TO.N,D7*%
X150707006Y-112152965D03*
D17*
X148579821Y-112528046D03*
D13*
%TO.P,D10,2*%
%TO.N,middle_bottom*%
X156084057Y-111204846D03*
%TD*%
D16*
%TO.P,D11,2*%
%TO.N,middle_home*%
X150831210Y-93853389D03*
%TO.P,D11,1*%
%TO.N,C6*%
X147581344Y-94426427D03*
D17*
X145454159Y-94801508D03*
D13*
%TO.P,D11,2*%
%TO.N,middle_home*%
X152958395Y-93478308D03*
%TD*%
D16*
%TO.P,D12,2*%
%TO.N,middle_top*%
X147705537Y-76126845D03*
%TO.P,D12,1*%
%TO.N,D4*%
X144455671Y-76699883D03*
D17*
X142328486Y-77074964D03*
D13*
%TO.P,D12,2*%
%TO.N,middle_top*%
X149832722Y-75751764D03*
%TD*%
D18*
%TO.P,D13,2*%
%TO.N,index_bottom*%
X172428199Y-109465062D03*
%TO.P,D13,1*%
%TO.N,D7*%
X169140757Y-109752676D03*
D19*
X166988976Y-109940932D03*
D13*
%TO.P,D13,2*%
%TO.N,index_bottom*%
X174579980Y-109276806D03*
%TD*%
D18*
%TO.P,D14,2*%
%TO.N,index_home*%
X170859391Y-91533557D03*
%TO.P,D14,1*%
%TO.N,C6*%
X167571949Y-91821171D03*
D19*
X165420168Y-92009427D03*
D13*
%TO.P,D14,2*%
%TO.N,index_home*%
X173011172Y-91345301D03*
%TD*%
D18*
%TO.P,D15,2*%
%TO.N,index_top*%
X169290588Y-73602055D03*
%TO.P,D15,1*%
%TO.N,D4*%
X166003146Y-73889669D03*
D19*
X163851365Y-74077925D03*
D13*
%TO.P,D15,2*%
%TO.N,index_top*%
X171442369Y-73413799D03*
%TD*%
D20*
%TO.P,D16,2*%
%TO.N,inner_bottom*%
X191013546Y-108968133D03*
%TO.P,D16,1*%
%TO.N,D7*%
X187713546Y-108968133D03*
D21*
X185553546Y-108968133D03*
D13*
%TO.P,D16,2*%
%TO.N,inner_bottom*%
X193173546Y-108968133D03*
%TD*%
D20*
%TO.P,D17,2*%
%TO.N,inner_home*%
X191013549Y-90968133D03*
%TO.P,D17,1*%
%TO.N,C6*%
X187713549Y-90968133D03*
D21*
X185553549Y-90968133D03*
D13*
%TO.P,D17,2*%
%TO.N,inner_home*%
X193173549Y-90968133D03*
%TD*%
D20*
%TO.P,D18,2*%
%TO.N,inner_top*%
X191013551Y-72968133D03*
%TO.P,D18,1*%
%TO.N,D4*%
X187713551Y-72968133D03*
D21*
X185553551Y-72968133D03*
D13*
%TO.P,D18,2*%
%TO.N,inner_top*%
X193173551Y-72968133D03*
%TD*%
D20*
%TO.P,D19,2*%
%TO.N,near_thumb*%
X184013550Y-131968134D03*
%TO.P,D19,1*%
%TO.N,E6*%
X180713550Y-131968134D03*
D21*
X178553550Y-131968134D03*
D13*
%TO.P,D19,2*%
%TO.N,near_thumb*%
X186173550Y-131968134D03*
%TD*%
D20*
%TO.P,D20,2*%
%TO.N,home_thumb*%
X203013549Y-131968138D03*
%TO.P,D20,1*%
%TO.N,E6*%
X199713549Y-131968138D03*
D21*
X197553549Y-131968138D03*
D13*
%TO.P,D20,2*%
%TO.N,home_thumb*%
X205173549Y-131968138D03*
%TD*%
D20*
%TO.P,D21,2*%
%TO.N,far_thumb*%
X222013552Y-131968130D03*
%TO.P,D21,1*%
%TO.N,E6*%
X218713552Y-131968130D03*
D21*
X216553552Y-131968130D03*
D13*
%TO.P,D21,2*%
%TO.N,far_thumb*%
X224173552Y-131968130D03*
%TD*%
D22*
%TO.P,MCU1,1*%
%TO.N,B0*%
X206743550Y-62998131D03*
D23*
%TO.P,MCU1,2*%
%TO.N,GND*%
X206743550Y-65538131D03*
%TO.P,MCU1,3*%
%TO.N,RST*%
X206743550Y-68078131D03*
%TO.P,MCU1,4*%
%TO.N,VCC*%
X206743550Y-70618131D03*
%TO.P,MCU1,5*%
%TO.N,F4*%
X206743550Y-73158131D03*
%TO.P,MCU1,6*%
%TO.N,F5*%
X206743550Y-75698131D03*
%TO.P,MCU1,7*%
%TO.N,F6*%
X206743550Y-78238131D03*
%TO.P,MCU1,8*%
%TO.N,F7*%
X206743550Y-80778131D03*
%TO.P,MCU1,9*%
%TO.N,B1*%
X206743550Y-83318131D03*
%TO.P,MCU1,10*%
%TO.N,B3*%
X206743550Y-85858131D03*
%TO.P,MCU1,11*%
%TO.N,B2*%
X206743550Y-88398131D03*
%TO.P,MCU1,12*%
%TO.N,B6*%
X206743550Y-90938131D03*
%TO.P,MCU1,13*%
%TO.N,D3*%
X221983550Y-62998131D03*
%TO.P,MCU1,14*%
%TO.N,D2*%
X221983550Y-65538131D03*
%TO.P,MCU1,15*%
%TO.N,GND*%
X221983550Y-68078131D03*
%TO.P,MCU1,16*%
X221983550Y-70618131D03*
%TO.P,MCU1,17*%
%TO.N,D1*%
X221983550Y-73158131D03*
%TO.P,MCU1,18*%
%TO.N,D0*%
X221983550Y-75698131D03*
%TO.P,MCU1,19*%
%TO.N,D4*%
X221983550Y-78238131D03*
%TO.P,MCU1,20*%
%TO.N,C6*%
X221983550Y-80778131D03*
%TO.P,MCU1,21*%
%TO.N,D7*%
X221983550Y-83318131D03*
%TO.P,MCU1,22*%
%TO.N,E6*%
X221983550Y-85858131D03*
%TO.P,MCU1,23*%
%TO.N,B4*%
X221983550Y-88398131D03*
%TO.P,MCU1,24*%
%TO.N,B5*%
X221983550Y-90938131D03*
%TD*%
D24*
%TO.P,OLED1,4*%
%TO.N,D1*%
X210543555Y-94368135D03*
%TO.P,OLED1,3*%
%TO.N,D0*%
X213083555Y-94368135D03*
%TO.P,OLED1,2*%
%TO.N,VCC*%
X215623555Y-94368135D03*
D25*
%TO.P,OLED1,1*%
%TO.N,GND*%
X218163555Y-94368135D03*
%TD*%
D26*
%TO.P,B1,1*%
%TO.N,GND*%
X205263549Y-102118135D03*
X211463549Y-102118135D03*
%TO.P,B1,2*%
%TO.N,RST*%
X205263549Y-105818135D03*
X211463549Y-105818135D03*
%TD*%
D27*
%TO.P,TRRS1,1*%
%TO.N,GND*%
X216063548Y-101668133D03*
%TO.P,TRRS1,2*%
%TO.N,B0*%
X217163548Y-106268133D03*
%TO.P,TRRS1,3*%
%TO.N,GND*%
X221163548Y-106268133D03*
%TO.P,TRRS1,4*%
%TO.N,VCC*%
X224163548Y-106268133D03*
%TO.P,TRRS1,1*%
%TO.N,GND*%
X216063548Y-103968133D03*
%TO.P,TRRS1,2*%
%TO.N,B0*%
X217163548Y-99368133D03*
%TO.P,TRRS1,3*%
%TO.N,GND*%
X221163548Y-99368133D03*
%TO.P,TRRS1,4*%
%TO.N,VCC*%
X224163548Y-99368133D03*
%TD*%
D28*
%TO.N,VCC*%
X208069850Y-71944431D02*
X206743551Y-70618131D01*
X208069851Y-94851773D02*
X208069850Y-71944431D01*
X209895682Y-96677605D02*
X208069851Y-94851773D01*
X224163549Y-99368132D02*
X221473022Y-96677606D01*
X221473022Y-96677606D02*
X209895682Y-96677605D01*
D29*
%TO.N,D4*%
X225635681Y-74586001D02*
X221983550Y-78238132D01*
X201895682Y-63177606D02*
X204165683Y-60907604D01*
X223645683Y-60907605D02*
X225635683Y-62897606D01*
X201895683Y-66807604D02*
X201895682Y-63177606D01*
X204165683Y-60907604D02*
X223645683Y-60907605D01*
X193925683Y-74777605D02*
X201895683Y-66807604D01*
X187363023Y-74777604D02*
X193925683Y-74777605D01*
X225635683Y-62897606D02*
X225635681Y-74586001D01*
X185553552Y-72968133D02*
X187363023Y-74777604D01*
%TO.N,D7*%
X227785683Y-107267604D02*
X227785682Y-89120264D01*
X222455682Y-112597606D02*
X227785683Y-107267604D01*
X189155682Y-112597606D02*
X222455682Y-112597606D01*
X189155684Y-112570271D02*
X189155682Y-112597606D01*
X227785682Y-89120264D02*
X221983551Y-83318132D01*
X185553546Y-108968133D02*
X189155684Y-112570271D01*
%TO.N,B3*%
X202495155Y-85858131D02*
X206743551Y-85858132D01*
X201325682Y-87027606D02*
X202495155Y-85858131D01*
X201325683Y-90047606D02*
X201325682Y-87027606D01*
X194363552Y-97009736D02*
X201325683Y-90047606D01*
X194363551Y-100168133D02*
X194363552Y-97009736D01*
%TO.N,B1*%
X199985682Y-85517606D02*
X202185156Y-83318131D01*
X199985684Y-89127603D02*
X199985682Y-85517606D01*
X194121435Y-94991852D02*
X199985684Y-89127603D01*
X202185156Y-83318131D02*
X206743551Y-83318133D01*
X179626908Y-94991850D02*
X194121435Y-94991852D01*
X179535242Y-94999873D02*
X179626908Y-94991850D01*
X174998476Y-100406579D02*
X179535242Y-94999873D01*
%TO.N,F7*%
X201378888Y-80778132D02*
X206743549Y-80778134D01*
X199039868Y-83117153D02*
X201378888Y-80778132D01*
X199039868Y-88481814D02*
X199039868Y-83117153D01*
X193908395Y-93613286D02*
X199039868Y-88481814D01*
X179319796Y-93613288D02*
X193908395Y-93613286D01*
X179317439Y-93611308D02*
X179319796Y-93613288D01*
X160693168Y-95240719D02*
X179317439Y-93611308D01*
X155727874Y-102331899D02*
X160693168Y-95240719D01*
%TO.N,F6*%
X180123983Y-78238131D02*
X206743548Y-78238132D01*
X179720381Y-77834532D02*
X180123983Y-78238131D01*
X179704601Y-77821291D02*
X179720381Y-77834532D01*
X165411725Y-79071755D02*
X179704601Y-77821291D01*
X164465816Y-78409422D02*
X165411725Y-79071755D01*
X144632743Y-81906529D02*
X164465816Y-78409422D01*
X135457499Y-82553296D02*
X142460461Y-80676858D01*
X142460461Y-80676858D02*
X144603763Y-81914293D01*
X132039662Y-88542767D02*
X135470237Y-82600838D01*
X135470237Y-82600838D02*
X135457499Y-82553296D01*
X144603763Y-81914293D02*
X144632743Y-81906529D01*
%TO.N,F5*%
X195917056Y-75698132D02*
X206743550Y-75698132D01*
X179499776Y-76759396D02*
X194855789Y-76759395D01*
X194855789Y-76759395D02*
X195917056Y-75698132D01*
X164611142Y-77031202D02*
X165919741Y-77947496D01*
X143057633Y-79793225D02*
X144435469Y-80588717D01*
X144435469Y-80588717D02*
X164611142Y-77031202D01*
X165919741Y-77947496D02*
X179499776Y-76759396D01*
X120433777Y-88123674D02*
X121983127Y-85440123D01*
X121983127Y-85440123D02*
X143057633Y-79793225D01*
X120433777Y-88123674D02*
X120459411Y-88135625D01*
X114791743Y-90177203D02*
X120433777Y-88123674D01*
X111615989Y-96987634D02*
X114791743Y-90177203D01*
%TO.N,F4*%
X197250495Y-73158132D02*
X206743551Y-73158132D01*
X194567112Y-75841510D02*
X197250495Y-73158132D01*
X179330621Y-75841514D02*
X194567112Y-75841510D01*
X165995971Y-77008144D02*
X179330621Y-75841514D01*
X143204502Y-78938128D02*
X144747676Y-79829080D01*
X164939870Y-76268654D02*
X165995971Y-77008144D01*
X121120332Y-84855560D02*
X143204502Y-78938128D01*
X119495717Y-87669474D02*
X121120332Y-84855560D01*
X144747676Y-79829080D02*
X164939870Y-76268654D01*
X119495717Y-87669474D02*
X119521352Y-87681428D01*
X97384428Y-95717328D02*
X119495717Y-87669474D01*
X93761826Y-103486015D02*
X97384428Y-95717328D01*
D28*
%TO.N,VCC*%
X215623551Y-94368135D02*
X215623554Y-79498138D01*
X215623554Y-79498138D02*
X206743546Y-70618134D01*
%TO.N,GND*%
X209283552Y-68078131D02*
X206743549Y-65538129D01*
X221983549Y-68078132D02*
X209283552Y-68078131D01*
X221983551Y-70618131D02*
X221983549Y-68078132D01*
X218163556Y-74438132D02*
X221983551Y-70618131D01*
X218163553Y-94368131D02*
X218163556Y-74438132D01*
D29*
%TO.N,E6*%
X218713551Y-131968131D02*
X216553552Y-131968130D01*
%TO.N,far_thumb*%
X224173551Y-131968135D02*
X222013553Y-131968130D01*
X224173551Y-124878130D02*
X220363548Y-121068131D01*
X224173551Y-131968135D02*
X224173551Y-124878130D01*
%TO.N,E6*%
X200010972Y-134425556D02*
X214096129Y-134425553D01*
X197553550Y-131968136D02*
X200010972Y-134425556D01*
X214096129Y-134425553D02*
X216553552Y-131968130D01*
%TO.N,home_thumb*%
X205173551Y-124878135D02*
X201363551Y-121068139D01*
X205173554Y-131968138D02*
X205173551Y-124878135D01*
X203013554Y-131968133D02*
X205173554Y-131968138D01*
%TO.N,E6*%
X197553550Y-131968136D02*
X199713549Y-131968137D01*
X194746131Y-134775556D02*
X197553550Y-131968136D01*
X181360967Y-134775551D02*
X194746131Y-134775556D01*
X178553552Y-131968133D02*
X181360967Y-134775551D01*
%TO.N,near_thumb*%
X186173548Y-124878129D02*
X186173549Y-131968132D01*
X182363549Y-121068132D02*
X186173548Y-124878129D01*
%TO.N,E6*%
X180713549Y-131968131D02*
X178553552Y-131968133D01*
%TO.N,near_thumb*%
X186173549Y-131968132D02*
X184013551Y-131968132D01*
%TO.N,D7*%
X187713546Y-108968133D02*
X185553545Y-108968132D01*
%TO.N,inner_bottom*%
X193173546Y-108968130D02*
X191013546Y-108968132D01*
X193173545Y-101878129D02*
X193173546Y-108968130D01*
X189363549Y-98068133D02*
X193173545Y-101878129D01*
%TO.N,D7*%
X184355240Y-110396220D02*
X185553546Y-108968132D01*
X169120055Y-111729128D02*
X184355240Y-110396220D01*
X166988972Y-109940933D02*
X169120055Y-111729128D01*
X169140756Y-109752682D02*
X166988972Y-109940933D01*
%TO.N,index_bottom*%
X174579980Y-109276807D02*
X172428198Y-109465062D01*
X169834472Y-98750352D02*
X173962046Y-102213790D01*
X173962046Y-102213790D02*
X174579980Y-109276807D01*
%TO.N,D7*%
X166114834Y-111189336D02*
X166988976Y-109940934D01*
X150579958Y-113928554D02*
X166114834Y-111189336D01*
X148579821Y-112528042D02*
X150579958Y-113928554D01*
X150707009Y-112152963D02*
X148579821Y-112528042D01*
%TO.N,middle_bottom*%
X156084058Y-111204849D02*
X153956871Y-111579925D01*
X155938090Y-111102639D02*
X156084058Y-111204849D01*
X154694912Y-104052229D02*
X155938090Y-111102639D01*
X150507296Y-101120032D02*
X154694912Y-104052229D01*
X150439171Y-101132040D02*
X150507296Y-101120032D01*
%TO.N,D7*%
X147673285Y-114098222D02*
X148579821Y-112528042D01*
X132831136Y-118075162D02*
X147673285Y-114098222D01*
X130466211Y-116709767D02*
X132831136Y-118075162D01*
X132552605Y-116150718D02*
X130466211Y-116709767D01*
%TO.N,ring_bottom*%
X137826561Y-114737568D02*
X135740165Y-115296615D01*
X135991533Y-107889156D02*
X137826561Y-114737568D01*
X131325254Y-105195077D02*
X135991533Y-107889156D01*
%TO.N,D7*%
X128422391Y-121092751D02*
X130466211Y-116709767D01*
X114553576Y-126140589D02*
X128422391Y-121092751D01*
X112503436Y-125184593D02*
X114553576Y-126140589D01*
X114533173Y-124445833D02*
X112503436Y-125184593D01*
%TO.N,pinky_bottom*%
X119663897Y-122578399D02*
X117634163Y-123317164D01*
X112355647Y-113638849D02*
X117238973Y-115915979D01*
X117238973Y-115915979D02*
X119663897Y-122578399D01*
%TO.N,D7*%
X97007026Y-132782417D02*
X94649275Y-131682980D01*
X112503436Y-125184593D02*
X111404002Y-127542340D01*
X111404002Y-127542340D02*
X97007026Y-132782417D01*
X96679018Y-130944215D02*
X94649275Y-131682980D01*
%TO.N,farPinky_bottom*%
X101809736Y-129076783D02*
X99780001Y-129815552D01*
X94501483Y-120137232D02*
X99384811Y-122414363D01*
X99384811Y-122414363D02*
X101809736Y-129076783D01*
%TO.N,C6*%
X187713549Y-90968132D02*
X185553548Y-90968130D01*
%TO.N,inner_home*%
X193173551Y-90968130D02*
X191013552Y-90968129D01*
X193173550Y-83878136D02*
X193173551Y-90968130D01*
X189363548Y-80068132D02*
X193173550Y-83878136D01*
%TO.N,C6*%
X184343895Y-92409739D02*
X167638975Y-93871234D01*
X167638975Y-93871234D02*
X165420171Y-92009427D01*
X185553549Y-90968131D02*
X184343895Y-92409739D01*
X167571948Y-91821173D02*
X165420171Y-92009427D01*
%TO.N,index_home*%
X173011170Y-91345304D02*
X170859390Y-91533559D01*
X168265677Y-80818846D02*
X172393240Y-84282283D01*
X172393240Y-84282283D02*
X173011170Y-91345304D01*
%TO.N,C6*%
X147744712Y-96405374D02*
X145454153Y-94801504D01*
X164398227Y-93468910D02*
X147744712Y-96405374D01*
X165420171Y-92009427D02*
X164398227Y-93468910D01*
X147581338Y-94426431D02*
X145454153Y-94801504D01*
%TO.N,middle_home*%
X152958393Y-93478309D02*
X150831208Y-93853386D01*
X151727227Y-86496014D02*
X152958393Y-93478309D01*
X147313507Y-83405498D02*
X151727227Y-86496014D01*
%TO.N,C6*%
X144595550Y-96288646D02*
X145454153Y-94801504D01*
X128173250Y-100688996D02*
X144595550Y-96288646D01*
X125807464Y-99323105D02*
X128173250Y-100688996D01*
X127893865Y-98764059D02*
X125807464Y-99323105D01*
%TO.N,ring_home*%
X133167823Y-97350902D02*
X131081423Y-97909956D01*
X131332794Y-90502495D02*
X133167823Y-97350902D01*
X126666512Y-87808416D02*
X131332794Y-90502495D01*
%TO.N,C6*%
X108959163Y-109488165D02*
X106347075Y-108270125D01*
X125807464Y-99323105D02*
X123542546Y-104180239D01*
X123542546Y-104180239D02*
X108959163Y-109488165D01*
X108376815Y-107531360D02*
X106347075Y-108270125D01*
%TO.N,pinky_home*%
X113507536Y-105663933D02*
X111477799Y-106402701D01*
X111082614Y-99001512D02*
X113507536Y-105663933D01*
X106199287Y-96724384D02*
X111082614Y-99001512D01*
%TO.N,C6*%
X91194718Y-116028386D02*
X88492919Y-114768510D01*
X105087206Y-110971932D02*
X91194718Y-116028386D01*
X106347075Y-108270125D02*
X105087206Y-110971932D01*
X90522655Y-114029750D02*
X88492919Y-114768510D01*
%TO.N,farPinky_home*%
X95653376Y-112162317D02*
X93623639Y-112901083D01*
X88345124Y-103222760D02*
X93228453Y-105499898D01*
X93228453Y-105499898D02*
X95653376Y-112162317D01*
%TO.N,D4*%
X187713551Y-72968130D02*
X185553551Y-72968132D01*
%TO.N,inner_top*%
X193173548Y-72968137D02*
X191013547Y-72968134D01*
X193173551Y-65878135D02*
X193173548Y-72968137D01*
X189363548Y-62068136D02*
X193173551Y-65878135D01*
%TO.N,D4*%
X184218944Y-74558659D02*
X185553551Y-72968132D01*
X163851368Y-74077929D02*
X166293294Y-76126951D01*
X166293294Y-76126951D02*
X184218944Y-74558659D01*
X166003146Y-73889672D02*
X163851368Y-74077929D01*
%TO.N,index_top*%
X171442369Y-73413796D02*
X169290594Y-73602054D01*
X170824433Y-66350783D02*
X171442369Y-73413796D01*
X166696869Y-62887340D02*
X170824433Y-66350783D01*
%TO.N,D4*%
X162628861Y-75823847D02*
X163851368Y-74077929D01*
X144984843Y-78934961D02*
X162628861Y-75823847D01*
X142328492Y-77074963D02*
X144984843Y-78934961D01*
X144455672Y-76699885D02*
X142328492Y-77074963D01*
%TO.N,middle_top*%
X149832724Y-75751768D02*
X147705539Y-76126841D01*
X148601558Y-68769477D02*
X149832724Y-75751768D01*
X144187842Y-65678962D02*
X148601558Y-68769477D01*
%TO.N,D4*%
X141429394Y-78632240D02*
X142328489Y-77074962D01*
X123668529Y-83391251D02*
X141429394Y-78632240D01*
X121148719Y-81936441D02*
X123668529Y-83391251D01*
X123235121Y-81377392D02*
X121148719Y-81936441D01*
%TO.N,ring_top*%
X128509077Y-79964241D02*
X126422672Y-80523291D01*
X126674047Y-73115829D02*
X128509077Y-79964241D01*
X122007775Y-70421749D02*
X126674047Y-73115829D01*
%TO.N,D4*%
X102835552Y-92588965D02*
X118909464Y-86738537D01*
X100190715Y-91355656D02*
X102835552Y-92588965D01*
X118909464Y-86738537D02*
X121148719Y-81936441D01*
X85429987Y-99296537D02*
X82336547Y-97854040D01*
X98748222Y-94449096D02*
X85429987Y-99296537D01*
X100190715Y-91355656D02*
X98748222Y-94449096D01*
D30*
%TO.N,pinky_top*%
X105321436Y-89488230D02*
X107351168Y-88749464D01*
D29*
%TO.N,D4*%
X100190715Y-91355656D02*
X102220448Y-90616898D01*
D30*
%TO.N,pinky_top*%
X104926248Y-82087045D02*
X100042923Y-79809912D01*
X107351168Y-88749464D02*
X104926248Y-82087045D01*
D29*
%TO.N,farPinky_top*%
X89788438Y-95141780D02*
X89822188Y-95069387D01*
X89497009Y-95247842D02*
X89788438Y-95141780D01*
%TO.N,D4*%
X82336547Y-97854040D02*
X84366290Y-97115277D01*
%TO.N,farPinky_top*%
X89497009Y-95247842D02*
X87467276Y-95986608D01*
X87072080Y-88585425D02*
X89497009Y-95247842D01*
X82188765Y-86308293D02*
X87072080Y-88585425D01*
%TD*%
M02*
