%TF.GenerationSoftware,KiCad,Pcbnew,7.0.2*%
%TF.CreationDate,2023-07-05T19:02:59-04:00*%
%TF.ProjectId,paul,7061756c-2e6b-4696-9361-645f70636258,v1.0.0*%
%TF.SameCoordinates,Original*%
%TF.FileFunction,Paste,Bot*%
%TF.FilePolarity,Positive*%
%FSLAX46Y46*%
G04 Gerber Fmt 4.6, Leading zero omitted, Abs format (unit mm)*
G04 Created by KiCad (PCBNEW 7.0.2) date 2023-07-05 19:02:59*
%MOMM*%
%LPD*%
G01*
G04 APERTURE LIST*
G04 Aperture macros list*
%AMRotRect*
0 Rectangle, with rotation*
0 The origin of the aperture is its center*
0 $1 length*
0 $2 width*
0 $3 Rotation angle, in degrees counterclockwise*
0 Add horizontal line*
21,1,$1,$2,0,0,$3*%
G04 Aperture macros list end*
%ADD10RotRect,0.900000X1.200000X20.000000*%
%ADD11RotRect,0.900000X1.200000X15.000000*%
%ADD12RotRect,0.900000X1.200000X10.000000*%
%ADD13RotRect,0.900000X1.200000X5.000000*%
%ADD14R,0.900000X1.200000*%
G04 APERTURE END LIST*
D10*
%TO.C,D1*%
X99780001Y-129815553D03*
X96679015Y-130944219D03*
%TD*%
%TO.C,D2*%
X93623637Y-112901080D03*
X90522651Y-114029746D03*
%TD*%
%TO.C,D3*%
X87467272Y-95986615D03*
X84366286Y-97115281D03*
%TD*%
%TO.C,D4*%
X117634159Y-123317163D03*
X114533173Y-124445829D03*
%TD*%
%TO.C,D5*%
X111477798Y-106402698D03*
X108376812Y-107531364D03*
%TD*%
%TO.C,D6*%
X105321432Y-89488227D03*
X102220446Y-90616893D03*
%TD*%
D11*
%TO.C,D7*%
X132552610Y-116150719D03*
X135740166Y-115296617D03*
%TD*%
%TO.C,D8*%
X131081419Y-97909957D03*
X127893863Y-98764059D03*
%TD*%
%TO.C,D9*%
X126422676Y-80523288D03*
X123235120Y-81377390D03*
%TD*%
D12*
%TO.C,D10*%
X153956872Y-111579927D03*
X150707006Y-112152965D03*
%TD*%
%TO.C,D11*%
X150831210Y-93853389D03*
X147581344Y-94426427D03*
%TD*%
%TO.C,D12*%
X147705537Y-76126845D03*
X144455671Y-76699883D03*
%TD*%
D13*
%TO.C,D13*%
X172428199Y-109465062D03*
X169140757Y-109752676D03*
%TD*%
%TO.C,D14*%
X170859391Y-91533557D03*
X167571949Y-91821171D03*
%TD*%
%TO.C,D15*%
X169290588Y-73602055D03*
X166003146Y-73889669D03*
%TD*%
D14*
%TO.C,D16*%
X191013546Y-108968133D03*
X187713546Y-108968133D03*
%TD*%
%TO.C,D17*%
X191013549Y-90968133D03*
X187713549Y-90968133D03*
%TD*%
%TO.C,D18*%
X191013551Y-72968133D03*
X187713551Y-72968133D03*
%TD*%
%TO.C,D19*%
X184013550Y-131968134D03*
X180713550Y-131968134D03*
%TD*%
%TO.C,D20*%
X203013549Y-131968138D03*
X199713549Y-131968138D03*
%TD*%
%TO.C,D21*%
X222013552Y-131968130D03*
X218713552Y-131968130D03*
%TD*%
M02*
