%TF.GenerationSoftware,KiCad,Pcbnew,7.0.2*%
%TF.CreationDate,2023-07-05T19:02:59-04:00*%
%TF.ProjectId,paul,7061756c-2e6b-4696-9361-645f70636258,v1.0.0*%
%TF.SameCoordinates,Original*%
%TF.FileFunction,Legend,Top*%
%TF.FilePolarity,Positive*%
%FSLAX46Y46*%
G04 Gerber Fmt 4.6, Leading zero omitted, Abs format (unit mm)*
G04 Created by KiCad (PCBNEW 7.0.2) date 2023-07-05 19:02:59*
%MOMM*%
%LPD*%
G01*
G04 APERTURE LIST*
%ADD10C,0.150000*%
%ADD11C,1.000000*%
%ADD12C,0.100000*%
%ADD13R,1.752600X1.752600*%
%ADD14C,1.752600*%
G04 APERTURE END LIST*
D10*
X199633809Y-110487619D02*
X199633809Y-111201904D01*
X199633809Y-111201904D02*
X199586190Y-111344761D01*
X199586190Y-111344761D02*
X199490952Y-111440000D01*
X199490952Y-111440000D02*
X199348095Y-111487619D01*
X199348095Y-111487619D02*
X199252857Y-111487619D01*
X200252857Y-111487619D02*
X200157619Y-111440000D01*
X200157619Y-111440000D02*
X200110000Y-111392380D01*
X200110000Y-111392380D02*
X200062381Y-111297142D01*
X200062381Y-111297142D02*
X200062381Y-111011428D01*
X200062381Y-111011428D02*
X200110000Y-110916190D01*
X200110000Y-110916190D02*
X200157619Y-110868571D01*
X200157619Y-110868571D02*
X200252857Y-110820952D01*
X200252857Y-110820952D02*
X200395714Y-110820952D01*
X200395714Y-110820952D02*
X200490952Y-110868571D01*
X200490952Y-110868571D02*
X200538571Y-110916190D01*
X200538571Y-110916190D02*
X200586190Y-111011428D01*
X200586190Y-111011428D02*
X200586190Y-111297142D01*
X200586190Y-111297142D02*
X200538571Y-111392380D01*
X200538571Y-111392380D02*
X200490952Y-111440000D01*
X200490952Y-111440000D02*
X200395714Y-111487619D01*
X200395714Y-111487619D02*
X200252857Y-111487619D01*
X200967143Y-111440000D02*
X201062381Y-111487619D01*
X201062381Y-111487619D02*
X201252857Y-111487619D01*
X201252857Y-111487619D02*
X201348095Y-111440000D01*
X201348095Y-111440000D02*
X201395714Y-111344761D01*
X201395714Y-111344761D02*
X201395714Y-111297142D01*
X201395714Y-111297142D02*
X201348095Y-111201904D01*
X201348095Y-111201904D02*
X201252857Y-111154285D01*
X201252857Y-111154285D02*
X201110000Y-111154285D01*
X201110000Y-111154285D02*
X201014762Y-111106666D01*
X201014762Y-111106666D02*
X200967143Y-111011428D01*
X200967143Y-111011428D02*
X200967143Y-110963809D01*
X200967143Y-110963809D02*
X201014762Y-110868571D01*
X201014762Y-110868571D02*
X201110000Y-110820952D01*
X201110000Y-110820952D02*
X201252857Y-110820952D01*
X201252857Y-110820952D02*
X201348095Y-110868571D01*
X201824286Y-111487619D02*
X201824286Y-110487619D01*
X202252857Y-111487619D02*
X202252857Y-110963809D01*
X202252857Y-110963809D02*
X202205238Y-110868571D01*
X202205238Y-110868571D02*
X202110000Y-110820952D01*
X202110000Y-110820952D02*
X201967143Y-110820952D01*
X201967143Y-110820952D02*
X201871905Y-110868571D01*
X201871905Y-110868571D02*
X201824286Y-110916190D01*
X203157619Y-110820952D02*
X203157619Y-111487619D01*
X202729048Y-110820952D02*
X202729048Y-111344761D01*
X202729048Y-111344761D02*
X202776667Y-111440000D01*
X202776667Y-111440000D02*
X202871905Y-111487619D01*
X202871905Y-111487619D02*
X203014762Y-111487619D01*
X203014762Y-111487619D02*
X203110000Y-111440000D01*
X203110000Y-111440000D02*
X203157619Y-111392380D01*
X204062381Y-111487619D02*
X204062381Y-110963809D01*
X204062381Y-110963809D02*
X204014762Y-110868571D01*
X204014762Y-110868571D02*
X203919524Y-110820952D01*
X203919524Y-110820952D02*
X203729048Y-110820952D01*
X203729048Y-110820952D02*
X203633810Y-110868571D01*
X204062381Y-111440000D02*
X203967143Y-111487619D01*
X203967143Y-111487619D02*
X203729048Y-111487619D01*
X203729048Y-111487619D02*
X203633810Y-111440000D01*
X203633810Y-111440000D02*
X203586191Y-111344761D01*
X203586191Y-111344761D02*
X203586191Y-111249523D01*
X203586191Y-111249523D02*
X203633810Y-111154285D01*
X203633810Y-111154285D02*
X203729048Y-111106666D01*
X203729048Y-111106666D02*
X203967143Y-111106666D01*
X203967143Y-111106666D02*
X204062381Y-111059047D01*
X205490953Y-110487619D02*
X205681429Y-110487619D01*
X205681429Y-110487619D02*
X205776667Y-110535238D01*
X205776667Y-110535238D02*
X205871905Y-110630476D01*
X205871905Y-110630476D02*
X205919524Y-110820952D01*
X205919524Y-110820952D02*
X205919524Y-111154285D01*
X205919524Y-111154285D02*
X205871905Y-111344761D01*
X205871905Y-111344761D02*
X205776667Y-111440000D01*
X205776667Y-111440000D02*
X205681429Y-111487619D01*
X205681429Y-111487619D02*
X205490953Y-111487619D01*
X205490953Y-111487619D02*
X205395715Y-111440000D01*
X205395715Y-111440000D02*
X205300477Y-111344761D01*
X205300477Y-111344761D02*
X205252858Y-111154285D01*
X205252858Y-111154285D02*
X205252858Y-110820952D01*
X205252858Y-110820952D02*
X205300477Y-110630476D01*
X205300477Y-110630476D02*
X205395715Y-110535238D01*
X205395715Y-110535238D02*
X205490953Y-110487619D01*
X206348096Y-111487619D02*
X206348096Y-110487619D01*
X206348096Y-110868571D02*
X206443334Y-110820952D01*
X206443334Y-110820952D02*
X206633810Y-110820952D01*
X206633810Y-110820952D02*
X206729048Y-110868571D01*
X206729048Y-110868571D02*
X206776667Y-110916190D01*
X206776667Y-110916190D02*
X206824286Y-111011428D01*
X206824286Y-111011428D02*
X206824286Y-111297142D01*
X206824286Y-111297142D02*
X206776667Y-111392380D01*
X206776667Y-111392380D02*
X206729048Y-111440000D01*
X206729048Y-111440000D02*
X206633810Y-111487619D01*
X206633810Y-111487619D02*
X206443334Y-111487619D01*
X206443334Y-111487619D02*
X206348096Y-111440000D01*
X207395715Y-111487619D02*
X207300477Y-111440000D01*
X207300477Y-111440000D02*
X207252858Y-111344761D01*
X207252858Y-111344761D02*
X207252858Y-110487619D01*
X207776668Y-110820952D02*
X207776668Y-111678095D01*
X207776668Y-111678095D02*
X207729049Y-111773333D01*
X207729049Y-111773333D02*
X207633811Y-111820952D01*
X207633811Y-111820952D02*
X207586192Y-111820952D01*
X207776668Y-110487619D02*
X207729049Y-110535238D01*
X207729049Y-110535238D02*
X207776668Y-110582857D01*
X207776668Y-110582857D02*
X207824287Y-110535238D01*
X207824287Y-110535238D02*
X207776668Y-110487619D01*
X207776668Y-110487619D02*
X207776668Y-110582857D01*
X208681429Y-110820952D02*
X208681429Y-111487619D01*
X208252858Y-110820952D02*
X208252858Y-111344761D01*
X208252858Y-111344761D02*
X208300477Y-111440000D01*
X208300477Y-111440000D02*
X208395715Y-111487619D01*
X208395715Y-111487619D02*
X208538572Y-111487619D01*
X208538572Y-111487619D02*
X208633810Y-111440000D01*
X208633810Y-111440000D02*
X208681429Y-111392380D01*
X209157620Y-111487619D02*
X209157620Y-110487619D01*
X209157620Y-110868571D02*
X209252858Y-110820952D01*
X209252858Y-110820952D02*
X209443334Y-110820952D01*
X209443334Y-110820952D02*
X209538572Y-110868571D01*
X209538572Y-110868571D02*
X209586191Y-110916190D01*
X209586191Y-110916190D02*
X209633810Y-111011428D01*
X209633810Y-111011428D02*
X209633810Y-111297142D01*
X209633810Y-111297142D02*
X209586191Y-111392380D01*
X209586191Y-111392380D02*
X209538572Y-111440000D01*
X209538572Y-111440000D02*
X209443334Y-111487619D01*
X209443334Y-111487619D02*
X209252858Y-111487619D01*
X209252858Y-111487619D02*
X209157620Y-111440000D01*
X210443334Y-111440000D02*
X210348096Y-111487619D01*
X210348096Y-111487619D02*
X210157620Y-111487619D01*
X210157620Y-111487619D02*
X210062382Y-111440000D01*
X210062382Y-111440000D02*
X210014763Y-111344761D01*
X210014763Y-111344761D02*
X210014763Y-110963809D01*
X210014763Y-110963809D02*
X210062382Y-110868571D01*
X210062382Y-110868571D02*
X210157620Y-110820952D01*
X210157620Y-110820952D02*
X210348096Y-110820952D01*
X210348096Y-110820952D02*
X210443334Y-110868571D01*
X210443334Y-110868571D02*
X210490953Y-110963809D01*
X210490953Y-110963809D02*
X210490953Y-111059047D01*
X210490953Y-111059047D02*
X210014763Y-111154285D01*
X210919525Y-111487619D02*
X210919525Y-110487619D01*
X211014763Y-111106666D02*
X211300477Y-111487619D01*
X211300477Y-110820952D02*
X210919525Y-111201904D01*
X212919525Y-111487619D02*
X212919525Y-110963809D01*
X212919525Y-110963809D02*
X212871906Y-110868571D01*
X212871906Y-110868571D02*
X212776668Y-110820952D01*
X212776668Y-110820952D02*
X212586192Y-110820952D01*
X212586192Y-110820952D02*
X212490954Y-110868571D01*
X212919525Y-111440000D02*
X212824287Y-111487619D01*
X212824287Y-111487619D02*
X212586192Y-111487619D01*
X212586192Y-111487619D02*
X212490954Y-111440000D01*
X212490954Y-111440000D02*
X212443335Y-111344761D01*
X212443335Y-111344761D02*
X212443335Y-111249523D01*
X212443335Y-111249523D02*
X212490954Y-111154285D01*
X212490954Y-111154285D02*
X212586192Y-111106666D01*
X212586192Y-111106666D02*
X212824287Y-111106666D01*
X212824287Y-111106666D02*
X212919525Y-111059047D01*
X213395716Y-110820952D02*
X213395716Y-111487619D01*
X213395716Y-110916190D02*
X213443335Y-110868571D01*
X213443335Y-110868571D02*
X213538573Y-110820952D01*
X213538573Y-110820952D02*
X213681430Y-110820952D01*
X213681430Y-110820952D02*
X213776668Y-110868571D01*
X213776668Y-110868571D02*
X213824287Y-110963809D01*
X213824287Y-110963809D02*
X213824287Y-111487619D01*
X214729049Y-111487619D02*
X214729049Y-110487619D01*
X214729049Y-111440000D02*
X214633811Y-111487619D01*
X214633811Y-111487619D02*
X214443335Y-111487619D01*
X214443335Y-111487619D02*
X214348097Y-111440000D01*
X214348097Y-111440000D02*
X214300478Y-111392380D01*
X214300478Y-111392380D02*
X214252859Y-111297142D01*
X214252859Y-111297142D02*
X214252859Y-111011428D01*
X214252859Y-111011428D02*
X214300478Y-110916190D01*
X214300478Y-110916190D02*
X214348097Y-110868571D01*
X214348097Y-110868571D02*
X214443335Y-110820952D01*
X214443335Y-110820952D02*
X214633811Y-110820952D01*
X214633811Y-110820952D02*
X214729049Y-110868571D01*
X215967145Y-110963809D02*
X216300478Y-110963809D01*
X216443335Y-111487619D02*
X215967145Y-111487619D01*
X215967145Y-111487619D02*
X215967145Y-110487619D01*
X215967145Y-110487619D02*
X216443335Y-110487619D01*
X216776669Y-110820952D02*
X217014764Y-111487619D01*
X217014764Y-111487619D02*
X217252859Y-110820952D01*
X218062383Y-111487619D02*
X218062383Y-110963809D01*
X218062383Y-110963809D02*
X218014764Y-110868571D01*
X218014764Y-110868571D02*
X217919526Y-110820952D01*
X217919526Y-110820952D02*
X217729050Y-110820952D01*
X217729050Y-110820952D02*
X217633812Y-110868571D01*
X218062383Y-111440000D02*
X217967145Y-111487619D01*
X217967145Y-111487619D02*
X217729050Y-111487619D01*
X217729050Y-111487619D02*
X217633812Y-111440000D01*
X217633812Y-111440000D02*
X217586193Y-111344761D01*
X217586193Y-111344761D02*
X217586193Y-111249523D01*
X217586193Y-111249523D02*
X217633812Y-111154285D01*
X217633812Y-111154285D02*
X217729050Y-111106666D01*
X217729050Y-111106666D02*
X217967145Y-111106666D01*
X217967145Y-111106666D02*
X218062383Y-111059047D01*
X218538574Y-110820952D02*
X218538574Y-111487619D01*
X218538574Y-110916190D02*
X218586193Y-110868571D01*
X218586193Y-110868571D02*
X218681431Y-110820952D01*
X218681431Y-110820952D02*
X218824288Y-110820952D01*
X218824288Y-110820952D02*
X218919526Y-110868571D01*
X218919526Y-110868571D02*
X218967145Y-110963809D01*
X218967145Y-110963809D02*
X218967145Y-111487619D01*
X220062384Y-110487619D02*
X220633812Y-110487619D01*
X220348098Y-111487619D02*
X220348098Y-110487619D01*
X221395717Y-111487619D02*
X221395717Y-110963809D01*
X221395717Y-110963809D02*
X221348098Y-110868571D01*
X221348098Y-110868571D02*
X221252860Y-110820952D01*
X221252860Y-110820952D02*
X221062384Y-110820952D01*
X221062384Y-110820952D02*
X220967146Y-110868571D01*
X221395717Y-111440000D02*
X221300479Y-111487619D01*
X221300479Y-111487619D02*
X221062384Y-111487619D01*
X221062384Y-111487619D02*
X220967146Y-111440000D01*
X220967146Y-111440000D02*
X220919527Y-111344761D01*
X220919527Y-111344761D02*
X220919527Y-111249523D01*
X220919527Y-111249523D02*
X220967146Y-111154285D01*
X220967146Y-111154285D02*
X221062384Y-111106666D01*
X221062384Y-111106666D02*
X221300479Y-111106666D01*
X221300479Y-111106666D02*
X221395717Y-111059047D01*
X222014765Y-111487619D02*
X221919527Y-111440000D01*
X221919527Y-111440000D02*
X221871908Y-111392380D01*
X221871908Y-111392380D02*
X221824289Y-111297142D01*
X221824289Y-111297142D02*
X221824289Y-111011428D01*
X221824289Y-111011428D02*
X221871908Y-110916190D01*
X221871908Y-110916190D02*
X221919527Y-110868571D01*
X221919527Y-110868571D02*
X222014765Y-110820952D01*
X222014765Y-110820952D02*
X222157622Y-110820952D01*
X222157622Y-110820952D02*
X222252860Y-110868571D01*
X222252860Y-110868571D02*
X222300479Y-110916190D01*
X222300479Y-110916190D02*
X222348098Y-111011428D01*
X222348098Y-111011428D02*
X222348098Y-111297142D01*
X222348098Y-111297142D02*
X222300479Y-111392380D01*
X222300479Y-111392380D02*
X222252860Y-111440000D01*
X222252860Y-111440000D02*
X222157622Y-111487619D01*
X222157622Y-111487619D02*
X222014765Y-111487619D01*
D11*
G36*
X194852553Y-112589537D02*
G01*
X194919074Y-112593487D01*
X194985085Y-112600070D01*
X195050584Y-112609286D01*
X195115572Y-112621136D01*
X195180048Y-112635618D01*
X195244013Y-112652734D01*
X195307466Y-112672484D01*
X195370408Y-112694866D01*
X195432839Y-112719882D01*
X195494759Y-112747531D01*
X195556167Y-112777814D01*
X195617063Y-112810729D01*
X195677448Y-112846278D01*
X195737322Y-112884460D01*
X195796685Y-112925275D01*
X195828962Y-112949005D01*
X195860215Y-112973055D01*
X195919646Y-113022117D01*
X195974978Y-113072462D01*
X196026212Y-113124089D01*
X196073347Y-113176998D01*
X196116383Y-113231189D01*
X196155321Y-113286663D01*
X196190160Y-113343419D01*
X196220900Y-113401457D01*
X196247542Y-113460778D01*
X196270085Y-113521380D01*
X196288529Y-113583265D01*
X196302874Y-113646433D01*
X196313121Y-113710882D01*
X196319269Y-113776614D01*
X196321318Y-113843628D01*
X196320774Y-113885794D01*
X196319139Y-113927419D01*
X196316415Y-113968501D01*
X196312602Y-114009042D01*
X196307699Y-114049040D01*
X196301706Y-114088497D01*
X196294624Y-114127412D01*
X196286453Y-114165785D01*
X196266841Y-114240905D01*
X196242871Y-114313857D01*
X196214542Y-114384641D01*
X196181856Y-114453258D01*
X196144811Y-114519708D01*
X196103408Y-114583989D01*
X196057647Y-114646103D01*
X196007527Y-114706050D01*
X195980833Y-114735210D01*
X195953050Y-114763828D01*
X195924177Y-114791905D01*
X195894214Y-114819439D01*
X195863162Y-114846432D01*
X195831020Y-114872883D01*
X195797789Y-114898792D01*
X195763468Y-114924159D01*
X195700930Y-114966867D01*
X195636904Y-115006820D01*
X195571390Y-115044017D01*
X195504387Y-115078459D01*
X195435896Y-115110146D01*
X195365917Y-115139077D01*
X195294449Y-115165253D01*
X195221493Y-115188674D01*
X195147048Y-115209339D01*
X195071116Y-115227249D01*
X195032591Y-115235170D01*
X194993694Y-115242403D01*
X194954426Y-115248947D01*
X194914785Y-115254802D01*
X194874772Y-115259969D01*
X194834387Y-115264446D01*
X194793630Y-115268235D01*
X194752501Y-115271335D01*
X194711000Y-115273745D01*
X194669126Y-115275468D01*
X194626881Y-115276501D01*
X194584263Y-115276845D01*
X194541597Y-115274937D01*
X194495836Y-115271331D01*
X194455135Y-115267610D01*
X194407756Y-115262935D01*
X194365044Y-115258508D01*
X194353698Y-115257306D01*
X194351687Y-115310028D01*
X194349805Y-115366834D01*
X194348054Y-115427722D01*
X194346432Y-115492695D01*
X194344940Y-115561751D01*
X194343577Y-115634890D01*
X194342345Y-115712113D01*
X194341777Y-115752255D01*
X194341242Y-115793419D01*
X194340739Y-115835603D01*
X194340268Y-115878808D01*
X194339831Y-115923035D01*
X194339425Y-115968282D01*
X194339052Y-116014549D01*
X194338711Y-116061838D01*
X194338403Y-116110147D01*
X194338128Y-116159478D01*
X194337884Y-116209829D01*
X194337673Y-116261201D01*
X194337495Y-116313594D01*
X194337349Y-116367008D01*
X194337235Y-116421443D01*
X194337154Y-116476898D01*
X194337106Y-116533375D01*
X194337090Y-116590872D01*
X194334609Y-116637755D01*
X194327167Y-116682539D01*
X194314764Y-116725224D01*
X194297400Y-116765811D01*
X194275075Y-116804298D01*
X194247788Y-116840686D01*
X194235484Y-116854654D01*
X194202397Y-116886458D01*
X194166639Y-116912872D01*
X194128208Y-116933895D01*
X194087107Y-116949527D01*
X194043334Y-116959769D01*
X193996890Y-116964621D01*
X193977564Y-116965052D01*
X193930003Y-116962500D01*
X193885019Y-116954843D01*
X193842610Y-116942083D01*
X193802778Y-116924217D01*
X193765521Y-116901248D01*
X193730841Y-116873175D01*
X193717690Y-116860516D01*
X193688137Y-116827128D01*
X193663594Y-116791689D01*
X193644059Y-116754199D01*
X193629533Y-116714657D01*
X193620016Y-116673064D01*
X193615508Y-116629420D01*
X193615108Y-116611388D01*
X193615108Y-115845443D01*
X193615321Y-115790721D01*
X193615963Y-115732801D01*
X193617031Y-115671683D01*
X193618527Y-115607367D01*
X193620450Y-115539853D01*
X193622801Y-115469141D01*
X193625580Y-115395231D01*
X193628785Y-115318122D01*
X193630548Y-115278369D01*
X193632418Y-115237816D01*
X193634395Y-115196464D01*
X193636479Y-115154312D01*
X193638669Y-115111360D01*
X193640967Y-115067609D01*
X193643371Y-115023059D01*
X193645882Y-114977709D01*
X193648500Y-114931559D01*
X193651225Y-114884610D01*
X193654057Y-114836862D01*
X193656995Y-114788314D01*
X193660041Y-114738966D01*
X193663193Y-114688819D01*
X193666452Y-114637873D01*
X193669818Y-114586127D01*
X193673007Y-114533547D01*
X193674594Y-114506992D01*
X194397662Y-114506992D01*
X194439054Y-114512621D01*
X194482743Y-114518116D01*
X194525466Y-114522791D01*
X194567343Y-114526054D01*
X194584263Y-114526531D01*
X194637306Y-114525841D01*
X194689211Y-114523768D01*
X194739980Y-114520315D01*
X194789610Y-114515479D01*
X194838104Y-114509263D01*
X194885461Y-114501664D01*
X194931680Y-114492685D01*
X194976762Y-114482323D01*
X195020706Y-114470581D01*
X195063514Y-114457456D01*
X195105184Y-114442951D01*
X195145717Y-114427063D01*
X195185112Y-114409795D01*
X195223370Y-114391144D01*
X195260492Y-114371113D01*
X195296475Y-114349699D01*
X195333032Y-114325657D01*
X195367230Y-114300668D01*
X195399069Y-114274732D01*
X195428550Y-114247850D01*
X195468349Y-114205753D01*
X195502842Y-114161526D01*
X195532028Y-114115169D01*
X195555907Y-114066683D01*
X195574480Y-114016068D01*
X195587746Y-113963323D01*
X195595706Y-113908448D01*
X195598360Y-113851444D01*
X195593948Y-113801359D01*
X195580713Y-113752709D01*
X195558655Y-113705494D01*
X195536321Y-113671024D01*
X195509024Y-113637361D01*
X195476764Y-113604506D01*
X195439541Y-113572458D01*
X195397354Y-113541216D01*
X195350205Y-113510782D01*
X195316015Y-113490942D01*
X195264478Y-113463705D01*
X195212082Y-113439147D01*
X195158827Y-113417268D01*
X195104714Y-113398068D01*
X195049742Y-113381547D01*
X194993912Y-113367706D01*
X194937223Y-113356543D01*
X194879675Y-113348060D01*
X194821269Y-113342255D01*
X194781854Y-113339874D01*
X194742058Y-113338683D01*
X194722016Y-113338534D01*
X194679335Y-113338595D01*
X194639218Y-113338778D01*
X194597152Y-113339130D01*
X194566678Y-113339511D01*
X194527065Y-113340503D01*
X194487898Y-113342476D01*
X194453349Y-113345373D01*
X194453246Y-113391455D01*
X194453003Y-113435891D01*
X194452705Y-113475389D01*
X194452316Y-113518399D01*
X194451835Y-113564919D01*
X194451263Y-113614951D01*
X194450773Y-113654779D01*
X194450418Y-113682428D01*
X194448958Y-113734664D01*
X194446777Y-113792085D01*
X194444923Y-113833248D01*
X194442747Y-113876716D01*
X194440252Y-113922488D01*
X194437435Y-113970566D01*
X194434298Y-114020949D01*
X194430841Y-114073636D01*
X194427062Y-114128629D01*
X194422964Y-114185927D01*
X194418545Y-114245530D01*
X194413805Y-114307438D01*
X194408744Y-114371651D01*
X194403363Y-114438169D01*
X194397662Y-114506992D01*
X193674594Y-114506992D01*
X193676100Y-114481808D01*
X193679097Y-114430911D01*
X193682000Y-114380856D01*
X193684807Y-114331642D01*
X193687518Y-114283269D01*
X193690134Y-114235738D01*
X193692655Y-114189049D01*
X193695080Y-114143201D01*
X193697410Y-114098194D01*
X193699644Y-114054029D01*
X193701783Y-114010706D01*
X193703827Y-113968224D01*
X193705775Y-113926583D01*
X193707628Y-113885784D01*
X193709385Y-113845826D01*
X193711047Y-113806710D01*
X193714085Y-113731003D01*
X193716741Y-113658661D01*
X193719016Y-113589685D01*
X193720909Y-113524076D01*
X193722420Y-113461832D01*
X193723550Y-113402954D01*
X193724298Y-113347442D01*
X193724528Y-113320949D01*
X193725098Y-113277100D01*
X193726440Y-113234704D01*
X193728556Y-113193760D01*
X193731444Y-113154268D01*
X193739538Y-113079640D01*
X193750724Y-113010821D01*
X193765000Y-112947810D01*
X193782368Y-112890608D01*
X193802827Y-112839214D01*
X193826378Y-112793628D01*
X193853019Y-112753851D01*
X193882752Y-112719882D01*
X193915576Y-112691722D01*
X193951491Y-112669370D01*
X193990497Y-112652826D01*
X194032595Y-112642091D01*
X194077784Y-112637164D01*
X194126064Y-112638046D01*
X194170129Y-112627587D01*
X194213405Y-112619664D01*
X194253352Y-112613797D01*
X194296830Y-112608597D01*
X194343837Y-112604065D01*
X194383984Y-112600921D01*
X194426376Y-112597944D01*
X194470996Y-112595364D01*
X194517844Y-112593181D01*
X194566922Y-112591395D01*
X194618228Y-112590006D01*
X194658171Y-112589225D01*
X194699367Y-112588667D01*
X194741816Y-112588332D01*
X194785519Y-112588220D01*
X194852553Y-112589537D01*
G37*
G36*
X199086280Y-112779001D02*
G01*
X199137603Y-112788610D01*
X199185404Y-112804624D01*
X199229686Y-112827044D01*
X199270447Y-112855869D01*
X199307687Y-112891100D01*
X199341407Y-112932737D01*
X199371606Y-112980779D01*
X199389783Y-113016366D01*
X199406396Y-113054800D01*
X199421443Y-113096081D01*
X199434926Y-113140209D01*
X199445743Y-113197565D01*
X199453574Y-113238674D01*
X199461901Y-113282081D01*
X199470724Y-113327784D01*
X199480043Y-113375786D01*
X199489859Y-113426085D01*
X199500171Y-113478681D01*
X199510978Y-113533574D01*
X199522282Y-113590765D01*
X199534082Y-113650254D01*
X199546378Y-113712040D01*
X199559170Y-113776123D01*
X199572459Y-113842503D01*
X199586243Y-113911181D01*
X199600524Y-113982157D01*
X199607850Y-114018506D01*
X199618424Y-114067944D01*
X199629141Y-114117829D01*
X199640001Y-114168160D01*
X199651005Y-114218938D01*
X199662151Y-114270162D01*
X199673441Y-114321833D01*
X199684873Y-114373950D01*
X199696449Y-114426514D01*
X199708168Y-114479524D01*
X199720030Y-114532981D01*
X199732035Y-114586884D01*
X199744183Y-114641234D01*
X199756475Y-114696030D01*
X199768909Y-114751273D01*
X199781487Y-114806962D01*
X199794207Y-114863098D01*
X199807071Y-114919680D01*
X199820078Y-114976709D01*
X199833228Y-115034184D01*
X199846521Y-115092106D01*
X199859957Y-115150474D01*
X199873537Y-115209289D01*
X199887259Y-115268551D01*
X199901125Y-115328258D01*
X199915133Y-115388413D01*
X199929285Y-115449014D01*
X199943580Y-115510061D01*
X199958018Y-115571555D01*
X199972599Y-115633495D01*
X199987323Y-115695882D01*
X200002191Y-115758715D01*
X200017201Y-115821995D01*
X200030612Y-115865292D01*
X200046144Y-115908411D01*
X200062142Y-115950223D01*
X200081315Y-115998537D01*
X200097778Y-116039040D01*
X200116028Y-116083202D01*
X200136063Y-116131021D01*
X200157885Y-116182498D01*
X200175519Y-116225614D01*
X200191419Y-116266670D01*
X200205584Y-116305665D01*
X200221773Y-116354452D01*
X200234878Y-116399576D01*
X200244899Y-116441036D01*
X200253090Y-116487710D01*
X200256463Y-116528659D01*
X200256559Y-116536161D01*
X200253625Y-116584380D01*
X200244824Y-116630119D01*
X200230155Y-116673376D01*
X200209619Y-116714153D01*
X200183215Y-116752450D01*
X200150943Y-116788266D01*
X200136392Y-116801898D01*
X200106090Y-116826765D01*
X200066797Y-116852911D01*
X200025929Y-116873571D01*
X199983487Y-116888746D01*
X199939471Y-116898435D01*
X199893880Y-116902637D01*
X199865771Y-116902526D01*
X199825078Y-116896733D01*
X199784335Y-116882284D01*
X199743539Y-116859180D01*
X199702693Y-116827421D01*
X199661794Y-116787006D01*
X199634500Y-116755255D01*
X199607183Y-116719656D01*
X199579843Y-116680211D01*
X199552481Y-116636919D01*
X199525095Y-116589780D01*
X199497686Y-116538795D01*
X199470255Y-116483962D01*
X199442800Y-116425283D01*
X199429064Y-116394501D01*
X199411032Y-116353819D01*
X199393329Y-116312374D01*
X199375953Y-116270166D01*
X199358906Y-116227194D01*
X199342186Y-116183459D01*
X199325795Y-116138961D01*
X199309733Y-116093700D01*
X199293998Y-116047676D01*
X199278592Y-116000888D01*
X199263514Y-115953337D01*
X199248764Y-115905023D01*
X199234342Y-115855945D01*
X199220248Y-115806104D01*
X199206483Y-115755500D01*
X199193046Y-115704133D01*
X199179937Y-115652002D01*
X199139559Y-115660062D01*
X199094631Y-115668122D01*
X199045152Y-115676182D01*
X198991122Y-115684242D01*
X198932541Y-115692302D01*
X198890958Y-115697676D01*
X198847353Y-115703049D01*
X198801726Y-115708422D01*
X198754075Y-115713796D01*
X198704403Y-115719169D01*
X198652707Y-115724542D01*
X198598989Y-115729916D01*
X198543248Y-115735289D01*
X198514619Y-115737976D01*
X198461187Y-115743410D01*
X198409335Y-115748967D01*
X198359063Y-115754645D01*
X198310371Y-115760446D01*
X198263259Y-115766369D01*
X198217727Y-115772414D01*
X198173774Y-115778581D01*
X198131402Y-115784870D01*
X198090610Y-115791282D01*
X198051397Y-115797815D01*
X197995541Y-115807844D01*
X197943240Y-115818148D01*
X197894493Y-115828727D01*
X197849302Y-115839581D01*
X197832815Y-115876996D01*
X197814863Y-115916700D01*
X197795446Y-115958695D01*
X197774563Y-116002979D01*
X197752215Y-116049553D01*
X197728401Y-116098417D01*
X197703122Y-116149571D01*
X197676378Y-116203014D01*
X197648168Y-116258747D01*
X197618492Y-116316770D01*
X197587351Y-116377083D01*
X197554745Y-116439685D01*
X197520673Y-116504578D01*
X197485136Y-116571760D01*
X197448133Y-116641232D01*
X197429082Y-116676826D01*
X197409665Y-116712993D01*
X197386134Y-116746865D01*
X197360972Y-116777405D01*
X197324886Y-116812942D01*
X197285898Y-116842556D01*
X197244011Y-116866248D01*
X197199223Y-116884017D01*
X197151534Y-116895862D01*
X197100945Y-116901785D01*
X197074563Y-116902526D01*
X197027981Y-116900021D01*
X196982877Y-116892508D01*
X196939252Y-116879986D01*
X196897106Y-116862455D01*
X196856438Y-116839915D01*
X196817250Y-116812366D01*
X196801988Y-116799944D01*
X196767370Y-116766222D01*
X196738619Y-116729781D01*
X196715735Y-116690621D01*
X196698719Y-116648742D01*
X196687571Y-116604144D01*
X196682290Y-116556827D01*
X196681821Y-116537138D01*
X196688095Y-116491495D01*
X196701035Y-116443519D01*
X196713583Y-116404990D01*
X196729268Y-116361224D01*
X196748090Y-116312223D01*
X196770049Y-116257986D01*
X196795145Y-116198513D01*
X196823378Y-116133804D01*
X196854748Y-116063859D01*
X196871609Y-116026923D01*
X196889255Y-115988678D01*
X196907684Y-115949124D01*
X196926899Y-115908261D01*
X196946897Y-115866089D01*
X196967679Y-115822608D01*
X196989246Y-115777818D01*
X197011597Y-115731719D01*
X197034733Y-115684311D01*
X197058652Y-115635594D01*
X197083356Y-115585568D01*
X197068410Y-115548897D01*
X197056594Y-115508245D01*
X197050397Y-115468938D01*
X197050139Y-115426322D01*
X197059484Y-115386513D01*
X197080803Y-115349519D01*
X197114095Y-115315339D01*
X197149350Y-115290022D01*
X197192268Y-115266506D01*
X197229486Y-115250051D01*
X197271014Y-115234609D01*
X197316852Y-115220181D01*
X197341302Y-115177819D01*
X197365926Y-115135364D01*
X197390723Y-115092815D01*
X197392801Y-115089267D01*
X198250837Y-115089267D01*
X198292692Y-115082178D01*
X198341321Y-115075566D01*
X198385102Y-115070620D01*
X198433218Y-115065980D01*
X198485669Y-115061644D01*
X198527852Y-115058593D01*
X198572474Y-115055714D01*
X198619535Y-115053006D01*
X198635764Y-115052142D01*
X198691457Y-115049096D01*
X198743131Y-115046188D01*
X198790787Y-115043418D01*
X198834425Y-115040785D01*
X198874044Y-115038289D01*
X198920618Y-115035175D01*
X198960048Y-115032305D01*
X198999289Y-115029061D01*
X199022644Y-115026741D01*
X199014268Y-114981327D01*
X199005502Y-114934234D01*
X198996346Y-114885461D01*
X198986802Y-114835010D01*
X198976868Y-114782879D01*
X198966545Y-114729070D01*
X198955832Y-114673581D01*
X198944731Y-114616413D01*
X198933240Y-114557565D01*
X198921360Y-114497039D01*
X198909090Y-114434833D01*
X198896432Y-114370949D01*
X198883384Y-114305385D01*
X198869947Y-114238142D01*
X198856120Y-114169219D01*
X198841905Y-114098618D01*
X198814408Y-114145077D01*
X198785652Y-114193598D01*
X198755637Y-114244179D01*
X198724363Y-114296821D01*
X198691829Y-114351524D01*
X198658036Y-114408287D01*
X198622983Y-114467112D01*
X198586671Y-114527997D01*
X198549099Y-114590943D01*
X198510269Y-114655949D01*
X198470178Y-114723017D01*
X198449661Y-114757324D01*
X198428829Y-114792145D01*
X198407682Y-114827482D01*
X198386220Y-114863335D01*
X198364443Y-114899702D01*
X198342352Y-114936584D01*
X198319945Y-114973982D01*
X198297224Y-115011895D01*
X198274188Y-115050323D01*
X198250837Y-115089267D01*
X197392801Y-115089267D01*
X197415694Y-115050173D01*
X197440839Y-115007437D01*
X197466157Y-114964608D01*
X197491649Y-114921685D01*
X197517315Y-114878668D01*
X197543154Y-114835559D01*
X197569167Y-114792355D01*
X197595353Y-114749058D01*
X197621713Y-114705668D01*
X197648247Y-114662184D01*
X197674954Y-114618607D01*
X197701835Y-114574936D01*
X197728890Y-114531172D01*
X197756118Y-114487314D01*
X197783520Y-114443363D01*
X197811096Y-114399318D01*
X197838845Y-114355180D01*
X197866768Y-114310948D01*
X197894864Y-114266623D01*
X197923135Y-114222204D01*
X197951578Y-114177691D01*
X197980196Y-114133086D01*
X198008987Y-114088386D01*
X198037952Y-114043593D01*
X198067090Y-113998707D01*
X198096402Y-113953727D01*
X198125888Y-113908654D01*
X198155547Y-113863487D01*
X198185380Y-113818227D01*
X198227790Y-113754093D01*
X198269170Y-113691995D01*
X198309520Y-113631934D01*
X198348839Y-113573908D01*
X198387128Y-113517918D01*
X198424387Y-113463964D01*
X198460615Y-113412046D01*
X198495812Y-113362165D01*
X198529980Y-113314319D01*
X198563117Y-113268509D01*
X198595223Y-113224735D01*
X198626299Y-113182997D01*
X198656345Y-113143295D01*
X198685360Y-113105629D01*
X198713345Y-113070000D01*
X198740300Y-113036406D01*
X198766224Y-113004848D01*
X198814981Y-112947840D01*
X198859616Y-112898976D01*
X198900130Y-112858256D01*
X198936522Y-112825680D01*
X198968793Y-112801248D01*
X199009470Y-112779871D01*
X199031437Y-112775799D01*
X199086280Y-112779001D01*
G37*
G36*
X203697452Y-116359330D02*
G01*
X203672093Y-116392688D01*
X203646085Y-116425351D01*
X203619428Y-116457321D01*
X203592123Y-116488595D01*
X203564168Y-116519175D01*
X203535565Y-116549060D01*
X203506313Y-116578251D01*
X203476413Y-116606748D01*
X203445863Y-116634549D01*
X203414665Y-116661656D01*
X203382818Y-116688069D01*
X203350322Y-116713787D01*
X203317178Y-116738810D01*
X203283384Y-116763139D01*
X203248942Y-116786774D01*
X203213852Y-116809713D01*
X203170544Y-116836095D01*
X203127084Y-116860775D01*
X203083472Y-116883753D01*
X203039706Y-116905029D01*
X202995788Y-116924603D01*
X202951718Y-116942475D01*
X202907495Y-116958644D01*
X202863119Y-116973112D01*
X202818590Y-116985877D01*
X202773909Y-116996941D01*
X202729075Y-117006302D01*
X202684089Y-117013961D01*
X202638950Y-117019919D01*
X202593658Y-117024174D01*
X202548213Y-117026727D01*
X202502616Y-117027578D01*
X202459187Y-117027321D01*
X202416460Y-117026551D01*
X202374435Y-117025268D01*
X202333112Y-117023472D01*
X202292491Y-117021162D01*
X202252573Y-117018339D01*
X202213357Y-117015002D01*
X202137031Y-117006790D01*
X202063514Y-116996524D01*
X201992805Y-116984205D01*
X201924906Y-116969833D01*
X201859815Y-116953407D01*
X201797533Y-116934929D01*
X201738060Y-116914397D01*
X201681396Y-116891812D01*
X201627540Y-116867174D01*
X201576493Y-116840483D01*
X201528255Y-116811739D01*
X201482826Y-116780941D01*
X201461165Y-116764773D01*
X201416866Y-116729353D01*
X201373974Y-116692336D01*
X201332488Y-116653721D01*
X201292408Y-116613510D01*
X201253735Y-116571702D01*
X201216468Y-116528296D01*
X201180607Y-116483293D01*
X201146153Y-116436693D01*
X201113105Y-116388497D01*
X201081463Y-116338703D01*
X201051227Y-116287311D01*
X201022398Y-116234323D01*
X200994975Y-116179738D01*
X200968958Y-116123555D01*
X200944348Y-116065775D01*
X200921144Y-116006399D01*
X200899346Y-115945425D01*
X200878955Y-115882854D01*
X200859970Y-115818686D01*
X200842391Y-115752920D01*
X200826218Y-115685558D01*
X200811452Y-115616599D01*
X200798092Y-115546042D01*
X200786139Y-115473888D01*
X200775591Y-115400137D01*
X200766450Y-115324789D01*
X200758716Y-115247844D01*
X200752387Y-115169302D01*
X200747465Y-115089163D01*
X200743950Y-115007426D01*
X200741840Y-114924093D01*
X200741137Y-114839162D01*
X200741471Y-114794822D01*
X200742219Y-114754850D01*
X200743394Y-114710878D01*
X200744997Y-114662907D01*
X200747027Y-114610937D01*
X200748831Y-114569335D01*
X200750874Y-114525483D01*
X200753158Y-114479381D01*
X200754815Y-114447397D01*
X200757434Y-114399804D01*
X200759795Y-114354477D01*
X200761899Y-114311418D01*
X200763745Y-114270626D01*
X200765806Y-114219762D01*
X200767408Y-114172929D01*
X200768553Y-114130125D01*
X200769340Y-114082288D01*
X200769469Y-114056608D01*
X200769641Y-114013801D01*
X200770046Y-113972618D01*
X200770690Y-113926427D01*
X200771377Y-113885867D01*
X200772217Y-113842102D01*
X200773209Y-113795131D01*
X200774354Y-113744954D01*
X200775728Y-113694549D01*
X200776919Y-113647379D01*
X200777926Y-113603446D01*
X200778750Y-113562749D01*
X200779523Y-113516429D01*
X200780010Y-113475165D01*
X200780216Y-113432323D01*
X200780920Y-113392246D01*
X200783032Y-113352616D01*
X200786553Y-113313432D01*
X200793437Y-113261882D01*
X200802825Y-113211125D01*
X200814717Y-113161162D01*
X200829112Y-113111993D01*
X200846011Y-113063618D01*
X200860327Y-113027857D01*
X200881050Y-112982812D01*
X200903284Y-112942197D01*
X200927029Y-112906012D01*
X200952285Y-112874259D01*
X200988311Y-112838813D01*
X201027023Y-112811244D01*
X201068422Y-112791552D01*
X201112508Y-112779737D01*
X201159281Y-112775799D01*
X201205720Y-112778136D01*
X201250395Y-112785148D01*
X201293304Y-112796836D01*
X201334449Y-112813198D01*
X201373828Y-112834236D01*
X201411442Y-112859948D01*
X201425994Y-112871542D01*
X201455532Y-112897844D01*
X201486916Y-112933254D01*
X201512147Y-112971479D01*
X201531223Y-113012518D01*
X201544146Y-113056372D01*
X201550916Y-113103041D01*
X201552023Y-113132393D01*
X201551962Y-113172922D01*
X201551779Y-113218306D01*
X201551474Y-113268543D01*
X201551165Y-113309407D01*
X201550787Y-113353002D01*
X201550340Y-113399327D01*
X201549825Y-113448382D01*
X201549241Y-113500168D01*
X201548589Y-113554685D01*
X201548115Y-113592547D01*
X201547417Y-113648726D01*
X201546787Y-113702227D01*
X201546226Y-113753049D01*
X201545734Y-113801191D01*
X201545310Y-113846655D01*
X201544955Y-113889439D01*
X201544669Y-113929544D01*
X201544394Y-113978851D01*
X201544242Y-114023395D01*
X201544207Y-114053677D01*
X201543874Y-114096868D01*
X201543126Y-114136023D01*
X201541950Y-114179269D01*
X201540347Y-114226607D01*
X201538317Y-114278035D01*
X201536514Y-114319291D01*
X201534470Y-114362848D01*
X201532186Y-114408707D01*
X201530530Y-114440558D01*
X201528086Y-114487776D01*
X201525882Y-114532710D01*
X201523918Y-114575360D01*
X201522195Y-114615726D01*
X201520272Y-114665994D01*
X201518776Y-114712202D01*
X201517707Y-114754349D01*
X201516972Y-114801323D01*
X201516852Y-114826461D01*
X201517238Y-114877772D01*
X201518394Y-114928631D01*
X201520321Y-114979041D01*
X201523019Y-115029000D01*
X201526488Y-115078509D01*
X201530728Y-115127567D01*
X201535739Y-115176175D01*
X201541521Y-115224333D01*
X201548073Y-115272041D01*
X201555397Y-115319298D01*
X201563491Y-115366105D01*
X201572356Y-115412461D01*
X201581993Y-115458367D01*
X201592400Y-115503823D01*
X201603578Y-115548829D01*
X201615526Y-115593384D01*
X201630356Y-115645267D01*
X201646026Y-115695157D01*
X201662535Y-115743055D01*
X201679884Y-115788961D01*
X201698073Y-115832876D01*
X201717101Y-115874798D01*
X201736968Y-115914727D01*
X201757676Y-115952665D01*
X201779223Y-115988611D01*
X201801609Y-116022564D01*
X201824835Y-116054526D01*
X201861248Y-116098733D01*
X201899550Y-116138458D01*
X201939742Y-116173700D01*
X201953558Y-116184452D01*
X201987356Y-116205136D01*
X202031106Y-116223225D01*
X202070450Y-116235089D01*
X202115392Y-116245493D01*
X202165933Y-116254438D01*
X202222073Y-116261922D01*
X202262610Y-116266101D01*
X202305635Y-116269631D01*
X202351148Y-116272513D01*
X202399149Y-116274745D01*
X202449639Y-116276329D01*
X202502616Y-116277264D01*
X202547463Y-116276778D01*
X202591387Y-116273856D01*
X202634390Y-116268497D01*
X202676471Y-116260701D01*
X202717631Y-116250469D01*
X202757869Y-116237800D01*
X202797186Y-116222694D01*
X202835580Y-116205151D01*
X202873054Y-116185172D01*
X202909605Y-116162756D01*
X202945235Y-116137903D01*
X202979943Y-116110614D01*
X203013730Y-116080888D01*
X203046595Y-116048725D01*
X203078538Y-116014126D01*
X203109560Y-115977090D01*
X203139660Y-115937617D01*
X203168838Y-115895707D01*
X203197095Y-115851361D01*
X203224430Y-115804578D01*
X203250844Y-115755358D01*
X203276336Y-115703702D01*
X203300906Y-115649609D01*
X203324555Y-115593079D01*
X203347282Y-115534112D01*
X203369087Y-115472709D01*
X203389971Y-115408869D01*
X203409933Y-115342592D01*
X203428973Y-115273879D01*
X203447092Y-115202729D01*
X203464289Y-115129142D01*
X203480565Y-115053119D01*
X203488679Y-115012620D01*
X203496536Y-114971114D01*
X203504135Y-114928601D01*
X203511477Y-114885080D01*
X203518561Y-114840551D01*
X203525387Y-114795015D01*
X203531956Y-114748472D01*
X203538267Y-114700921D01*
X203544321Y-114652362D01*
X203550117Y-114602796D01*
X203555655Y-114552223D01*
X203560936Y-114500642D01*
X203565959Y-114448053D01*
X203570725Y-114394457D01*
X203575233Y-114339853D01*
X203579483Y-114284242D01*
X203583476Y-114227624D01*
X203587211Y-114169998D01*
X203590689Y-114111364D01*
X203593909Y-114051723D01*
X203596871Y-113991075D01*
X203599576Y-113929419D01*
X203602023Y-113866755D01*
X203604213Y-113803084D01*
X203606145Y-113738405D01*
X203607819Y-113672719D01*
X203609236Y-113606026D01*
X203610395Y-113538325D01*
X203611297Y-113469616D01*
X203611941Y-113399900D01*
X203612327Y-113329176D01*
X203612456Y-113257445D01*
X203614674Y-113210080D01*
X203621329Y-113163240D01*
X203632420Y-113116925D01*
X203647947Y-113071134D01*
X203663564Y-113034879D01*
X203682019Y-112998960D01*
X203703314Y-112963377D01*
X203727323Y-112929855D01*
X203753186Y-112899630D01*
X203790555Y-112864459D01*
X203831221Y-112835150D01*
X203875185Y-112811702D01*
X203922446Y-112794117D01*
X203973004Y-112782393D01*
X204013087Y-112777447D01*
X204055024Y-112775799D01*
X204100224Y-112777936D01*
X204142524Y-112784347D01*
X204181923Y-112795033D01*
X204218422Y-112809993D01*
X204259968Y-112834703D01*
X204296981Y-112866092D01*
X204323329Y-112896012D01*
X204335415Y-112912575D01*
X204359652Y-112951066D01*
X204378875Y-112991068D01*
X204393083Y-113032582D01*
X204402276Y-113075607D01*
X204406455Y-113120143D01*
X204406734Y-113135324D01*
X204406634Y-113202210D01*
X204406337Y-113268169D01*
X204405841Y-113333201D01*
X204405146Y-113397305D01*
X204404253Y-113460482D01*
X204403162Y-113522731D01*
X204401872Y-113584053D01*
X204400383Y-113644448D01*
X204398697Y-113703916D01*
X204396811Y-113762456D01*
X204394728Y-113820068D01*
X204392445Y-113876754D01*
X204389965Y-113932512D01*
X204387286Y-113987342D01*
X204384408Y-114041246D01*
X204381332Y-114094221D01*
X204378058Y-114146270D01*
X204374585Y-114197391D01*
X204370914Y-114247585D01*
X204367044Y-114296851D01*
X204362976Y-114345190D01*
X204358709Y-114392602D01*
X204354244Y-114439087D01*
X204349581Y-114484644D01*
X204344719Y-114529273D01*
X204339658Y-114572976D01*
X204334400Y-114615750D01*
X204328942Y-114657598D01*
X204323287Y-114698518D01*
X204317432Y-114738511D01*
X204311380Y-114777577D01*
X204305129Y-114815715D01*
X204295189Y-114873535D01*
X204284666Y-114930738D01*
X204273558Y-114987322D01*
X204261867Y-115043288D01*
X204249592Y-115098636D01*
X204236733Y-115153365D01*
X204223290Y-115207476D01*
X204209263Y-115260969D01*
X204194653Y-115313844D01*
X204179458Y-115366101D01*
X204163680Y-115417739D01*
X204147317Y-115468759D01*
X204130371Y-115519161D01*
X204112841Y-115568944D01*
X204094727Y-115618110D01*
X204076029Y-115666657D01*
X204056747Y-115714586D01*
X204036881Y-115761896D01*
X204016432Y-115808589D01*
X203995398Y-115854663D01*
X203973781Y-115900119D01*
X203951579Y-115944956D01*
X203928794Y-115989176D01*
X203905425Y-116032777D01*
X203881472Y-116075760D01*
X203856935Y-116118125D01*
X203831815Y-116159871D01*
X203806110Y-116200999D01*
X203779821Y-116241509D01*
X203752949Y-116281401D01*
X203725493Y-116320674D01*
X203697452Y-116359330D01*
G37*
G36*
X207512526Y-116777473D02*
G01*
X207470714Y-116792880D01*
X207426125Y-116808080D01*
X207378757Y-116823074D01*
X207328611Y-116837862D01*
X207275686Y-116852444D01*
X207219984Y-116866820D01*
X207161503Y-116880990D01*
X207100244Y-116894954D01*
X207036206Y-116908712D01*
X206969391Y-116922264D01*
X206899797Y-116935609D01*
X206827424Y-116948749D01*
X206752274Y-116961682D01*
X206713657Y-116968071D01*
X206674345Y-116974409D01*
X206634339Y-116980696D01*
X206593638Y-116986931D01*
X206552243Y-116993114D01*
X206510153Y-116999246D01*
X206433472Y-117010248D01*
X206358524Y-117020541D01*
X206285308Y-117030123D01*
X206213825Y-117038996D01*
X206144075Y-117047159D01*
X206076057Y-117054613D01*
X206009772Y-117061356D01*
X205945219Y-117067390D01*
X205882399Y-117072713D01*
X205821312Y-117077327D01*
X205761957Y-117081231D01*
X205704335Y-117084426D01*
X205648445Y-117086910D01*
X205594288Y-117088685D01*
X205541864Y-117089749D01*
X205491172Y-117090104D01*
X205449758Y-117089526D01*
X205409660Y-117087792D01*
X205333406Y-117080853D01*
X205262412Y-117069290D01*
X205196676Y-117053101D01*
X205136199Y-117032287D01*
X205080981Y-117006848D01*
X205031022Y-116976783D01*
X204986322Y-116942093D01*
X204946880Y-116902778D01*
X204912698Y-116858837D01*
X204883774Y-116810271D01*
X204860109Y-116757079D01*
X204841703Y-116699262D01*
X204828556Y-116636820D01*
X204820668Y-116569752D01*
X204818039Y-116498060D01*
X204822366Y-116448008D01*
X204825732Y-116397355D01*
X204828510Y-116354151D01*
X204831716Y-116303398D01*
X204835349Y-116245096D01*
X204839410Y-116179246D01*
X204843898Y-116105847D01*
X204846302Y-116066317D01*
X204848813Y-116024900D01*
X204851431Y-115981596D01*
X204854156Y-115936404D01*
X204856988Y-115889325D01*
X204859926Y-115840359D01*
X204862972Y-115789506D01*
X204866124Y-115736766D01*
X204869383Y-115682139D01*
X204872749Y-115625624D01*
X204877137Y-115550623D01*
X204881385Y-115475098D01*
X204885494Y-115399048D01*
X204889464Y-115322473D01*
X204893295Y-115245373D01*
X204896986Y-115167749D01*
X204900538Y-115089600D01*
X204903951Y-115010926D01*
X204907224Y-114931727D01*
X204910359Y-114852004D01*
X204913353Y-114771756D01*
X204916209Y-114690983D01*
X204918925Y-114609685D01*
X204921502Y-114527863D01*
X204923940Y-114445516D01*
X204926238Y-114362644D01*
X204928397Y-114279248D01*
X204930417Y-114195327D01*
X204932297Y-114110880D01*
X204934039Y-114025910D01*
X204935641Y-113940414D01*
X204937103Y-113854394D01*
X204938426Y-113767849D01*
X204939610Y-113680779D01*
X204940655Y-113593185D01*
X204941561Y-113505066D01*
X204942327Y-113416422D01*
X204942954Y-113327253D01*
X204943441Y-113237560D01*
X204943789Y-113147342D01*
X204943998Y-113056599D01*
X204944068Y-112965331D01*
X204946715Y-112917346D01*
X204954658Y-112871698D01*
X204967896Y-112828388D01*
X204986429Y-112787415D01*
X205010257Y-112748780D01*
X205039380Y-112712482D01*
X205052512Y-112698618D01*
X205087784Y-112666814D01*
X205125823Y-112640400D01*
X205166628Y-112619377D01*
X205210201Y-112603745D01*
X205256540Y-112593503D01*
X205295604Y-112589190D01*
X205326064Y-112588220D01*
X205366471Y-112589945D01*
X205414532Y-112596953D01*
X205459874Y-112609351D01*
X205502498Y-112627140D01*
X205542402Y-112650319D01*
X205579587Y-112678888D01*
X205600593Y-112698618D01*
X205632397Y-112733981D01*
X205658810Y-112771681D01*
X205679833Y-112811718D01*
X205695466Y-112854094D01*
X205705708Y-112898806D01*
X205710559Y-112945856D01*
X205710990Y-112965331D01*
X205710918Y-113056697D01*
X205710700Y-113147612D01*
X205710338Y-113238078D01*
X205709830Y-113328093D01*
X205709178Y-113417657D01*
X205708380Y-113506772D01*
X205707437Y-113595436D01*
X205706350Y-113683649D01*
X205705117Y-113771413D01*
X205703739Y-113858726D01*
X205702217Y-113945588D01*
X205700549Y-114032001D01*
X205698736Y-114117963D01*
X205696779Y-114203474D01*
X205694676Y-114288536D01*
X205692428Y-114373147D01*
X205690035Y-114457307D01*
X205687497Y-114541018D01*
X205684814Y-114624278D01*
X205681987Y-114707088D01*
X205679014Y-114789447D01*
X205675896Y-114871356D01*
X205672633Y-114952815D01*
X205669225Y-115033824D01*
X205665672Y-115114382D01*
X205661974Y-115194490D01*
X205658131Y-115274147D01*
X205654143Y-115353354D01*
X205650010Y-115432111D01*
X205645732Y-115510418D01*
X205641309Y-115588274D01*
X205636741Y-115665680D01*
X205631961Y-115708957D01*
X205627146Y-115756355D01*
X205622298Y-115807875D01*
X205617415Y-115863517D01*
X205614141Y-115902901D01*
X205610851Y-115944117D01*
X205607546Y-115987165D01*
X205604226Y-116032044D01*
X205600890Y-116078756D01*
X205597540Y-116127299D01*
X205594174Y-116177674D01*
X205590792Y-116229881D01*
X205587396Y-116283920D01*
X205583984Y-116339790D01*
X205625070Y-116338910D01*
X205666874Y-116337493D01*
X205709395Y-116335537D01*
X205752634Y-116333043D01*
X205796590Y-116330011D01*
X205841263Y-116326441D01*
X205886654Y-116322333D01*
X205932763Y-116317686D01*
X205979589Y-116312502D01*
X206027132Y-116306779D01*
X206075393Y-116300519D01*
X206124371Y-116293720D01*
X206174067Y-116286383D01*
X206224480Y-116278508D01*
X206275611Y-116270095D01*
X206327459Y-116261144D01*
X206380025Y-116251655D01*
X206433308Y-116241627D01*
X206487309Y-116231062D01*
X206542027Y-116219959D01*
X206597462Y-116208317D01*
X206653615Y-116196137D01*
X206710486Y-116183419D01*
X206768073Y-116170163D01*
X206826379Y-116156369D01*
X206885402Y-116142037D01*
X206945142Y-116127167D01*
X207005600Y-116111759D01*
X207066775Y-116095813D01*
X207128668Y-116079328D01*
X207191278Y-116062305D01*
X207254605Y-116044745D01*
X207293722Y-116035471D01*
X207335429Y-116029237D01*
X207375750Y-116027159D01*
X207417958Y-116029205D01*
X207458121Y-116035341D01*
X207496238Y-116045569D01*
X207541008Y-116064107D01*
X207582581Y-116089037D01*
X207613539Y-116113583D01*
X207642451Y-116142221D01*
X207656140Y-116158073D01*
X207683723Y-116195402D01*
X207706630Y-116234113D01*
X207724862Y-116274208D01*
X207738420Y-116315686D01*
X207747302Y-116358548D01*
X207751510Y-116402793D01*
X207751884Y-116420879D01*
X207749780Y-116465681D01*
X207743469Y-116508131D01*
X207732950Y-116548228D01*
X207718224Y-116585972D01*
X207699290Y-116621363D01*
X207676149Y-116654402D01*
X207648801Y-116685088D01*
X207617245Y-116713421D01*
X207581481Y-116739401D01*
X207541510Y-116763029D01*
X207512526Y-116777473D01*
G37*
G36*
X212679727Y-114610551D02*
G01*
X212714529Y-114631204D01*
X212748226Y-114652618D01*
X212780818Y-114674793D01*
X212842688Y-114721428D01*
X212900138Y-114771109D01*
X212953170Y-114823835D01*
X213001782Y-114879606D01*
X213045974Y-114938423D01*
X213085748Y-115000285D01*
X213121102Y-115065193D01*
X213152037Y-115133146D01*
X213178552Y-115204144D01*
X213200649Y-115278188D01*
X213210040Y-115316352D01*
X213218326Y-115355277D01*
X213225507Y-115394963D01*
X213231584Y-115435411D01*
X213236555Y-115476621D01*
X213240422Y-115518591D01*
X213243184Y-115561323D01*
X213244841Y-115604817D01*
X213245394Y-115649071D01*
X213243772Y-115720440D01*
X213238906Y-115790442D01*
X213230796Y-115859078D01*
X213219443Y-115926348D01*
X213204846Y-115992252D01*
X213187004Y-116056789D01*
X213165919Y-116119960D01*
X213141591Y-116181765D01*
X213114018Y-116242204D01*
X213083201Y-116301276D01*
X213049141Y-116358982D01*
X213011837Y-116415322D01*
X212971288Y-116470296D01*
X212927496Y-116523903D01*
X212880461Y-116576145D01*
X212830181Y-116627020D01*
X212777699Y-116675525D01*
X212723813Y-116720901D01*
X212668523Y-116763147D01*
X212611828Y-116802264D01*
X212553729Y-116838252D01*
X212494225Y-116871110D01*
X212433317Y-116900839D01*
X212371004Y-116927438D01*
X212307288Y-116950909D01*
X212242166Y-116971250D01*
X212175641Y-116988461D01*
X212107711Y-117002543D01*
X212038376Y-117013496D01*
X211967637Y-117021319D01*
X211895494Y-117026013D01*
X211821946Y-117027578D01*
X211767087Y-117026841D01*
X211712907Y-117024632D01*
X211659407Y-117020949D01*
X211606585Y-117015793D01*
X211554443Y-117009164D01*
X211502981Y-117001062D01*
X211452197Y-116991487D01*
X211402093Y-116980439D01*
X211352668Y-116967918D01*
X211303923Y-116953924D01*
X211255856Y-116938456D01*
X211208469Y-116921516D01*
X211161762Y-116903102D01*
X211115734Y-116883215D01*
X211070385Y-116861855D01*
X211025715Y-116839023D01*
X210975584Y-116810816D01*
X210927529Y-116781152D01*
X210881550Y-116750030D01*
X210837648Y-116717451D01*
X210795821Y-116683413D01*
X210756071Y-116647918D01*
X210718396Y-116610965D01*
X210682798Y-116572554D01*
X210649275Y-116532685D01*
X210617829Y-116491358D01*
X210588459Y-116448574D01*
X210561165Y-116404331D01*
X210535947Y-116358631D01*
X210512805Y-116311473D01*
X210491739Y-116262857D01*
X210472749Y-116212784D01*
X210461415Y-116174068D01*
X210454278Y-116133634D01*
X210451340Y-116091483D01*
X210451256Y-116082847D01*
X210453194Y-116043157D01*
X210461070Y-115995950D01*
X210475004Y-115951413D01*
X210494997Y-115909549D01*
X210521048Y-115870355D01*
X210553157Y-115833833D01*
X210575331Y-115813203D01*
X210612168Y-115784776D01*
X210650626Y-115761167D01*
X210690707Y-115742377D01*
X210732410Y-115728405D01*
X210775734Y-115719250D01*
X210820681Y-115714914D01*
X210839113Y-115714528D01*
X210881276Y-115716788D01*
X210921301Y-115723565D01*
X210959189Y-115734862D01*
X210994940Y-115750676D01*
X211028554Y-115771010D01*
X211060031Y-115795861D01*
X211089371Y-115825232D01*
X211116573Y-115859120D01*
X211148241Y-115904023D01*
X211177298Y-115944941D01*
X211203745Y-115981875D01*
X211227581Y-116014825D01*
X211255303Y-116052561D01*
X211283429Y-116089769D01*
X211310624Y-116123269D01*
X211319783Y-116132672D01*
X211353091Y-116158512D01*
X211389266Y-116181811D01*
X211428310Y-116202568D01*
X211470221Y-116220783D01*
X211515001Y-116236456D01*
X211562648Y-116249588D01*
X211613164Y-116260178D01*
X211666547Y-116268227D01*
X211722798Y-116273734D01*
X211761892Y-116275993D01*
X211802261Y-116277123D01*
X211822923Y-116277264D01*
X211871266Y-116275882D01*
X211918476Y-116271734D01*
X211964552Y-116264822D01*
X212009494Y-116255145D01*
X212053304Y-116242703D01*
X212095979Y-116227496D01*
X212137522Y-116209524D01*
X212177930Y-116188787D01*
X212217206Y-116165285D01*
X212255348Y-116139019D01*
X212280146Y-116119972D01*
X212315240Y-116089921D01*
X212346882Y-116058754D01*
X212375072Y-116026471D01*
X212399810Y-115993072D01*
X212421096Y-115958557D01*
X212438931Y-115922925D01*
X212453313Y-115886177D01*
X212464244Y-115848312D01*
X212471723Y-115809332D01*
X212475750Y-115769235D01*
X212476517Y-115741884D01*
X212475619Y-115699540D01*
X212472922Y-115658360D01*
X212468429Y-115618344D01*
X212462137Y-115579493D01*
X212444163Y-115505281D01*
X212418998Y-115435725D01*
X212386644Y-115370825D01*
X212347099Y-115310581D01*
X212300365Y-115254993D01*
X212246441Y-115204061D01*
X212185326Y-115157785D01*
X212152073Y-115136392D01*
X212117022Y-115116164D01*
X212080174Y-115097100D01*
X212041528Y-115079199D01*
X212001085Y-115062463D01*
X211958845Y-115046891D01*
X211914806Y-115032482D01*
X211868971Y-115019238D01*
X211821338Y-115007157D01*
X211771907Y-114996241D01*
X211720679Y-114986488D01*
X211667654Y-114977900D01*
X211612831Y-114970475D01*
X211556210Y-114964214D01*
X211507232Y-114957700D01*
X211461413Y-114948903D01*
X211418755Y-114937825D01*
X211379256Y-114924464D01*
X211342918Y-114908821D01*
X211294334Y-114881077D01*
X211252861Y-114848199D01*
X211218497Y-114810186D01*
X211191243Y-114767038D01*
X211171098Y-114718755D01*
X211158064Y-114665338D01*
X211152139Y-114606785D01*
X211151744Y-114586127D01*
X211154500Y-114539527D01*
X211162769Y-114495348D01*
X211176551Y-114453591D01*
X211195845Y-114414256D01*
X211220652Y-114377342D01*
X211250972Y-114342849D01*
X211286804Y-114310778D01*
X211328148Y-114281128D01*
X211375006Y-114253900D01*
X211427376Y-114229093D01*
X211465352Y-114213900D01*
X211521014Y-114202151D01*
X211576624Y-114190350D01*
X211632182Y-114178498D01*
X211687689Y-114166594D01*
X211743145Y-114154638D01*
X211798549Y-114142631D01*
X211853901Y-114130573D01*
X211909202Y-114118463D01*
X211964452Y-114106301D01*
X212019650Y-114094088D01*
X212056420Y-114085917D01*
X212101605Y-114071476D01*
X212143859Y-114055997D01*
X212183182Y-114039480D01*
X212219574Y-114021926D01*
X212260942Y-113998522D01*
X212297732Y-113973497D01*
X212329941Y-113946849D01*
X212335833Y-113941325D01*
X212362924Y-113912708D01*
X212389577Y-113876163D01*
X212409842Y-113837214D01*
X212423718Y-113795861D01*
X212431205Y-113752103D01*
X212432554Y-113729323D01*
X212431313Y-113682001D01*
X212424906Y-113637732D01*
X212413331Y-113596516D01*
X212396589Y-113558353D01*
X212374679Y-113523243D01*
X212347603Y-113491186D01*
X212315359Y-113462182D01*
X212277948Y-113436231D01*
X212235369Y-113413333D01*
X212187624Y-113393489D01*
X212134711Y-113376697D01*
X212076631Y-113362958D01*
X212013383Y-113352273D01*
X211944969Y-113344640D01*
X211871387Y-113340061D01*
X211792637Y-113338534D01*
X211751977Y-113339908D01*
X211710595Y-113344030D01*
X211668491Y-113350899D01*
X211625667Y-113360516D01*
X211582121Y-113372881D01*
X211537854Y-113387993D01*
X211492865Y-113405853D01*
X211447156Y-113426461D01*
X211400725Y-113449817D01*
X211353573Y-113475921D01*
X211321737Y-113494849D01*
X211275343Y-113522785D01*
X211231783Y-113547972D01*
X211191057Y-113570412D01*
X211153164Y-113590104D01*
X211107048Y-113612086D01*
X211065969Y-113629183D01*
X211021705Y-113643685D01*
X210978978Y-113651012D01*
X210972958Y-113651165D01*
X210925231Y-113648350D01*
X210879745Y-113639907D01*
X210836502Y-113625834D01*
X210795501Y-113606133D01*
X210756741Y-113580802D01*
X210720224Y-113549842D01*
X210706245Y-113535882D01*
X210674723Y-113499093D01*
X210648543Y-113460778D01*
X210627706Y-113420935D01*
X210612212Y-113379567D01*
X210602060Y-113336672D01*
X210597252Y-113292250D01*
X210596824Y-113274054D01*
X210600886Y-113229375D01*
X210613070Y-113184730D01*
X210633378Y-113140119D01*
X210661808Y-113095543D01*
X210698362Y-113051001D01*
X210727243Y-113021326D01*
X210759735Y-112991665D01*
X210795837Y-112962020D01*
X210835550Y-112932391D01*
X210878872Y-112902776D01*
X210925805Y-112873177D01*
X210976348Y-112843593D01*
X211030501Y-112814024D01*
X211058932Y-112799246D01*
X211109750Y-112773692D01*
X211159377Y-112749787D01*
X211207813Y-112727530D01*
X211255059Y-112706922D01*
X211301114Y-112687963D01*
X211345978Y-112670652D01*
X211389652Y-112654990D01*
X211432135Y-112640976D01*
X211473427Y-112628612D01*
X211513529Y-112617896D01*
X211552440Y-112608828D01*
X211608574Y-112598318D01*
X211662028Y-112591517D01*
X211712804Y-112588426D01*
X211729134Y-112588220D01*
X211806094Y-112589300D01*
X211881145Y-112592540D01*
X211954288Y-112597940D01*
X212025523Y-112605500D01*
X212094850Y-112615220D01*
X212162268Y-112627100D01*
X212227779Y-112641141D01*
X212291381Y-112657341D01*
X212353075Y-112675701D01*
X212412862Y-112696221D01*
X212470739Y-112718901D01*
X212526709Y-112743742D01*
X212580771Y-112770742D01*
X212632924Y-112799902D01*
X212683170Y-112831223D01*
X212731507Y-112864703D01*
X212781787Y-112903824D01*
X212828822Y-112944982D01*
X212872614Y-112988179D01*
X212913162Y-113033414D01*
X212950467Y-113080686D01*
X212984527Y-113129996D01*
X213015344Y-113181345D01*
X213042916Y-113234731D01*
X213067245Y-113290155D01*
X213088330Y-113347617D01*
X213106172Y-113407117D01*
X213120769Y-113468654D01*
X213132122Y-113532230D01*
X213140232Y-113597844D01*
X213145098Y-113665495D01*
X213146720Y-113735184D01*
X213145689Y-113792629D01*
X213142598Y-113848460D01*
X213137446Y-113902676D01*
X213130233Y-113955278D01*
X213120960Y-114006265D01*
X213109625Y-114055639D01*
X213096230Y-114103398D01*
X213080774Y-114149542D01*
X213063257Y-114194073D01*
X213043680Y-114236989D01*
X213029483Y-114264703D01*
X213006654Y-114304929D01*
X212981764Y-114343540D01*
X212954813Y-114380537D01*
X212925802Y-114415920D01*
X212894730Y-114449688D01*
X212861597Y-114481842D01*
X212826403Y-114512382D01*
X212789148Y-114541308D01*
X212749833Y-114568619D01*
X212708456Y-114594316D01*
X212679727Y-114610551D01*
G37*
G36*
X216562212Y-114597850D02*
G01*
X216532104Y-114624434D01*
X216500399Y-114652530D01*
X216467097Y-114682137D01*
X216432198Y-114713255D01*
X216395702Y-114745884D01*
X216357609Y-114780025D01*
X216317918Y-114815677D01*
X216276631Y-114852840D01*
X216233746Y-114891514D01*
X216204269Y-114918136D01*
X216174082Y-114945431D01*
X216158722Y-114959330D01*
X215737648Y-115355980D01*
X216575889Y-116383754D01*
X216602064Y-116419074D01*
X216623803Y-116454203D01*
X216644033Y-116496106D01*
X216657875Y-116537734D01*
X216665328Y-116579087D01*
X216666748Y-116606503D01*
X216663933Y-116650500D01*
X216655490Y-116692733D01*
X216641417Y-116733200D01*
X216621715Y-116771902D01*
X216596385Y-116808839D01*
X216565425Y-116844010D01*
X216551465Y-116857585D01*
X216514628Y-116888545D01*
X216476169Y-116914257D01*
X216436089Y-116934722D01*
X216394386Y-116949939D01*
X216351062Y-116959909D01*
X216306115Y-116964632D01*
X216287683Y-116965052D01*
X216240537Y-116961808D01*
X216194966Y-116952076D01*
X216150969Y-116935857D01*
X216108546Y-116913150D01*
X216075741Y-116890314D01*
X216043944Y-116863325D01*
X216013154Y-116832184D01*
X215980998Y-116796784D01*
X215946323Y-116757995D01*
X215909129Y-116715817D01*
X215869417Y-116670251D01*
X215827186Y-116621295D01*
X215782436Y-116568951D01*
X215735167Y-116513218D01*
X215685380Y-116454096D01*
X215659542Y-116423264D01*
X215633074Y-116391585D01*
X215605976Y-116359059D01*
X215578249Y-116325685D01*
X215549892Y-116291464D01*
X215520905Y-116256396D01*
X215491289Y-116220481D01*
X215461043Y-116183719D01*
X215430167Y-116146109D01*
X215398662Y-116107653D01*
X215366527Y-116068349D01*
X215333762Y-116028197D01*
X215300367Y-115987199D01*
X215266343Y-115945353D01*
X215231689Y-115902660D01*
X215196406Y-115859120D01*
X215167608Y-115887758D01*
X215136902Y-115917983D01*
X215104288Y-115949795D01*
X215069766Y-115983196D01*
X215033335Y-116018183D01*
X214994997Y-116054759D01*
X214954750Y-116092922D01*
X214912595Y-116132672D01*
X214868533Y-116174010D01*
X214822561Y-116216936D01*
X214774682Y-116261449D01*
X214724895Y-116307550D01*
X214673199Y-116355239D01*
X214619596Y-116404515D01*
X214564084Y-116455378D01*
X214506664Y-116507829D01*
X214470882Y-116537978D01*
X214437299Y-116566875D01*
X214405914Y-116594520D01*
X214376727Y-116620914D01*
X214343334Y-116652145D01*
X214313376Y-116681421D01*
X214281960Y-116713970D01*
X214251201Y-116743508D01*
X214219495Y-116769108D01*
X214186843Y-116790769D01*
X214144697Y-116812308D01*
X214101072Y-116827692D01*
X214055968Y-116836923D01*
X214009385Y-116840000D01*
X213964096Y-116837400D01*
X213920428Y-116829600D01*
X213878382Y-116816601D01*
X213837957Y-116798402D01*
X213799155Y-116775003D01*
X213761975Y-116746405D01*
X213747557Y-116733510D01*
X213714627Y-116699044D01*
X213687279Y-116662813D01*
X213665512Y-116624817D01*
X213649326Y-116585056D01*
X213638721Y-116543530D01*
X213633698Y-116500239D01*
X213633251Y-116482428D01*
X213636778Y-116441884D01*
X213647356Y-116399874D01*
X213664988Y-116356399D01*
X213689672Y-116311458D01*
X213712813Y-116276791D01*
X213739921Y-116241299D01*
X213770996Y-116204983D01*
X213806038Y-116167843D01*
X213845047Y-116129879D01*
X213858932Y-116117041D01*
X213892829Y-116087749D01*
X213926744Y-116058491D01*
X213960675Y-116029268D01*
X213994624Y-116000079D01*
X214028590Y-115970924D01*
X214062573Y-115941804D01*
X214096573Y-115912718D01*
X214130591Y-115883667D01*
X214164626Y-115854649D01*
X214198677Y-115825667D01*
X214221388Y-115806364D01*
X214254361Y-115773460D01*
X214290631Y-115737396D01*
X214330198Y-115698172D01*
X214358408Y-115670267D01*
X214388084Y-115640958D01*
X214419225Y-115610244D01*
X214451831Y-115578126D01*
X214485903Y-115544604D01*
X214521441Y-115509677D01*
X214558443Y-115473346D01*
X214596912Y-115435611D01*
X214636845Y-115396471D01*
X214678244Y-115355927D01*
X214721109Y-115313978D01*
X214743091Y-115292477D01*
X214714297Y-115252351D01*
X214685434Y-115212209D01*
X214656503Y-115172049D01*
X214627503Y-115131872D01*
X214598434Y-115091678D01*
X214569297Y-115051466D01*
X214540091Y-115011238D01*
X214510816Y-114970992D01*
X214481472Y-114930729D01*
X214452060Y-114890449D01*
X214432414Y-114863586D01*
X214397240Y-114817138D01*
X214362427Y-114772682D01*
X214327974Y-114730218D01*
X214293883Y-114689747D01*
X214260151Y-114651267D01*
X214226781Y-114614779D01*
X214193771Y-114580284D01*
X214161121Y-114547780D01*
X214128833Y-114517269D01*
X214096904Y-114488750D01*
X214075819Y-114470844D01*
X214042389Y-114440817D01*
X214013415Y-114409844D01*
X213988900Y-114377925D01*
X213964523Y-114336694D01*
X213947111Y-114293985D01*
X213936664Y-114249797D01*
X213933182Y-114204131D01*
X213935829Y-114160320D01*
X213943772Y-114118035D01*
X213957010Y-114077277D01*
X213975543Y-114038046D01*
X213999370Y-114000341D01*
X214028494Y-113964162D01*
X214041625Y-113950118D01*
X214076564Y-113918033D01*
X214113601Y-113891385D01*
X214152737Y-113870176D01*
X214193972Y-113854405D01*
X214237306Y-113844073D01*
X214282739Y-113839178D01*
X214301500Y-113838743D01*
X214352653Y-113844880D01*
X214394044Y-113857537D01*
X214438028Y-113877097D01*
X214484605Y-113903561D01*
X214533775Y-113936929D01*
X214567996Y-113963010D01*
X214603369Y-113992158D01*
X214639894Y-114024376D01*
X214677573Y-114059661D01*
X214716404Y-114098015D01*
X214756387Y-114139437D01*
X214797523Y-114183927D01*
X214839811Y-114231486D01*
X215279448Y-114798129D01*
X215323753Y-114760027D01*
X215368005Y-114721926D01*
X215412207Y-114683824D01*
X215456356Y-114645722D01*
X215500455Y-114607620D01*
X215544501Y-114569518D01*
X215588497Y-114531416D01*
X215632440Y-114493314D01*
X215676332Y-114455212D01*
X215720173Y-114417110D01*
X215749371Y-114391709D01*
X215785119Y-114359523D01*
X215819576Y-114327931D01*
X215852743Y-114296935D01*
X215884621Y-114266535D01*
X215915209Y-114236729D01*
X215944506Y-114207520D01*
X215972514Y-114178905D01*
X216012107Y-114137099D01*
X216048798Y-114096633D01*
X216082586Y-114057507D01*
X216113473Y-114019720D01*
X216141457Y-113983272D01*
X216166538Y-113948164D01*
X216197084Y-113907864D01*
X216229614Y-113872937D01*
X216264129Y-113843384D01*
X216300628Y-113819204D01*
X216339111Y-113800397D01*
X216379579Y-113786964D01*
X216422032Y-113778904D01*
X216466468Y-113776217D01*
X216512087Y-113778817D01*
X216556132Y-113786617D01*
X216598603Y-113799616D01*
X216639499Y-113817815D01*
X216678821Y-113841213D01*
X216716569Y-113869812D01*
X216731228Y-113882707D01*
X216765002Y-113916915D01*
X216793052Y-113952984D01*
X216815377Y-113990913D01*
X216831978Y-114030703D01*
X216842854Y-114072353D01*
X216848006Y-114115864D01*
X216848464Y-114133789D01*
X216843992Y-114180790D01*
X216830573Y-114230936D01*
X216814639Y-114270610D01*
X216793674Y-114312052D01*
X216767676Y-114355263D01*
X216736647Y-114400242D01*
X216700586Y-114446991D01*
X216673750Y-114479140D01*
X216644677Y-114512074D01*
X216613368Y-114545795D01*
X216579823Y-114580302D01*
X216562212Y-114597850D01*
G37*
G36*
X218930912Y-112590724D02*
G01*
X218975587Y-112598238D01*
X219018496Y-112610760D01*
X219059641Y-112628291D01*
X219099020Y-112650831D01*
X219136634Y-112678380D01*
X219151186Y-112690802D01*
X219184540Y-112723579D01*
X219212552Y-112758408D01*
X219235221Y-112795287D01*
X219252547Y-112834218D01*
X219264530Y-112875201D01*
X219271170Y-112918234D01*
X219272330Y-112936022D01*
X219266219Y-112982514D01*
X219249893Y-113025546D01*
X219230977Y-113061227D01*
X219206342Y-113099827D01*
X219175988Y-113141346D01*
X219139915Y-113185785D01*
X219112690Y-113217033D01*
X219082923Y-113249578D01*
X219050614Y-113283421D01*
X219015764Y-113318561D01*
X218978372Y-113354999D01*
X218958722Y-113373705D01*
X218916058Y-113412505D01*
X218873428Y-113451237D01*
X218830833Y-113489900D01*
X218788271Y-113528494D01*
X218745745Y-113567019D01*
X218703252Y-113605476D01*
X218660794Y-113643864D01*
X218618370Y-113682184D01*
X218575981Y-113720434D01*
X218533625Y-113758616D01*
X218505408Y-113784033D01*
X218474328Y-113814643D01*
X218444347Y-113845170D01*
X218415465Y-113875613D01*
X218387683Y-113905971D01*
X218360999Y-113936246D01*
X218335415Y-113966437D01*
X218299099Y-114011565D01*
X218265256Y-114056505D01*
X218233886Y-114101256D01*
X218204989Y-114145818D01*
X218178565Y-114190191D01*
X218154614Y-114234375D01*
X218140020Y-114263726D01*
X218176810Y-114249789D01*
X218221851Y-114233698D01*
X218265844Y-114219087D01*
X218308787Y-114205954D01*
X218350680Y-114194300D01*
X218391524Y-114184125D01*
X218415526Y-114178729D01*
X218455020Y-114170849D01*
X218501091Y-114163155D01*
X218545718Y-114157385D01*
X218588903Y-114153538D01*
X218630646Y-114151615D01*
X218650976Y-114151374D01*
X218693599Y-114151722D01*
X218735614Y-114152767D01*
X218777023Y-114154508D01*
X218817825Y-114156946D01*
X218858020Y-114160080D01*
X218897608Y-114163911D01*
X218936590Y-114168438D01*
X219012733Y-114179581D01*
X219086448Y-114193511D01*
X219157736Y-114210226D01*
X219226598Y-114229728D01*
X219293032Y-114252015D01*
X219357039Y-114277088D01*
X219418618Y-114304947D01*
X219477771Y-114335592D01*
X219534496Y-114369022D01*
X219588795Y-114405239D01*
X219640666Y-114444241D01*
X219690110Y-114486030D01*
X219713921Y-114507969D01*
X219759587Y-114553635D01*
X219802307Y-114601483D01*
X219842080Y-114651515D01*
X219878907Y-114703729D01*
X219912788Y-114758127D01*
X219943723Y-114814707D01*
X219971712Y-114873471D01*
X219996755Y-114934417D01*
X220018851Y-114997546D01*
X220038001Y-115062858D01*
X220054205Y-115130353D01*
X220067463Y-115200031D01*
X220077774Y-115271892D01*
X220085140Y-115345935D01*
X220089559Y-115422162D01*
X220091032Y-115500572D01*
X220090643Y-115541677D01*
X220089475Y-115582317D01*
X220087529Y-115622491D01*
X220084804Y-115662199D01*
X220081301Y-115701442D01*
X220071958Y-115778532D01*
X220059502Y-115853758D01*
X220043932Y-115927123D01*
X220025247Y-115998625D01*
X220003448Y-116068265D01*
X219978536Y-116136042D01*
X219950509Y-116201957D01*
X219919368Y-116266010D01*
X219885113Y-116328200D01*
X219847744Y-116388528D01*
X219807260Y-116446994D01*
X219763663Y-116503597D01*
X219716951Y-116558338D01*
X219692428Y-116585010D01*
X219638828Y-116638602D01*
X219583053Y-116688737D01*
X219525103Y-116735414D01*
X219464977Y-116778633D01*
X219402676Y-116818395D01*
X219338200Y-116854700D01*
X219271548Y-116887547D01*
X219202721Y-116916936D01*
X219131719Y-116942868D01*
X219058541Y-116965342D01*
X218983189Y-116984358D01*
X218944697Y-116992570D01*
X218905661Y-116999918D01*
X218866081Y-117006400D01*
X218825957Y-117012019D01*
X218785290Y-117016773D01*
X218744079Y-117020663D01*
X218702324Y-117023688D01*
X218660025Y-117025849D01*
X218617182Y-117027146D01*
X218573796Y-117027578D01*
X218525589Y-117027046D01*
X218478178Y-117025449D01*
X218431563Y-117022787D01*
X218385744Y-117019060D01*
X218340720Y-117014269D01*
X218296492Y-117008413D01*
X218253060Y-117001492D01*
X218210423Y-116993506D01*
X218168583Y-116984456D01*
X218127537Y-116974341D01*
X218087288Y-116963161D01*
X218047834Y-116950916D01*
X218009176Y-116937607D01*
X217971314Y-116923233D01*
X217934247Y-116907794D01*
X217897976Y-116891290D01*
X217862500Y-116873722D01*
X217827821Y-116855089D01*
X217793937Y-116835391D01*
X217728556Y-116792801D01*
X217666358Y-116745953D01*
X217607343Y-116694845D01*
X217579029Y-116667694D01*
X217551511Y-116639478D01*
X217524788Y-116610198D01*
X217498861Y-116579852D01*
X217473730Y-116548442D01*
X217449394Y-116515967D01*
X217425854Y-116482428D01*
X217389890Y-116426775D01*
X217356245Y-116368992D01*
X217324921Y-116309080D01*
X217295917Y-116247039D01*
X217269234Y-116182868D01*
X217244870Y-116116567D01*
X217222827Y-116048137D01*
X217203105Y-115977578D01*
X217185703Y-115904889D01*
X217170621Y-115830071D01*
X217157859Y-115753123D01*
X217152348Y-115713850D01*
X217147418Y-115674045D01*
X217143067Y-115633708D01*
X217139296Y-115592838D01*
X217136106Y-115551436D01*
X217133496Y-115509502D01*
X217131465Y-115467035D01*
X217130015Y-115424036D01*
X217129145Y-115380504D01*
X217128855Y-115336441D01*
X217129131Y-115315924D01*
X217885031Y-115315924D01*
X217885718Y-115375069D01*
X217887779Y-115432336D01*
X217891213Y-115487726D01*
X217896022Y-115541238D01*
X217902204Y-115592873D01*
X217909760Y-115642629D01*
X217918691Y-115690509D01*
X217928995Y-115736510D01*
X217940672Y-115780634D01*
X217953724Y-115822881D01*
X217968150Y-115863249D01*
X217983949Y-115901741D01*
X218001123Y-115938354D01*
X218019670Y-115973090D01*
X218050067Y-116021673D01*
X218060886Y-116036929D01*
X218095404Y-116079880D01*
X218133014Y-116118605D01*
X218173714Y-116153107D01*
X218217506Y-116183383D01*
X218264390Y-116209435D01*
X218314364Y-116231262D01*
X218367430Y-116248865D01*
X218423586Y-116262243D01*
X218462742Y-116268815D01*
X218503271Y-116273509D01*
X218545174Y-116276325D01*
X218588450Y-116277264D01*
X218632761Y-116276390D01*
X218675813Y-116273768D01*
X218717605Y-116269399D01*
X218758138Y-116263281D01*
X218797412Y-116255416D01*
X218835426Y-116245802D01*
X218890085Y-116228105D01*
X218941912Y-116206476D01*
X218990904Y-116180913D01*
X219037063Y-116151418D01*
X219080389Y-116117990D01*
X219120881Y-116080629D01*
X219146301Y-116053538D01*
X219180172Y-116012064D01*
X219210712Y-115967877D01*
X219237921Y-115920977D01*
X219261797Y-115871363D01*
X219282342Y-115819036D01*
X219299556Y-115763995D01*
X219309180Y-115725794D01*
X219317324Y-115686387D01*
X219323988Y-115645774D01*
X219329170Y-115603955D01*
X219332872Y-115560930D01*
X219335093Y-115516699D01*
X219335833Y-115471263D01*
X219334168Y-115419036D01*
X219329170Y-115369333D01*
X219320841Y-115322155D01*
X219309180Y-115277502D01*
X219294188Y-115235373D01*
X219275864Y-115195768D01*
X219254209Y-115158688D01*
X219229221Y-115124132D01*
X219200903Y-115092101D01*
X219169252Y-115062595D01*
X219146301Y-115044326D01*
X219109072Y-115018835D01*
X219068460Y-114995852D01*
X219024465Y-114975375D01*
X218977086Y-114957406D01*
X218926325Y-114941944D01*
X218872180Y-114928990D01*
X218814653Y-114918543D01*
X218774421Y-114912971D01*
X218732686Y-114908514D01*
X218689448Y-114905171D01*
X218644705Y-114902942D01*
X218598459Y-114901828D01*
X218574773Y-114901688D01*
X218524611Y-114902635D01*
X218475732Y-114905474D01*
X218428135Y-114910206D01*
X218381821Y-114916831D01*
X218336789Y-114925349D01*
X218293039Y-114935760D01*
X218250571Y-114948064D01*
X218209385Y-114962260D01*
X218172165Y-114978014D01*
X218133539Y-114996180D01*
X218097659Y-115014009D01*
X218057351Y-115034770D01*
X218012616Y-115058462D01*
X217976160Y-115078154D01*
X217937214Y-115099494D01*
X217895778Y-115122484D01*
X217891590Y-115167470D01*
X217888431Y-115210961D01*
X217886301Y-115252955D01*
X217885199Y-115293454D01*
X217885031Y-115315924D01*
X217129131Y-115315924D01*
X217129966Y-115253805D01*
X217133297Y-115171863D01*
X217138850Y-115090613D01*
X217146624Y-115010056D01*
X217156619Y-114930191D01*
X217168835Y-114851019D01*
X217183272Y-114772540D01*
X217199930Y-114694754D01*
X217218809Y-114617660D01*
X217239909Y-114541258D01*
X217263231Y-114465550D01*
X217288773Y-114390534D01*
X217316537Y-114316210D01*
X217346521Y-114242580D01*
X217378727Y-114169642D01*
X217413154Y-114097397D01*
X217449802Y-114025844D01*
X217488671Y-113954984D01*
X217529761Y-113884817D01*
X217573072Y-113815342D01*
X217618604Y-113746560D01*
X217666357Y-113678470D01*
X217716332Y-113611074D01*
X217768527Y-113544370D01*
X217822944Y-113478358D01*
X217879581Y-113413040D01*
X217938440Y-113348413D01*
X217999520Y-113284480D01*
X218062821Y-113221239D01*
X218128343Y-113158691D01*
X218196086Y-113096836D01*
X218266050Y-113035673D01*
X218301724Y-113001525D01*
X218337430Y-112967468D01*
X218373165Y-112933503D01*
X218408932Y-112899630D01*
X218444729Y-112865848D01*
X218480556Y-112832158D01*
X218516414Y-112798559D01*
X218552302Y-112765052D01*
X218589254Y-112733450D01*
X218625003Y-112704957D01*
X218659550Y-112679572D01*
X218692895Y-112657295D01*
X218735484Y-112632428D01*
X218775937Y-112613087D01*
X218814253Y-112599272D01*
X218859142Y-112589774D01*
X218884473Y-112588220D01*
X218930912Y-112590724D01*
G37*
G36*
X220091032Y-117777892D02*
G01*
X220091032Y-117277683D01*
X224041905Y-117277683D01*
X224041905Y-117777892D01*
X220091032Y-117777892D01*
G37*
G36*
X226326064Y-114610551D02*
G01*
X226360865Y-114631204D01*
X226394562Y-114652618D01*
X226427154Y-114674793D01*
X226489024Y-114721428D01*
X226546475Y-114771109D01*
X226599506Y-114823835D01*
X226648118Y-114879606D01*
X226692311Y-114938423D01*
X226732084Y-115000285D01*
X226767438Y-115065193D01*
X226798373Y-115133146D01*
X226824889Y-115204144D01*
X226846985Y-115278188D01*
X226856376Y-115316352D01*
X226864662Y-115355277D01*
X226871843Y-115394963D01*
X226877920Y-115435411D01*
X226882892Y-115476621D01*
X226886758Y-115518591D01*
X226889521Y-115561323D01*
X226891178Y-115604817D01*
X226891730Y-115649071D01*
X226890108Y-115720440D01*
X226885242Y-115790442D01*
X226877133Y-115859078D01*
X226865779Y-115926348D01*
X226851182Y-115992252D01*
X226833341Y-116056789D01*
X226812256Y-116119960D01*
X226787927Y-116181765D01*
X226760354Y-116242204D01*
X226729538Y-116301276D01*
X226695477Y-116358982D01*
X226658173Y-116415322D01*
X226617625Y-116470296D01*
X226573833Y-116523903D01*
X226526797Y-116576145D01*
X226476517Y-116627020D01*
X226424036Y-116675525D01*
X226370150Y-116720901D01*
X226314859Y-116763147D01*
X226258164Y-116802264D01*
X226200065Y-116838252D01*
X226140561Y-116871110D01*
X226079653Y-116900839D01*
X226017341Y-116927438D01*
X225953624Y-116950909D01*
X225888503Y-116971250D01*
X225821977Y-116988461D01*
X225754047Y-117002543D01*
X225684713Y-117013496D01*
X225613974Y-117021319D01*
X225541830Y-117026013D01*
X225468283Y-117027578D01*
X225413424Y-117026841D01*
X225359244Y-117024632D01*
X225305743Y-117020949D01*
X225252922Y-117015793D01*
X225200780Y-117009164D01*
X225149317Y-117001062D01*
X225098533Y-116991487D01*
X225048429Y-116980439D01*
X224999005Y-116967918D01*
X224950259Y-116953924D01*
X224902193Y-116938456D01*
X224854806Y-116921516D01*
X224808098Y-116903102D01*
X224762070Y-116883215D01*
X224716721Y-116861855D01*
X224672051Y-116839023D01*
X224621920Y-116810816D01*
X224573866Y-116781152D01*
X224527887Y-116750030D01*
X224483984Y-116717451D01*
X224442158Y-116683413D01*
X224402407Y-116647918D01*
X224364733Y-116610965D01*
X224329134Y-116572554D01*
X224295612Y-116532685D01*
X224264166Y-116491358D01*
X224234795Y-116448574D01*
X224207501Y-116404331D01*
X224182283Y-116358631D01*
X224159141Y-116311473D01*
X224138075Y-116262857D01*
X224119085Y-116212784D01*
X224107751Y-116174068D01*
X224100614Y-116133634D01*
X224097676Y-116091483D01*
X224097592Y-116082847D01*
X224099531Y-116043157D01*
X224107407Y-115995950D01*
X224121341Y-115951413D01*
X224141333Y-115909549D01*
X224167384Y-115870355D01*
X224199494Y-115833833D01*
X224221667Y-115813203D01*
X224258504Y-115784776D01*
X224296963Y-115761167D01*
X224337043Y-115742377D01*
X224378746Y-115728405D01*
X224422070Y-115719250D01*
X224467017Y-115714914D01*
X224485450Y-115714528D01*
X224527612Y-115716788D01*
X224567637Y-115723565D01*
X224605525Y-115734862D01*
X224641277Y-115750676D01*
X224674890Y-115771010D01*
X224706367Y-115795861D01*
X224735707Y-115825232D01*
X224762909Y-115859120D01*
X224794577Y-115904023D01*
X224823634Y-115944941D01*
X224850081Y-115981875D01*
X224873918Y-116014825D01*
X224901639Y-116052561D01*
X224929766Y-116089769D01*
X224956960Y-116123269D01*
X224966120Y-116132672D01*
X224999427Y-116158512D01*
X225035603Y-116181811D01*
X225074646Y-116202568D01*
X225116558Y-116220783D01*
X225161337Y-116236456D01*
X225208985Y-116249588D01*
X225259500Y-116260178D01*
X225312883Y-116268227D01*
X225369135Y-116273734D01*
X225408229Y-116275993D01*
X225448597Y-116277123D01*
X225469260Y-116277264D01*
X225517603Y-116275882D01*
X225564812Y-116271734D01*
X225610888Y-116264822D01*
X225655831Y-116255145D01*
X225699640Y-116242703D01*
X225742316Y-116227496D01*
X225783858Y-116209524D01*
X225824267Y-116188787D01*
X225863542Y-116165285D01*
X225901684Y-116139019D01*
X225926482Y-116119972D01*
X225961576Y-116089921D01*
X225993218Y-116058754D01*
X226021408Y-116026471D01*
X226046146Y-115993072D01*
X226067432Y-115958557D01*
X226085267Y-115922925D01*
X226099650Y-115886177D01*
X226110580Y-115848312D01*
X226118059Y-115809332D01*
X226122087Y-115769235D01*
X226122854Y-115741884D01*
X226121955Y-115699540D01*
X226119259Y-115658360D01*
X226114765Y-115618344D01*
X226108474Y-115579493D01*
X226090499Y-115505281D01*
X226065334Y-115435725D01*
X226032980Y-115370825D01*
X225993435Y-115310581D01*
X225946701Y-115254993D01*
X225892777Y-115204061D01*
X225831663Y-115157785D01*
X225798409Y-115136392D01*
X225763359Y-115116164D01*
X225726510Y-115097100D01*
X225687865Y-115079199D01*
X225647422Y-115062463D01*
X225605181Y-115046891D01*
X225561143Y-115032482D01*
X225515307Y-115019238D01*
X225467674Y-115007157D01*
X225418244Y-114996241D01*
X225367016Y-114986488D01*
X225313990Y-114977900D01*
X225259167Y-114970475D01*
X225202547Y-114964214D01*
X225153568Y-114957700D01*
X225107750Y-114948903D01*
X225065091Y-114937825D01*
X225025593Y-114924464D01*
X224989254Y-114908821D01*
X224940671Y-114881077D01*
X224899197Y-114848199D01*
X224864833Y-114810186D01*
X224837579Y-114767038D01*
X224817435Y-114718755D01*
X224804400Y-114665338D01*
X224798475Y-114606785D01*
X224798080Y-114586127D01*
X224800837Y-114539527D01*
X224809106Y-114495348D01*
X224822887Y-114453591D01*
X224842182Y-114414256D01*
X224866988Y-114377342D01*
X224897308Y-114342849D01*
X224933140Y-114310778D01*
X224974485Y-114281128D01*
X225021342Y-114253900D01*
X225073712Y-114229093D01*
X225111688Y-114213900D01*
X225167350Y-114202151D01*
X225222960Y-114190350D01*
X225278519Y-114178498D01*
X225334026Y-114166594D01*
X225389481Y-114154638D01*
X225444885Y-114142631D01*
X225500238Y-114130573D01*
X225555539Y-114118463D01*
X225610788Y-114106301D01*
X225665986Y-114094088D01*
X225702756Y-114085917D01*
X225747941Y-114071476D01*
X225790195Y-114055997D01*
X225829518Y-114039480D01*
X225865910Y-114021926D01*
X225907279Y-113998522D01*
X225944068Y-113973497D01*
X225976277Y-113946849D01*
X225982170Y-113941325D01*
X226009261Y-113912708D01*
X226035914Y-113876163D01*
X226056178Y-113837214D01*
X226070054Y-113795861D01*
X226077542Y-113752103D01*
X226078890Y-113729323D01*
X226077650Y-113682001D01*
X226071242Y-113637732D01*
X226059667Y-113596516D01*
X226042925Y-113558353D01*
X226021016Y-113523243D01*
X225993939Y-113491186D01*
X225961695Y-113462182D01*
X225924284Y-113436231D01*
X225881706Y-113413333D01*
X225833960Y-113393489D01*
X225781047Y-113376697D01*
X225722967Y-113362958D01*
X225659720Y-113352273D01*
X225591305Y-113344640D01*
X225517723Y-113340061D01*
X225438974Y-113338534D01*
X225398313Y-113339908D01*
X225356931Y-113344030D01*
X225314828Y-113350899D01*
X225272003Y-113360516D01*
X225228457Y-113372881D01*
X225184190Y-113387993D01*
X225139202Y-113405853D01*
X225093492Y-113426461D01*
X225047061Y-113449817D01*
X224999909Y-113475921D01*
X224968073Y-113494849D01*
X224921680Y-113522785D01*
X224878120Y-113547972D01*
X224837393Y-113570412D01*
X224799500Y-113590104D01*
X224753384Y-113612086D01*
X224712305Y-113629183D01*
X224668041Y-113643685D01*
X224625314Y-113651012D01*
X224619295Y-113651165D01*
X224571567Y-113648350D01*
X224526082Y-113639907D01*
X224482838Y-113625834D01*
X224441837Y-113606133D01*
X224403078Y-113580802D01*
X224366561Y-113549842D01*
X224352581Y-113535882D01*
X224321059Y-113499093D01*
X224294879Y-113460778D01*
X224274042Y-113420935D01*
X224258548Y-113379567D01*
X224248397Y-113336672D01*
X224243588Y-113292250D01*
X224243161Y-113274054D01*
X224247222Y-113229375D01*
X224259407Y-113184730D01*
X224279714Y-113140119D01*
X224308145Y-113095543D01*
X224344698Y-113051001D01*
X224373580Y-113021326D01*
X224406072Y-112991665D01*
X224442174Y-112962020D01*
X224481886Y-112932391D01*
X224525209Y-112902776D01*
X224572142Y-112873177D01*
X224622685Y-112843593D01*
X224676838Y-112814024D01*
X224705268Y-112799246D01*
X224756086Y-112773692D01*
X224805713Y-112749787D01*
X224854149Y-112727530D01*
X224901395Y-112706922D01*
X224947450Y-112687963D01*
X224992315Y-112670652D01*
X225035988Y-112654990D01*
X225078471Y-112640976D01*
X225119764Y-112628612D01*
X225159865Y-112617896D01*
X225198776Y-112608828D01*
X225254910Y-112598318D01*
X225308365Y-112591517D01*
X225359141Y-112588426D01*
X225375471Y-112588220D01*
X225452430Y-112589300D01*
X225527481Y-112592540D01*
X225600624Y-112597940D01*
X225671859Y-112605500D01*
X225741186Y-112615220D01*
X225808605Y-112627100D01*
X225874115Y-112641141D01*
X225937718Y-112657341D01*
X225999412Y-112675701D01*
X226059198Y-112696221D01*
X226117076Y-112718901D01*
X226173046Y-112743742D01*
X226227107Y-112770742D01*
X226279261Y-112799902D01*
X226329506Y-112831223D01*
X226377843Y-112864703D01*
X226428123Y-112903824D01*
X226475159Y-112944982D01*
X226518951Y-112988179D01*
X226559499Y-113033414D01*
X226596803Y-113080686D01*
X226630864Y-113129996D01*
X226661680Y-113181345D01*
X226689253Y-113234731D01*
X226713582Y-113290155D01*
X226734667Y-113347617D01*
X226752508Y-113407117D01*
X226767105Y-113468654D01*
X226778459Y-113532230D01*
X226786568Y-113597844D01*
X226791434Y-113665495D01*
X226793056Y-113735184D01*
X226792026Y-113792629D01*
X226788934Y-113848460D01*
X226783782Y-113902676D01*
X226776570Y-113955278D01*
X226767296Y-114006265D01*
X226755962Y-114055639D01*
X226742566Y-114103398D01*
X226727110Y-114149542D01*
X226709594Y-114194073D01*
X226690016Y-114236989D01*
X226675819Y-114264703D01*
X226652990Y-114304929D01*
X226628101Y-114343540D01*
X226601150Y-114380537D01*
X226572138Y-114415920D01*
X226541066Y-114449688D01*
X226507933Y-114481842D01*
X226472739Y-114512382D01*
X226435484Y-114541308D01*
X226396169Y-114568619D01*
X226354793Y-114594316D01*
X226326064Y-114610551D01*
G37*
D10*
%TO.C,MCU1*%
X209239740Y-62949178D02*
X209354026Y-62987273D01*
X209354026Y-62987273D02*
X209392121Y-63025369D01*
X209392121Y-63025369D02*
X209430217Y-63101559D01*
X209430217Y-63101559D02*
X209430217Y-63215845D01*
X209430217Y-63215845D02*
X209392121Y-63292035D01*
X209392121Y-63292035D02*
X209354026Y-63330131D01*
X209354026Y-63330131D02*
X209277836Y-63368226D01*
X209277836Y-63368226D02*
X208973074Y-63368226D01*
X208973074Y-63368226D02*
X208973074Y-62568226D01*
X208973074Y-62568226D02*
X209239740Y-62568226D01*
X209239740Y-62568226D02*
X209315931Y-62606321D01*
X209315931Y-62606321D02*
X209354026Y-62644416D01*
X209354026Y-62644416D02*
X209392121Y-62720607D01*
X209392121Y-62720607D02*
X209392121Y-62796797D01*
X209392121Y-62796797D02*
X209354026Y-62872988D01*
X209354026Y-62872988D02*
X209315931Y-62911083D01*
X209315931Y-62911083D02*
X209239740Y-62949178D01*
X209239740Y-62949178D02*
X208973074Y-62949178D01*
X209925455Y-62568226D02*
X210001645Y-62568226D01*
X210001645Y-62568226D02*
X210077836Y-62606321D01*
X210077836Y-62606321D02*
X210115931Y-62644416D01*
X210115931Y-62644416D02*
X210154026Y-62720607D01*
X210154026Y-62720607D02*
X210192121Y-62872988D01*
X210192121Y-62872988D02*
X210192121Y-63063464D01*
X210192121Y-63063464D02*
X210154026Y-63215845D01*
X210154026Y-63215845D02*
X210115931Y-63292035D01*
X210115931Y-63292035D02*
X210077836Y-63330131D01*
X210077836Y-63330131D02*
X210001645Y-63368226D01*
X210001645Y-63368226D02*
X209925455Y-63368226D01*
X209925455Y-63368226D02*
X209849264Y-63330131D01*
X209849264Y-63330131D02*
X209811169Y-63292035D01*
X209811169Y-63292035D02*
X209773074Y-63215845D01*
X209773074Y-63215845D02*
X209734978Y-63063464D01*
X209734978Y-63063464D02*
X209734978Y-62872988D01*
X209734978Y-62872988D02*
X209773074Y-62720607D01*
X209773074Y-62720607D02*
X209811169Y-62644416D01*
X209811169Y-62644416D02*
X209849264Y-62606321D01*
X209849264Y-62606321D02*
X209925455Y-62568226D01*
X208954026Y-65146321D02*
X208877836Y-65108226D01*
X208877836Y-65108226D02*
X208763550Y-65108226D01*
X208763550Y-65108226D02*
X208649264Y-65146321D01*
X208649264Y-65146321D02*
X208573074Y-65222511D01*
X208573074Y-65222511D02*
X208534979Y-65298702D01*
X208534979Y-65298702D02*
X208496883Y-65451083D01*
X208496883Y-65451083D02*
X208496883Y-65565369D01*
X208496883Y-65565369D02*
X208534979Y-65717750D01*
X208534979Y-65717750D02*
X208573074Y-65793940D01*
X208573074Y-65793940D02*
X208649264Y-65870131D01*
X208649264Y-65870131D02*
X208763550Y-65908226D01*
X208763550Y-65908226D02*
X208839741Y-65908226D01*
X208839741Y-65908226D02*
X208954026Y-65870131D01*
X208954026Y-65870131D02*
X208992122Y-65832035D01*
X208992122Y-65832035D02*
X208992122Y-65565369D01*
X208992122Y-65565369D02*
X208839741Y-65565369D01*
X209334979Y-65908226D02*
X209334979Y-65108226D01*
X209334979Y-65108226D02*
X209792122Y-65908226D01*
X209792122Y-65908226D02*
X209792122Y-65108226D01*
X210173074Y-65908226D02*
X210173074Y-65108226D01*
X210173074Y-65108226D02*
X210363550Y-65108226D01*
X210363550Y-65108226D02*
X210477836Y-65146321D01*
X210477836Y-65146321D02*
X210554026Y-65222511D01*
X210554026Y-65222511D02*
X210592121Y-65298702D01*
X210592121Y-65298702D02*
X210630217Y-65451083D01*
X210630217Y-65451083D02*
X210630217Y-65565369D01*
X210630217Y-65565369D02*
X210592121Y-65717750D01*
X210592121Y-65717750D02*
X210554026Y-65793940D01*
X210554026Y-65793940D02*
X210477836Y-65870131D01*
X210477836Y-65870131D02*
X210363550Y-65908226D01*
X210363550Y-65908226D02*
X210173074Y-65908226D01*
X209125455Y-68448226D02*
X208858788Y-68067273D01*
X208668312Y-68448226D02*
X208668312Y-67648226D01*
X208668312Y-67648226D02*
X208973074Y-67648226D01*
X208973074Y-67648226D02*
X209049264Y-67686321D01*
X209049264Y-67686321D02*
X209087359Y-67724416D01*
X209087359Y-67724416D02*
X209125455Y-67800607D01*
X209125455Y-67800607D02*
X209125455Y-67914892D01*
X209125455Y-67914892D02*
X209087359Y-67991083D01*
X209087359Y-67991083D02*
X209049264Y-68029178D01*
X209049264Y-68029178D02*
X208973074Y-68067273D01*
X208973074Y-68067273D02*
X208668312Y-68067273D01*
X209430216Y-68410131D02*
X209544502Y-68448226D01*
X209544502Y-68448226D02*
X209734978Y-68448226D01*
X209734978Y-68448226D02*
X209811169Y-68410131D01*
X209811169Y-68410131D02*
X209849264Y-68372035D01*
X209849264Y-68372035D02*
X209887359Y-68295845D01*
X209887359Y-68295845D02*
X209887359Y-68219654D01*
X209887359Y-68219654D02*
X209849264Y-68143464D01*
X209849264Y-68143464D02*
X209811169Y-68105369D01*
X209811169Y-68105369D02*
X209734978Y-68067273D01*
X209734978Y-68067273D02*
X209582597Y-68029178D01*
X209582597Y-68029178D02*
X209506407Y-67991083D01*
X209506407Y-67991083D02*
X209468312Y-67952988D01*
X209468312Y-67952988D02*
X209430216Y-67876797D01*
X209430216Y-67876797D02*
X209430216Y-67800607D01*
X209430216Y-67800607D02*
X209468312Y-67724416D01*
X209468312Y-67724416D02*
X209506407Y-67686321D01*
X209506407Y-67686321D02*
X209582597Y-67648226D01*
X209582597Y-67648226D02*
X209773074Y-67648226D01*
X209773074Y-67648226D02*
X209887359Y-67686321D01*
X210115931Y-67648226D02*
X210573074Y-67648226D01*
X210344502Y-68448226D02*
X210344502Y-67648226D01*
X208496883Y-70188226D02*
X208763550Y-70988226D01*
X208763550Y-70988226D02*
X209030216Y-70188226D01*
X209754026Y-70912035D02*
X209715930Y-70950131D01*
X209715930Y-70950131D02*
X209601645Y-70988226D01*
X209601645Y-70988226D02*
X209525454Y-70988226D01*
X209525454Y-70988226D02*
X209411168Y-70950131D01*
X209411168Y-70950131D02*
X209334978Y-70873940D01*
X209334978Y-70873940D02*
X209296883Y-70797750D01*
X209296883Y-70797750D02*
X209258787Y-70645369D01*
X209258787Y-70645369D02*
X209258787Y-70531083D01*
X209258787Y-70531083D02*
X209296883Y-70378702D01*
X209296883Y-70378702D02*
X209334978Y-70302511D01*
X209334978Y-70302511D02*
X209411168Y-70226321D01*
X209411168Y-70226321D02*
X209525454Y-70188226D01*
X209525454Y-70188226D02*
X209601645Y-70188226D01*
X209601645Y-70188226D02*
X209715930Y-70226321D01*
X209715930Y-70226321D02*
X209754026Y-70264416D01*
X210554026Y-70912035D02*
X210515930Y-70950131D01*
X210515930Y-70950131D02*
X210401645Y-70988226D01*
X210401645Y-70988226D02*
X210325454Y-70988226D01*
X210325454Y-70988226D02*
X210211168Y-70950131D01*
X210211168Y-70950131D02*
X210134978Y-70873940D01*
X210134978Y-70873940D02*
X210096883Y-70797750D01*
X210096883Y-70797750D02*
X210058787Y-70645369D01*
X210058787Y-70645369D02*
X210058787Y-70531083D01*
X210058787Y-70531083D02*
X210096883Y-70378702D01*
X210096883Y-70378702D02*
X210134978Y-70302511D01*
X210134978Y-70302511D02*
X210211168Y-70226321D01*
X210211168Y-70226321D02*
X210325454Y-70188226D01*
X210325454Y-70188226D02*
X210401645Y-70188226D01*
X210401645Y-70188226D02*
X210515930Y-70226321D01*
X210515930Y-70226321D02*
X210554026Y-70264416D01*
X209296883Y-73109178D02*
X209030217Y-73109178D01*
X209030217Y-73528226D02*
X209030217Y-72728226D01*
X209030217Y-72728226D02*
X209411169Y-72728226D01*
X210058788Y-72994892D02*
X210058788Y-73528226D01*
X209868312Y-72690131D02*
X209677835Y-73261559D01*
X209677835Y-73261559D02*
X210173074Y-73261559D01*
X209296883Y-75649178D02*
X209030217Y-75649178D01*
X209030217Y-76068226D02*
X209030217Y-75268226D01*
X209030217Y-75268226D02*
X209411169Y-75268226D01*
X210096883Y-75268226D02*
X209715931Y-75268226D01*
X209715931Y-75268226D02*
X209677835Y-75649178D01*
X209677835Y-75649178D02*
X209715931Y-75611083D01*
X209715931Y-75611083D02*
X209792121Y-75572988D01*
X209792121Y-75572988D02*
X209982597Y-75572988D01*
X209982597Y-75572988D02*
X210058788Y-75611083D01*
X210058788Y-75611083D02*
X210096883Y-75649178D01*
X210096883Y-75649178D02*
X210134978Y-75725369D01*
X210134978Y-75725369D02*
X210134978Y-75915845D01*
X210134978Y-75915845D02*
X210096883Y-75992035D01*
X210096883Y-75992035D02*
X210058788Y-76030131D01*
X210058788Y-76030131D02*
X209982597Y-76068226D01*
X209982597Y-76068226D02*
X209792121Y-76068226D01*
X209792121Y-76068226D02*
X209715931Y-76030131D01*
X209715931Y-76030131D02*
X209677835Y-75992035D01*
X209296883Y-78189178D02*
X209030217Y-78189178D01*
X209030217Y-78608226D02*
X209030217Y-77808226D01*
X209030217Y-77808226D02*
X209411169Y-77808226D01*
X210058788Y-77808226D02*
X209906407Y-77808226D01*
X209906407Y-77808226D02*
X209830216Y-77846321D01*
X209830216Y-77846321D02*
X209792121Y-77884416D01*
X209792121Y-77884416D02*
X209715931Y-77998702D01*
X209715931Y-77998702D02*
X209677835Y-78151083D01*
X209677835Y-78151083D02*
X209677835Y-78455845D01*
X209677835Y-78455845D02*
X209715931Y-78532035D01*
X209715931Y-78532035D02*
X209754026Y-78570131D01*
X209754026Y-78570131D02*
X209830216Y-78608226D01*
X209830216Y-78608226D02*
X209982597Y-78608226D01*
X209982597Y-78608226D02*
X210058788Y-78570131D01*
X210058788Y-78570131D02*
X210096883Y-78532035D01*
X210096883Y-78532035D02*
X210134978Y-78455845D01*
X210134978Y-78455845D02*
X210134978Y-78265369D01*
X210134978Y-78265369D02*
X210096883Y-78189178D01*
X210096883Y-78189178D02*
X210058788Y-78151083D01*
X210058788Y-78151083D02*
X209982597Y-78112988D01*
X209982597Y-78112988D02*
X209830216Y-78112988D01*
X209830216Y-78112988D02*
X209754026Y-78151083D01*
X209754026Y-78151083D02*
X209715931Y-78189178D01*
X209715931Y-78189178D02*
X209677835Y-78265369D01*
X209296883Y-80729178D02*
X209030217Y-80729178D01*
X209030217Y-81148226D02*
X209030217Y-80348226D01*
X209030217Y-80348226D02*
X209411169Y-80348226D01*
X209639740Y-80348226D02*
X210173074Y-80348226D01*
X210173074Y-80348226D02*
X209830216Y-81148226D01*
X209239740Y-83269178D02*
X209354026Y-83307273D01*
X209354026Y-83307273D02*
X209392121Y-83345369D01*
X209392121Y-83345369D02*
X209430217Y-83421559D01*
X209430217Y-83421559D02*
X209430217Y-83535845D01*
X209430217Y-83535845D02*
X209392121Y-83612035D01*
X209392121Y-83612035D02*
X209354026Y-83650131D01*
X209354026Y-83650131D02*
X209277836Y-83688226D01*
X209277836Y-83688226D02*
X208973074Y-83688226D01*
X208973074Y-83688226D02*
X208973074Y-82888226D01*
X208973074Y-82888226D02*
X209239740Y-82888226D01*
X209239740Y-82888226D02*
X209315931Y-82926321D01*
X209315931Y-82926321D02*
X209354026Y-82964416D01*
X209354026Y-82964416D02*
X209392121Y-83040607D01*
X209392121Y-83040607D02*
X209392121Y-83116797D01*
X209392121Y-83116797D02*
X209354026Y-83192988D01*
X209354026Y-83192988D02*
X209315931Y-83231083D01*
X209315931Y-83231083D02*
X209239740Y-83269178D01*
X209239740Y-83269178D02*
X208973074Y-83269178D01*
X210192121Y-83688226D02*
X209734978Y-83688226D01*
X209963550Y-83688226D02*
X209963550Y-82888226D01*
X209963550Y-82888226D02*
X209887359Y-83002511D01*
X209887359Y-83002511D02*
X209811169Y-83078702D01*
X209811169Y-83078702D02*
X209734978Y-83116797D01*
X209239740Y-85809178D02*
X209354026Y-85847273D01*
X209354026Y-85847273D02*
X209392121Y-85885369D01*
X209392121Y-85885369D02*
X209430217Y-85961559D01*
X209430217Y-85961559D02*
X209430217Y-86075845D01*
X209430217Y-86075845D02*
X209392121Y-86152035D01*
X209392121Y-86152035D02*
X209354026Y-86190131D01*
X209354026Y-86190131D02*
X209277836Y-86228226D01*
X209277836Y-86228226D02*
X208973074Y-86228226D01*
X208973074Y-86228226D02*
X208973074Y-85428226D01*
X208973074Y-85428226D02*
X209239740Y-85428226D01*
X209239740Y-85428226D02*
X209315931Y-85466321D01*
X209315931Y-85466321D02*
X209354026Y-85504416D01*
X209354026Y-85504416D02*
X209392121Y-85580607D01*
X209392121Y-85580607D02*
X209392121Y-85656797D01*
X209392121Y-85656797D02*
X209354026Y-85732988D01*
X209354026Y-85732988D02*
X209315931Y-85771083D01*
X209315931Y-85771083D02*
X209239740Y-85809178D01*
X209239740Y-85809178D02*
X208973074Y-85809178D01*
X209696883Y-85428226D02*
X210192121Y-85428226D01*
X210192121Y-85428226D02*
X209925455Y-85732988D01*
X209925455Y-85732988D02*
X210039740Y-85732988D01*
X210039740Y-85732988D02*
X210115931Y-85771083D01*
X210115931Y-85771083D02*
X210154026Y-85809178D01*
X210154026Y-85809178D02*
X210192121Y-85885369D01*
X210192121Y-85885369D02*
X210192121Y-86075845D01*
X210192121Y-86075845D02*
X210154026Y-86152035D01*
X210154026Y-86152035D02*
X210115931Y-86190131D01*
X210115931Y-86190131D02*
X210039740Y-86228226D01*
X210039740Y-86228226D02*
X209811169Y-86228226D01*
X209811169Y-86228226D02*
X209734978Y-86190131D01*
X209734978Y-86190131D02*
X209696883Y-86152035D01*
X209239740Y-88349178D02*
X209354026Y-88387273D01*
X209354026Y-88387273D02*
X209392121Y-88425369D01*
X209392121Y-88425369D02*
X209430217Y-88501559D01*
X209430217Y-88501559D02*
X209430217Y-88615845D01*
X209430217Y-88615845D02*
X209392121Y-88692035D01*
X209392121Y-88692035D02*
X209354026Y-88730131D01*
X209354026Y-88730131D02*
X209277836Y-88768226D01*
X209277836Y-88768226D02*
X208973074Y-88768226D01*
X208973074Y-88768226D02*
X208973074Y-87968226D01*
X208973074Y-87968226D02*
X209239740Y-87968226D01*
X209239740Y-87968226D02*
X209315931Y-88006321D01*
X209315931Y-88006321D02*
X209354026Y-88044416D01*
X209354026Y-88044416D02*
X209392121Y-88120607D01*
X209392121Y-88120607D02*
X209392121Y-88196797D01*
X209392121Y-88196797D02*
X209354026Y-88272988D01*
X209354026Y-88272988D02*
X209315931Y-88311083D01*
X209315931Y-88311083D02*
X209239740Y-88349178D01*
X209239740Y-88349178D02*
X208973074Y-88349178D01*
X209734978Y-88044416D02*
X209773074Y-88006321D01*
X209773074Y-88006321D02*
X209849264Y-87968226D01*
X209849264Y-87968226D02*
X210039740Y-87968226D01*
X210039740Y-87968226D02*
X210115931Y-88006321D01*
X210115931Y-88006321D02*
X210154026Y-88044416D01*
X210154026Y-88044416D02*
X210192121Y-88120607D01*
X210192121Y-88120607D02*
X210192121Y-88196797D01*
X210192121Y-88196797D02*
X210154026Y-88311083D01*
X210154026Y-88311083D02*
X209696883Y-88768226D01*
X209696883Y-88768226D02*
X210192121Y-88768226D01*
X209239740Y-90889178D02*
X209354026Y-90927273D01*
X209354026Y-90927273D02*
X209392121Y-90965369D01*
X209392121Y-90965369D02*
X209430217Y-91041559D01*
X209430217Y-91041559D02*
X209430217Y-91155845D01*
X209430217Y-91155845D02*
X209392121Y-91232035D01*
X209392121Y-91232035D02*
X209354026Y-91270131D01*
X209354026Y-91270131D02*
X209277836Y-91308226D01*
X209277836Y-91308226D02*
X208973074Y-91308226D01*
X208973074Y-91308226D02*
X208973074Y-90508226D01*
X208973074Y-90508226D02*
X209239740Y-90508226D01*
X209239740Y-90508226D02*
X209315931Y-90546321D01*
X209315931Y-90546321D02*
X209354026Y-90584416D01*
X209354026Y-90584416D02*
X209392121Y-90660607D01*
X209392121Y-90660607D02*
X209392121Y-90736797D01*
X209392121Y-90736797D02*
X209354026Y-90812988D01*
X209354026Y-90812988D02*
X209315931Y-90851083D01*
X209315931Y-90851083D02*
X209239740Y-90889178D01*
X209239740Y-90889178D02*
X208973074Y-90889178D01*
X210115931Y-90508226D02*
X209963550Y-90508226D01*
X209963550Y-90508226D02*
X209887359Y-90546321D01*
X209887359Y-90546321D02*
X209849264Y-90584416D01*
X209849264Y-90584416D02*
X209773074Y-90698702D01*
X209773074Y-90698702D02*
X209734978Y-90851083D01*
X209734978Y-90851083D02*
X209734978Y-91155845D01*
X209734978Y-91155845D02*
X209773074Y-91232035D01*
X209773074Y-91232035D02*
X209811169Y-91270131D01*
X209811169Y-91270131D02*
X209887359Y-91308226D01*
X209887359Y-91308226D02*
X210039740Y-91308226D01*
X210039740Y-91308226D02*
X210115931Y-91270131D01*
X210115931Y-91270131D02*
X210154026Y-91232035D01*
X210154026Y-91232035D02*
X210192121Y-91155845D01*
X210192121Y-91155845D02*
X210192121Y-90965369D01*
X210192121Y-90965369D02*
X210154026Y-90889178D01*
X210154026Y-90889178D02*
X210115931Y-90851083D01*
X210115931Y-90851083D02*
X210039740Y-90812988D01*
X210039740Y-90812988D02*
X209887359Y-90812988D01*
X209887359Y-90812988D02*
X209811169Y-90851083D01*
X209811169Y-90851083D02*
X209773074Y-90889178D01*
X209773074Y-90889178D02*
X209734978Y-90965369D01*
X218573074Y-63368226D02*
X218573074Y-62568226D01*
X218573074Y-62568226D02*
X218763550Y-62568226D01*
X218763550Y-62568226D02*
X218877836Y-62606321D01*
X218877836Y-62606321D02*
X218954026Y-62682511D01*
X218954026Y-62682511D02*
X218992121Y-62758702D01*
X218992121Y-62758702D02*
X219030217Y-62911083D01*
X219030217Y-62911083D02*
X219030217Y-63025369D01*
X219030217Y-63025369D02*
X218992121Y-63177750D01*
X218992121Y-63177750D02*
X218954026Y-63253940D01*
X218954026Y-63253940D02*
X218877836Y-63330131D01*
X218877836Y-63330131D02*
X218763550Y-63368226D01*
X218763550Y-63368226D02*
X218573074Y-63368226D01*
X219296883Y-62568226D02*
X219792121Y-62568226D01*
X219792121Y-62568226D02*
X219525455Y-62872988D01*
X219525455Y-62872988D02*
X219639740Y-62872988D01*
X219639740Y-62872988D02*
X219715931Y-62911083D01*
X219715931Y-62911083D02*
X219754026Y-62949178D01*
X219754026Y-62949178D02*
X219792121Y-63025369D01*
X219792121Y-63025369D02*
X219792121Y-63215845D01*
X219792121Y-63215845D02*
X219754026Y-63292035D01*
X219754026Y-63292035D02*
X219715931Y-63330131D01*
X219715931Y-63330131D02*
X219639740Y-63368226D01*
X219639740Y-63368226D02*
X219411169Y-63368226D01*
X219411169Y-63368226D02*
X219334978Y-63330131D01*
X219334978Y-63330131D02*
X219296883Y-63292035D01*
X218573074Y-65908226D02*
X218573074Y-65108226D01*
X218573074Y-65108226D02*
X218763550Y-65108226D01*
X218763550Y-65108226D02*
X218877836Y-65146321D01*
X218877836Y-65146321D02*
X218954026Y-65222511D01*
X218954026Y-65222511D02*
X218992121Y-65298702D01*
X218992121Y-65298702D02*
X219030217Y-65451083D01*
X219030217Y-65451083D02*
X219030217Y-65565369D01*
X219030217Y-65565369D02*
X218992121Y-65717750D01*
X218992121Y-65717750D02*
X218954026Y-65793940D01*
X218954026Y-65793940D02*
X218877836Y-65870131D01*
X218877836Y-65870131D02*
X218763550Y-65908226D01*
X218763550Y-65908226D02*
X218573074Y-65908226D01*
X219334978Y-65184416D02*
X219373074Y-65146321D01*
X219373074Y-65146321D02*
X219449264Y-65108226D01*
X219449264Y-65108226D02*
X219639740Y-65108226D01*
X219639740Y-65108226D02*
X219715931Y-65146321D01*
X219715931Y-65146321D02*
X219754026Y-65184416D01*
X219754026Y-65184416D02*
X219792121Y-65260607D01*
X219792121Y-65260607D02*
X219792121Y-65336797D01*
X219792121Y-65336797D02*
X219754026Y-65451083D01*
X219754026Y-65451083D02*
X219296883Y-65908226D01*
X219296883Y-65908226D02*
X219792121Y-65908226D01*
X218554026Y-67686321D02*
X218477836Y-67648226D01*
X218477836Y-67648226D02*
X218363550Y-67648226D01*
X218363550Y-67648226D02*
X218249264Y-67686321D01*
X218249264Y-67686321D02*
X218173074Y-67762511D01*
X218173074Y-67762511D02*
X218134979Y-67838702D01*
X218134979Y-67838702D02*
X218096883Y-67991083D01*
X218096883Y-67991083D02*
X218096883Y-68105369D01*
X218096883Y-68105369D02*
X218134979Y-68257750D01*
X218134979Y-68257750D02*
X218173074Y-68333940D01*
X218173074Y-68333940D02*
X218249264Y-68410131D01*
X218249264Y-68410131D02*
X218363550Y-68448226D01*
X218363550Y-68448226D02*
X218439741Y-68448226D01*
X218439741Y-68448226D02*
X218554026Y-68410131D01*
X218554026Y-68410131D02*
X218592122Y-68372035D01*
X218592122Y-68372035D02*
X218592122Y-68105369D01*
X218592122Y-68105369D02*
X218439741Y-68105369D01*
X218934979Y-68448226D02*
X218934979Y-67648226D01*
X218934979Y-67648226D02*
X219392122Y-68448226D01*
X219392122Y-68448226D02*
X219392122Y-67648226D01*
X219773074Y-68448226D02*
X219773074Y-67648226D01*
X219773074Y-67648226D02*
X219963550Y-67648226D01*
X219963550Y-67648226D02*
X220077836Y-67686321D01*
X220077836Y-67686321D02*
X220154026Y-67762511D01*
X220154026Y-67762511D02*
X220192121Y-67838702D01*
X220192121Y-67838702D02*
X220230217Y-67991083D01*
X220230217Y-67991083D02*
X220230217Y-68105369D01*
X220230217Y-68105369D02*
X220192121Y-68257750D01*
X220192121Y-68257750D02*
X220154026Y-68333940D01*
X220154026Y-68333940D02*
X220077836Y-68410131D01*
X220077836Y-68410131D02*
X219963550Y-68448226D01*
X219963550Y-68448226D02*
X219773074Y-68448226D01*
X218554026Y-70226321D02*
X218477836Y-70188226D01*
X218477836Y-70188226D02*
X218363550Y-70188226D01*
X218363550Y-70188226D02*
X218249264Y-70226321D01*
X218249264Y-70226321D02*
X218173074Y-70302511D01*
X218173074Y-70302511D02*
X218134979Y-70378702D01*
X218134979Y-70378702D02*
X218096883Y-70531083D01*
X218096883Y-70531083D02*
X218096883Y-70645369D01*
X218096883Y-70645369D02*
X218134979Y-70797750D01*
X218134979Y-70797750D02*
X218173074Y-70873940D01*
X218173074Y-70873940D02*
X218249264Y-70950131D01*
X218249264Y-70950131D02*
X218363550Y-70988226D01*
X218363550Y-70988226D02*
X218439741Y-70988226D01*
X218439741Y-70988226D02*
X218554026Y-70950131D01*
X218554026Y-70950131D02*
X218592122Y-70912035D01*
X218592122Y-70912035D02*
X218592122Y-70645369D01*
X218592122Y-70645369D02*
X218439741Y-70645369D01*
X218934979Y-70988226D02*
X218934979Y-70188226D01*
X218934979Y-70188226D02*
X219392122Y-70988226D01*
X219392122Y-70988226D02*
X219392122Y-70188226D01*
X219773074Y-70988226D02*
X219773074Y-70188226D01*
X219773074Y-70188226D02*
X219963550Y-70188226D01*
X219963550Y-70188226D02*
X220077836Y-70226321D01*
X220077836Y-70226321D02*
X220154026Y-70302511D01*
X220154026Y-70302511D02*
X220192121Y-70378702D01*
X220192121Y-70378702D02*
X220230217Y-70531083D01*
X220230217Y-70531083D02*
X220230217Y-70645369D01*
X220230217Y-70645369D02*
X220192121Y-70797750D01*
X220192121Y-70797750D02*
X220154026Y-70873940D01*
X220154026Y-70873940D02*
X220077836Y-70950131D01*
X220077836Y-70950131D02*
X219963550Y-70988226D01*
X219963550Y-70988226D02*
X219773074Y-70988226D01*
X218573074Y-73528226D02*
X218573074Y-72728226D01*
X218573074Y-72728226D02*
X218763550Y-72728226D01*
X218763550Y-72728226D02*
X218877836Y-72766321D01*
X218877836Y-72766321D02*
X218954026Y-72842511D01*
X218954026Y-72842511D02*
X218992121Y-72918702D01*
X218992121Y-72918702D02*
X219030217Y-73071083D01*
X219030217Y-73071083D02*
X219030217Y-73185369D01*
X219030217Y-73185369D02*
X218992121Y-73337750D01*
X218992121Y-73337750D02*
X218954026Y-73413940D01*
X218954026Y-73413940D02*
X218877836Y-73490131D01*
X218877836Y-73490131D02*
X218763550Y-73528226D01*
X218763550Y-73528226D02*
X218573074Y-73528226D01*
X219792121Y-73528226D02*
X219334978Y-73528226D01*
X219563550Y-73528226D02*
X219563550Y-72728226D01*
X219563550Y-72728226D02*
X219487359Y-72842511D01*
X219487359Y-72842511D02*
X219411169Y-72918702D01*
X219411169Y-72918702D02*
X219334978Y-72956797D01*
X218573074Y-76068226D02*
X218573074Y-75268226D01*
X218573074Y-75268226D02*
X218763550Y-75268226D01*
X218763550Y-75268226D02*
X218877836Y-75306321D01*
X218877836Y-75306321D02*
X218954026Y-75382511D01*
X218954026Y-75382511D02*
X218992121Y-75458702D01*
X218992121Y-75458702D02*
X219030217Y-75611083D01*
X219030217Y-75611083D02*
X219030217Y-75725369D01*
X219030217Y-75725369D02*
X218992121Y-75877750D01*
X218992121Y-75877750D02*
X218954026Y-75953940D01*
X218954026Y-75953940D02*
X218877836Y-76030131D01*
X218877836Y-76030131D02*
X218763550Y-76068226D01*
X218763550Y-76068226D02*
X218573074Y-76068226D01*
X219525455Y-75268226D02*
X219601645Y-75268226D01*
X219601645Y-75268226D02*
X219677836Y-75306321D01*
X219677836Y-75306321D02*
X219715931Y-75344416D01*
X219715931Y-75344416D02*
X219754026Y-75420607D01*
X219754026Y-75420607D02*
X219792121Y-75572988D01*
X219792121Y-75572988D02*
X219792121Y-75763464D01*
X219792121Y-75763464D02*
X219754026Y-75915845D01*
X219754026Y-75915845D02*
X219715931Y-75992035D01*
X219715931Y-75992035D02*
X219677836Y-76030131D01*
X219677836Y-76030131D02*
X219601645Y-76068226D01*
X219601645Y-76068226D02*
X219525455Y-76068226D01*
X219525455Y-76068226D02*
X219449264Y-76030131D01*
X219449264Y-76030131D02*
X219411169Y-75992035D01*
X219411169Y-75992035D02*
X219373074Y-75915845D01*
X219373074Y-75915845D02*
X219334978Y-75763464D01*
X219334978Y-75763464D02*
X219334978Y-75572988D01*
X219334978Y-75572988D02*
X219373074Y-75420607D01*
X219373074Y-75420607D02*
X219411169Y-75344416D01*
X219411169Y-75344416D02*
X219449264Y-75306321D01*
X219449264Y-75306321D02*
X219525455Y-75268226D01*
X218573074Y-78608226D02*
X218573074Y-77808226D01*
X218573074Y-77808226D02*
X218763550Y-77808226D01*
X218763550Y-77808226D02*
X218877836Y-77846321D01*
X218877836Y-77846321D02*
X218954026Y-77922511D01*
X218954026Y-77922511D02*
X218992121Y-77998702D01*
X218992121Y-77998702D02*
X219030217Y-78151083D01*
X219030217Y-78151083D02*
X219030217Y-78265369D01*
X219030217Y-78265369D02*
X218992121Y-78417750D01*
X218992121Y-78417750D02*
X218954026Y-78493940D01*
X218954026Y-78493940D02*
X218877836Y-78570131D01*
X218877836Y-78570131D02*
X218763550Y-78608226D01*
X218763550Y-78608226D02*
X218573074Y-78608226D01*
X219715931Y-78074892D02*
X219715931Y-78608226D01*
X219525455Y-77770131D02*
X219334978Y-78341559D01*
X219334978Y-78341559D02*
X219830217Y-78341559D01*
X219030217Y-81072035D02*
X218992121Y-81110131D01*
X218992121Y-81110131D02*
X218877836Y-81148226D01*
X218877836Y-81148226D02*
X218801645Y-81148226D01*
X218801645Y-81148226D02*
X218687359Y-81110131D01*
X218687359Y-81110131D02*
X218611169Y-81033940D01*
X218611169Y-81033940D02*
X218573074Y-80957750D01*
X218573074Y-80957750D02*
X218534978Y-80805369D01*
X218534978Y-80805369D02*
X218534978Y-80691083D01*
X218534978Y-80691083D02*
X218573074Y-80538702D01*
X218573074Y-80538702D02*
X218611169Y-80462511D01*
X218611169Y-80462511D02*
X218687359Y-80386321D01*
X218687359Y-80386321D02*
X218801645Y-80348226D01*
X218801645Y-80348226D02*
X218877836Y-80348226D01*
X218877836Y-80348226D02*
X218992121Y-80386321D01*
X218992121Y-80386321D02*
X219030217Y-80424416D01*
X219715931Y-80348226D02*
X219563550Y-80348226D01*
X219563550Y-80348226D02*
X219487359Y-80386321D01*
X219487359Y-80386321D02*
X219449264Y-80424416D01*
X219449264Y-80424416D02*
X219373074Y-80538702D01*
X219373074Y-80538702D02*
X219334978Y-80691083D01*
X219334978Y-80691083D02*
X219334978Y-80995845D01*
X219334978Y-80995845D02*
X219373074Y-81072035D01*
X219373074Y-81072035D02*
X219411169Y-81110131D01*
X219411169Y-81110131D02*
X219487359Y-81148226D01*
X219487359Y-81148226D02*
X219639740Y-81148226D01*
X219639740Y-81148226D02*
X219715931Y-81110131D01*
X219715931Y-81110131D02*
X219754026Y-81072035D01*
X219754026Y-81072035D02*
X219792121Y-80995845D01*
X219792121Y-80995845D02*
X219792121Y-80805369D01*
X219792121Y-80805369D02*
X219754026Y-80729178D01*
X219754026Y-80729178D02*
X219715931Y-80691083D01*
X219715931Y-80691083D02*
X219639740Y-80652988D01*
X219639740Y-80652988D02*
X219487359Y-80652988D01*
X219487359Y-80652988D02*
X219411169Y-80691083D01*
X219411169Y-80691083D02*
X219373074Y-80729178D01*
X219373074Y-80729178D02*
X219334978Y-80805369D01*
X218573074Y-83688226D02*
X218573074Y-82888226D01*
X218573074Y-82888226D02*
X218763550Y-82888226D01*
X218763550Y-82888226D02*
X218877836Y-82926321D01*
X218877836Y-82926321D02*
X218954026Y-83002511D01*
X218954026Y-83002511D02*
X218992121Y-83078702D01*
X218992121Y-83078702D02*
X219030217Y-83231083D01*
X219030217Y-83231083D02*
X219030217Y-83345369D01*
X219030217Y-83345369D02*
X218992121Y-83497750D01*
X218992121Y-83497750D02*
X218954026Y-83573940D01*
X218954026Y-83573940D02*
X218877836Y-83650131D01*
X218877836Y-83650131D02*
X218763550Y-83688226D01*
X218763550Y-83688226D02*
X218573074Y-83688226D01*
X219296883Y-82888226D02*
X219830217Y-82888226D01*
X219830217Y-82888226D02*
X219487359Y-83688226D01*
X218611169Y-85809178D02*
X218877835Y-85809178D01*
X218992121Y-86228226D02*
X218611169Y-86228226D01*
X218611169Y-86228226D02*
X218611169Y-85428226D01*
X218611169Y-85428226D02*
X218992121Y-85428226D01*
X219677836Y-85428226D02*
X219525455Y-85428226D01*
X219525455Y-85428226D02*
X219449264Y-85466321D01*
X219449264Y-85466321D02*
X219411169Y-85504416D01*
X219411169Y-85504416D02*
X219334979Y-85618702D01*
X219334979Y-85618702D02*
X219296883Y-85771083D01*
X219296883Y-85771083D02*
X219296883Y-86075845D01*
X219296883Y-86075845D02*
X219334979Y-86152035D01*
X219334979Y-86152035D02*
X219373074Y-86190131D01*
X219373074Y-86190131D02*
X219449264Y-86228226D01*
X219449264Y-86228226D02*
X219601645Y-86228226D01*
X219601645Y-86228226D02*
X219677836Y-86190131D01*
X219677836Y-86190131D02*
X219715931Y-86152035D01*
X219715931Y-86152035D02*
X219754026Y-86075845D01*
X219754026Y-86075845D02*
X219754026Y-85885369D01*
X219754026Y-85885369D02*
X219715931Y-85809178D01*
X219715931Y-85809178D02*
X219677836Y-85771083D01*
X219677836Y-85771083D02*
X219601645Y-85732988D01*
X219601645Y-85732988D02*
X219449264Y-85732988D01*
X219449264Y-85732988D02*
X219373074Y-85771083D01*
X219373074Y-85771083D02*
X219334979Y-85809178D01*
X219334979Y-85809178D02*
X219296883Y-85885369D01*
X218839740Y-88349178D02*
X218954026Y-88387273D01*
X218954026Y-88387273D02*
X218992121Y-88425369D01*
X218992121Y-88425369D02*
X219030217Y-88501559D01*
X219030217Y-88501559D02*
X219030217Y-88615845D01*
X219030217Y-88615845D02*
X218992121Y-88692035D01*
X218992121Y-88692035D02*
X218954026Y-88730131D01*
X218954026Y-88730131D02*
X218877836Y-88768226D01*
X218877836Y-88768226D02*
X218573074Y-88768226D01*
X218573074Y-88768226D02*
X218573074Y-87968226D01*
X218573074Y-87968226D02*
X218839740Y-87968226D01*
X218839740Y-87968226D02*
X218915931Y-88006321D01*
X218915931Y-88006321D02*
X218954026Y-88044416D01*
X218954026Y-88044416D02*
X218992121Y-88120607D01*
X218992121Y-88120607D02*
X218992121Y-88196797D01*
X218992121Y-88196797D02*
X218954026Y-88272988D01*
X218954026Y-88272988D02*
X218915931Y-88311083D01*
X218915931Y-88311083D02*
X218839740Y-88349178D01*
X218839740Y-88349178D02*
X218573074Y-88349178D01*
X219715931Y-88234892D02*
X219715931Y-88768226D01*
X219525455Y-87930131D02*
X219334978Y-88501559D01*
X219334978Y-88501559D02*
X219830217Y-88501559D01*
X218839740Y-90889178D02*
X218954026Y-90927273D01*
X218954026Y-90927273D02*
X218992121Y-90965369D01*
X218992121Y-90965369D02*
X219030217Y-91041559D01*
X219030217Y-91041559D02*
X219030217Y-91155845D01*
X219030217Y-91155845D02*
X218992121Y-91232035D01*
X218992121Y-91232035D02*
X218954026Y-91270131D01*
X218954026Y-91270131D02*
X218877836Y-91308226D01*
X218877836Y-91308226D02*
X218573074Y-91308226D01*
X218573074Y-91308226D02*
X218573074Y-90508226D01*
X218573074Y-90508226D02*
X218839740Y-90508226D01*
X218839740Y-90508226D02*
X218915931Y-90546321D01*
X218915931Y-90546321D02*
X218954026Y-90584416D01*
X218954026Y-90584416D02*
X218992121Y-90660607D01*
X218992121Y-90660607D02*
X218992121Y-90736797D01*
X218992121Y-90736797D02*
X218954026Y-90812988D01*
X218954026Y-90812988D02*
X218915931Y-90851083D01*
X218915931Y-90851083D02*
X218839740Y-90889178D01*
X218839740Y-90889178D02*
X218573074Y-90889178D01*
X219754026Y-90508226D02*
X219373074Y-90508226D01*
X219373074Y-90508226D02*
X219334978Y-90889178D01*
X219334978Y-90889178D02*
X219373074Y-90851083D01*
X219373074Y-90851083D02*
X219449264Y-90812988D01*
X219449264Y-90812988D02*
X219639740Y-90812988D01*
X219639740Y-90812988D02*
X219715931Y-90851083D01*
X219715931Y-90851083D02*
X219754026Y-90889178D01*
X219754026Y-90889178D02*
X219792121Y-90965369D01*
X219792121Y-90965369D02*
X219792121Y-91155845D01*
X219792121Y-91155845D02*
X219754026Y-91232035D01*
X219754026Y-91232035D02*
X219715931Y-91270131D01*
X219715931Y-91270131D02*
X219639740Y-91308226D01*
X219639740Y-91308226D02*
X219449264Y-91308226D01*
X219449264Y-91308226D02*
X219373074Y-91270131D01*
X219373074Y-91270131D02*
X219334978Y-91232035D01*
D12*
%TO.C,D1*%
X98464431Y-130294381D02*
X98934277Y-130123371D01*
X98601239Y-130670258D02*
X97900616Y-130499593D01*
X98327623Y-129918504D02*
X98601239Y-130670258D01*
X97900616Y-130499593D02*
X98327623Y-129918504D01*
X97900616Y-130499593D02*
X98088727Y-131016424D01*
X97900616Y-130499593D02*
X97712505Y-129982762D01*
X97524739Y-130636401D02*
X97900616Y-130499593D01*
%TO.C,D2*%
X92308067Y-113379908D02*
X92777913Y-113208898D01*
X92444875Y-113755785D02*
X91744252Y-113585120D01*
X92171259Y-113004031D02*
X92444875Y-113755785D01*
X91744252Y-113585120D02*
X92171259Y-113004031D01*
X91744252Y-113585120D02*
X91932363Y-114101951D01*
X91744252Y-113585120D02*
X91556141Y-113068289D01*
X91368375Y-113721928D02*
X91744252Y-113585120D01*
%TO.C,D3*%
X86151702Y-96465443D02*
X86621548Y-96294433D01*
X86288510Y-96841320D02*
X85587887Y-96670655D01*
X86014894Y-96089566D02*
X86288510Y-96841320D01*
X85587887Y-96670655D02*
X86014894Y-96089566D01*
X85587887Y-96670655D02*
X85775998Y-97187486D01*
X85587887Y-96670655D02*
X85399776Y-96153824D01*
X85212010Y-96807463D02*
X85587887Y-96670655D01*
%TO.C,D4*%
X116318589Y-123795991D02*
X116788435Y-123624981D01*
X116455397Y-124171868D02*
X115754774Y-124001203D01*
X116181781Y-123420114D02*
X116455397Y-124171868D01*
X115754774Y-124001203D02*
X116181781Y-123420114D01*
X115754774Y-124001203D02*
X115942885Y-124518034D01*
X115754774Y-124001203D02*
X115566663Y-123484372D01*
X115378897Y-124138011D02*
X115754774Y-124001203D01*
%TO.C,D5*%
X110162228Y-106881526D02*
X110632074Y-106710516D01*
X110299036Y-107257403D02*
X109598413Y-107086738D01*
X110025420Y-106505649D02*
X110299036Y-107257403D01*
X109598413Y-107086738D02*
X110025420Y-106505649D01*
X109598413Y-107086738D02*
X109786524Y-107603569D01*
X109598413Y-107086738D02*
X109410302Y-106569907D01*
X109222536Y-107223546D02*
X109598413Y-107086738D01*
%TO.C,D6*%
X104005862Y-89967055D02*
X104475708Y-89796045D01*
X104142670Y-90342932D02*
X103442047Y-90172267D01*
X103869054Y-89591178D02*
X104142670Y-90342932D01*
X103442047Y-90172267D02*
X103869054Y-89591178D01*
X103442047Y-90172267D02*
X103630158Y-90689098D01*
X103442047Y-90172267D02*
X103253936Y-89655436D01*
X103066170Y-90309075D02*
X103442047Y-90172267D01*
%TO.C,D7*%
X133421944Y-115917782D02*
X133808314Y-115814255D01*
X133808314Y-115814255D02*
X133665963Y-115282995D01*
X133808314Y-115814255D02*
X133950664Y-116345514D01*
X133808314Y-115814255D02*
X134284342Y-115272593D01*
X134284342Y-115272593D02*
X134491397Y-116045334D01*
X134491397Y-116045334D02*
X133808314Y-115814255D01*
X134387869Y-115658963D02*
X134870832Y-115529554D01*
%TO.C,D8*%
X129729122Y-98272303D02*
X130212085Y-98142894D01*
X129832650Y-98658674D02*
X129149567Y-98427595D01*
X129625595Y-97885933D02*
X129832650Y-98658674D01*
X129149567Y-98427595D02*
X129625595Y-97885933D01*
X129149567Y-98427595D02*
X129291917Y-98958854D01*
X129149567Y-98427595D02*
X129007216Y-97896335D01*
X128763197Y-98531122D02*
X129149567Y-98427595D01*
%TO.C,D9*%
X125070379Y-80885634D02*
X125553342Y-80756225D01*
X125173907Y-81272005D02*
X124490824Y-81040926D01*
X124966852Y-80499264D02*
X125173907Y-81272005D01*
X124490824Y-81040926D02*
X124966852Y-80499264D01*
X124490824Y-81040926D02*
X124633174Y-81572185D01*
X124490824Y-81040926D02*
X124348473Y-80509666D01*
X124104454Y-81144453D02*
X124490824Y-81040926D01*
%TO.C,D10*%
X152578141Y-111823034D02*
X153070545Y-111736210D01*
X152647600Y-112216957D02*
X151987256Y-111927223D01*
X152508682Y-111429111D02*
X152647600Y-112216957D01*
X151987256Y-111927223D02*
X152508682Y-111429111D01*
X151987256Y-111927223D02*
X152082763Y-112468867D01*
X151987256Y-111927223D02*
X151891750Y-111385579D01*
X151593333Y-111996682D02*
X151987256Y-111927223D01*
%TO.C,D11*%
X149452479Y-94096496D02*
X149944883Y-94009672D01*
X149521938Y-94490419D02*
X148861594Y-94200685D01*
X149383020Y-93702573D02*
X149521938Y-94490419D01*
X148861594Y-94200685D02*
X149383020Y-93702573D01*
X148861594Y-94200685D02*
X148957101Y-94742329D01*
X148861594Y-94200685D02*
X148766088Y-93659041D01*
X148467671Y-94270144D02*
X148861594Y-94200685D01*
%TO.C,D12*%
X146326806Y-76369952D02*
X146819210Y-76283128D01*
X146396265Y-76763875D02*
X145735921Y-76474141D01*
X146257347Y-75976029D02*
X146396265Y-76763875D01*
X145735921Y-76474141D02*
X146257347Y-75976029D01*
X145735921Y-76474141D02*
X145831428Y-77015785D01*
X145735921Y-76474141D02*
X145640415Y-75932497D01*
X145341998Y-76543600D02*
X145735921Y-76474141D01*
%TO.C,D13*%
X171033527Y-109587080D02*
X171531624Y-109543502D01*
X171068389Y-109985558D02*
X170435810Y-109639374D01*
X170998664Y-109188602D02*
X171068389Y-109985558D01*
X170435810Y-109639374D02*
X170998664Y-109188602D01*
X170435810Y-109639374D02*
X170483746Y-110187281D01*
X170435810Y-109639374D02*
X170387874Y-109091466D01*
X170037332Y-109674236D02*
X170435810Y-109639374D01*
%TO.C,D14*%
X169464719Y-91655575D02*
X169962816Y-91611997D01*
X169499581Y-92054053D02*
X168867002Y-91707869D01*
X169429856Y-91257097D02*
X169499581Y-92054053D01*
X168867002Y-91707869D02*
X169429856Y-91257097D01*
X168867002Y-91707869D02*
X168914938Y-92255776D01*
X168867002Y-91707869D02*
X168819066Y-91159961D01*
X168468524Y-91742731D02*
X168867002Y-91707869D01*
%TO.C,D15*%
X167895916Y-73724073D02*
X168394013Y-73680495D01*
X167930778Y-74122551D02*
X167298199Y-73776367D01*
X167861053Y-73325595D02*
X167930778Y-74122551D01*
X167298199Y-73776367D02*
X167861053Y-73325595D01*
X167298199Y-73776367D02*
X167346135Y-74324274D01*
X167298199Y-73776367D02*
X167250263Y-73228459D01*
X166899721Y-73811229D02*
X167298199Y-73776367D01*
%TO.C,D16*%
X189613546Y-108968133D02*
X190113546Y-108968133D01*
X189613546Y-109368133D02*
X189013546Y-108968133D01*
X189613546Y-108568133D02*
X189613546Y-109368133D01*
X189013546Y-108968133D02*
X189613546Y-108568133D01*
X189013546Y-108968133D02*
X189013546Y-109518133D01*
X189013546Y-108968133D02*
X189013546Y-108418133D01*
X188613546Y-108968133D02*
X189013546Y-108968133D01*
%TO.C,D17*%
X189613549Y-90968133D02*
X190113549Y-90968133D01*
X189613549Y-91368133D02*
X189013549Y-90968133D01*
X189613549Y-90568133D02*
X189613549Y-91368133D01*
X189013549Y-90968133D02*
X189613549Y-90568133D01*
X189013549Y-90968133D02*
X189013549Y-91518133D01*
X189013549Y-90968133D02*
X189013549Y-90418133D01*
X188613549Y-90968133D02*
X189013549Y-90968133D01*
%TO.C,D18*%
X189613551Y-72968133D02*
X190113551Y-72968133D01*
X189613551Y-73368133D02*
X189013551Y-72968133D01*
X189613551Y-72568133D02*
X189613551Y-73368133D01*
X189013551Y-72968133D02*
X189613551Y-72568133D01*
X189013551Y-72968133D02*
X189013551Y-73518133D01*
X189013551Y-72968133D02*
X189013551Y-72418133D01*
X188613551Y-72968133D02*
X189013551Y-72968133D01*
%TO.C,D19*%
X182613550Y-131968134D02*
X183113550Y-131968134D01*
X182613550Y-132368134D02*
X182013550Y-131968134D01*
X182613550Y-131568134D02*
X182613550Y-132368134D01*
X182013550Y-131968134D02*
X182613550Y-131568134D01*
X182013550Y-131968134D02*
X182013550Y-132518134D01*
X182013550Y-131968134D02*
X182013550Y-131418134D01*
X181613550Y-131968134D02*
X182013550Y-131968134D01*
%TO.C,D20*%
X201613549Y-131968138D02*
X202113549Y-131968138D01*
X201613549Y-132368138D02*
X201013549Y-131968138D01*
X201613549Y-131568138D02*
X201613549Y-132368138D01*
X201013549Y-131968138D02*
X201613549Y-131568138D01*
X201013549Y-131968138D02*
X201013549Y-132518138D01*
X201013549Y-131968138D02*
X201013549Y-131418138D01*
X200613549Y-131968138D02*
X201013549Y-131968138D01*
%TO.C,D21*%
X220613552Y-131968130D02*
X221113552Y-131968130D01*
X220613552Y-132368130D02*
X220013552Y-131968130D01*
X220613552Y-131568130D02*
X220613552Y-132368130D01*
X220013552Y-131968130D02*
X220613552Y-131568130D01*
X220013552Y-131968130D02*
X220013552Y-132518130D01*
X220013552Y-131968130D02*
X220013552Y-131418130D01*
X219613552Y-131968130D02*
X220013552Y-131968130D01*
D10*
%TO.C,MCU1*%
X205473550Y-59188131D02*
X205473550Y-92208131D01*
X205473550Y-92208131D02*
X223253550Y-92208131D01*
X223253550Y-92208131D02*
X223253550Y-59188131D01*
X223253550Y-59188131D02*
X205473550Y-59188131D01*
X208013550Y-61728131D02*
X208013550Y-64268131D01*
X208013550Y-61728131D02*
X205473550Y-61728131D01*
X208013550Y-64268131D02*
X205473550Y-64268131D01*
%TO.C,B1*%
X211113549Y-105218135D02*
X209613549Y-106718135D01*
X211113549Y-102718135D02*
X209613549Y-101218135D01*
X211113549Y-102718135D02*
X211113549Y-105218135D01*
X207113549Y-106718135D02*
X209613549Y-106718135D01*
X207113549Y-101218135D02*
X209613549Y-101218135D01*
X205613549Y-105218135D02*
X207113549Y-106718135D01*
X205613549Y-102718135D02*
X207113549Y-101218135D01*
X205613549Y-102718135D02*
X205613549Y-105218135D01*
%TD*%
D13*
%TO.C,MCU1*%
X206743550Y-62998131D03*
D14*
X206743550Y-65538131D03*
X206743550Y-68078131D03*
X206743550Y-70618131D03*
X206743550Y-73158131D03*
X206743550Y-75698131D03*
X206743550Y-78238131D03*
X206743550Y-80778131D03*
X206743550Y-83318131D03*
X206743550Y-85858131D03*
X206743550Y-88398131D03*
X206743550Y-90938131D03*
X221983550Y-62998131D03*
X221983550Y-65538131D03*
X221983550Y-68078131D03*
X221983550Y-70618131D03*
X221983550Y-73158131D03*
X221983550Y-75698131D03*
X221983550Y-78238131D03*
X221983550Y-80778131D03*
X221983550Y-83318131D03*
X221983550Y-85858131D03*
X221983550Y-88398131D03*
X221983550Y-90938131D03*
%TD*%
M02*
