<?xml version="1.0" standalone="no"?>
 <!DOCTYPE svg PUBLIC "-//W3C//DTD SVG 1.1//EN" 
 "http://www.w3.org/Graphics/SVG/1.1/DTD/svg11.dtd"> 
<svg
  xmlns:svg="http://www.w3.org/2000/svg"
  xmlns="http://www.w3.org/2000/svg"
  xmlns:xlink="http://www.w3.org/1999/xlink"
  version="1.1"
  width="419.9890mm" height="297.0022mm" viewBox="0.0000 0.0000 419.9890 297.0022">
<title>SVG Image created as paul-Edge_Cuts.svg date 2023/07/23 14:19:39 </title>
  <desc>Image generated by PCBNEW </desc>
<g style="fill:#000000; fill-opacity:1.0000;stroke:#000000; stroke-opacity:1.0000;
stroke-linecap:round; stroke-linejoin:round;"
 transform="translate(0 0) scale(1 1)">
</g>
<g style="fill:#000000; fill-opacity:0.0; 
stroke:#000000; stroke-width:0.0000; stroke-opacity:1; 
stroke-linecap:round; stroke-linejoin:round;">
</g>
<g style="fill:#000000; fill-opacity:0.0; 
stroke:#000000; stroke-width:0.0212; stroke-opacity:1; 
stroke-linecap:round; stroke-linejoin:round;">
</g>
<g style="fill:#000000; fill-opacity:0.0; 
stroke:#000000; stroke-width:0.1500; stroke-opacity:1; 
stroke-linecap:round; stroke-linejoin:round;">
<path d="M299.9890 253.0022
L407.9890 253.0022
L407.9890 285.0022
L299.9890 285.0022
L299.9890 253.0022
" />
</g>
<g style="fill:#000000; fill-opacity:0.0; 
stroke:#000000; stroke-width:0.0212; stroke-opacity:1; 
stroke-linecap:round; stroke-linejoin:round;">
</g>
<g style="fill:#000000; fill-opacity:0.0; 
stroke:#000000; stroke-width:0.1500; stroke-opacity:1; 
stroke-linecap:round; stroke-linejoin:round;">
<path d="M10.0000 10.0000
L409.9890 10.0000
L409.9890 287.0022
L10.0000 287.0022
L10.0000 10.0000
" />
</g>
<g style="fill:#000000; fill-opacity:0.0; 
stroke:#000000; stroke-width:0.0212; stroke-opacity:1; 
stroke-linecap:round; stroke-linejoin:round;">
</g>
<g style="fill:#000000; fill-opacity:0.0; 
stroke:#000000; stroke-width:0.1500; stroke-opacity:1; 
stroke-linecap:round; stroke-linejoin:round;">
<path d="M12.0000 12.0000
L407.9890 12.0000
L407.9890 285.0022
L12.0000 285.0022
L12.0000 12.0000
" />
</g>
<g style="fill:#000000; fill-opacity:0.0; 
stroke:#000000; stroke-width:0.0212; stroke-opacity:1; 
stroke-linecap:round; stroke-linejoin:round;">
</g>
<g style="fill:#000000; fill-opacity:0.0; 
stroke:#000000; stroke-width:0.1500; stroke-opacity:1; 
stroke-linecap:round; stroke-linejoin:round;">
<path d="M60.0000 12.0000
L60.0000 10.0000
" />
</g>
<g style="fill:#000000; fill-opacity:0.0; 
stroke:#000000; stroke-width:0.0212; stroke-opacity:1; 
stroke-linecap:round; stroke-linejoin:round;">
</g>
<g style="fill:#000000; fill-opacity:0.0; 
stroke:#000000; stroke-width:0.1500; stroke-opacity:1; 
stroke-linecap:round; stroke-linejoin:round;">
<path d="M110.0000 12.0000
L110.0000 10.0000
" />
</g>
<g style="fill:#000000; fill-opacity:0.0; 
stroke:#000000; stroke-width:0.0212; stroke-opacity:1; 
stroke-linecap:round; stroke-linejoin:round;">
</g>
<g style="fill:#000000; fill-opacity:0.0; 
stroke:#000000; stroke-width:0.1500; stroke-opacity:1; 
stroke-linecap:round; stroke-linejoin:round;">
<path d="M160.0000 12.0000
L160.0000 10.0000
" />
</g>
<g style="fill:#000000; fill-opacity:0.0; 
stroke:#000000; stroke-width:0.0212; stroke-opacity:1; 
stroke-linecap:round; stroke-linejoin:round;">
</g>
<g style="fill:#000000; fill-opacity:0.0; 
stroke:#000000; stroke-width:0.1500; stroke-opacity:1; 
stroke-linecap:round; stroke-linejoin:round;">
<path d="M210.0000 12.0000
L210.0000 10.0000
" />
</g>
<g style="fill:#000000; fill-opacity:0.0; 
stroke:#000000; stroke-width:0.0212; stroke-opacity:1; 
stroke-linecap:round; stroke-linejoin:round;">
</g>
<g style="fill:#000000; fill-opacity:0.0; 
stroke:#000000; stroke-width:0.1500; stroke-opacity:1; 
stroke-linecap:round; stroke-linejoin:round;">
<path d="M260.0000 12.0000
L260.0000 10.0000
" />
</g>
<g style="fill:#000000; fill-opacity:0.0; 
stroke:#000000; stroke-width:0.0212; stroke-opacity:1; 
stroke-linecap:round; stroke-linejoin:round;">
</g>
<g style="fill:#000000; fill-opacity:0.0; 
stroke:#000000; stroke-width:0.1500; stroke-opacity:1; 
stroke-linecap:round; stroke-linejoin:round;">
<path d="M310.0000 12.0000
L310.0000 10.0000
" />
</g>
<g style="fill:#000000; fill-opacity:0.0; 
stroke:#000000; stroke-width:0.0212; stroke-opacity:1; 
stroke-linecap:round; stroke-linejoin:round;">
</g>
<g style="fill:#000000; fill-opacity:0.0; 
stroke:#000000; stroke-width:0.1500; stroke-opacity:1; 
stroke-linecap:round; stroke-linejoin:round;">
<path d="M360.0000 12.0000
L360.0000 10.0000
" />
</g>
<g style="fill:#000000; fill-opacity:0.0; 
stroke:#000000; stroke-width:0.0212; stroke-opacity:1; 
stroke-linecap:round; stroke-linejoin:round;">
</g>
<g style="fill:#000000; fill-opacity:0.0; 
stroke:#000000; stroke-width:0.1500; stroke-opacity:1; 
stroke-linecap:round; stroke-linejoin:round;">
<text x="35.0000" y="11.6500"
textLength="1.3531" font-size="1.7333" lengthAdjust="spacingAndGlyphs"
text-anchor="start" opacity="0">1</text>
<g class="stroked-text"><desc>1</desc>
<path d="M35.9905 11.6014
L35.2476 11.6014
" />
<path d="M35.6190 11.6014
L35.6190 10.3014
" />
<path d="M35.6190 10.3014
L35.4952 10.4871
" />
<path d="M35.4952 10.4871
L35.3714 10.6109
" />
<path d="M35.3714 10.6109
L35.2476 10.6728
" />
</g></g>
<g style="fill:#000000; fill-opacity:0.0; 
stroke:#000000; stroke-width:0.0212; stroke-opacity:1; 
stroke-linecap:round; stroke-linejoin:round;">
</g>
<g style="fill:#000000; fill-opacity:0.0; 
stroke:#000000; stroke-width:0.1500; stroke-opacity:1; 
stroke-linecap:round; stroke-linejoin:round;">
<text x="85.0000" y="11.6500"
textLength="1.3531" font-size="1.7333" lengthAdjust="spacingAndGlyphs"
text-anchor="start" opacity="0">2</text>
<g class="stroked-text"><desc>2</desc>
<path d="M85.2476 10.4252
L85.3095 10.3633
" />
<path d="M85.3095 10.3633
L85.4333 10.3014
" />
<path d="M85.4333 10.3014
L85.7429 10.3014
" />
<path d="M85.7429 10.3014
L85.8667 10.3633
" />
<path d="M85.8667 10.3633
L85.9286 10.4252
" />
<path d="M85.9286 10.4252
L85.9905 10.5490
" />
<path d="M85.9905 10.5490
L85.9905 10.6728
" />
<path d="M85.9905 10.6728
L85.9286 10.8585
" />
<path d="M85.9286 10.8585
L85.1857 11.6014
" />
<path d="M85.1857 11.6014
L85.9905 11.6014
" />
</g></g>
<g style="fill:#000000; fill-opacity:0.0; 
stroke:#000000; stroke-width:0.0212; stroke-opacity:1; 
stroke-linecap:round; stroke-linejoin:round;">
</g>
<g style="fill:#000000; fill-opacity:0.0; 
stroke:#000000; stroke-width:0.1500; stroke-opacity:1; 
stroke-linecap:round; stroke-linejoin:round;">
<text x="135.0000" y="11.6500"
textLength="1.3531" font-size="1.7333" lengthAdjust="spacingAndGlyphs"
text-anchor="start" opacity="0">3</text>
<g class="stroked-text"><desc>3</desc>
<path d="M135.1857 10.3014
L135.9905 10.3014
" />
<path d="M135.9905 10.3014
L135.5571 10.7966
" />
<path d="M135.5571 10.7966
L135.7429 10.7966
" />
<path d="M135.7429 10.7966
L135.8667 10.8585
" />
<path d="M135.8667 10.8585
L135.9286 10.9205
" />
<path d="M135.9286 10.9205
L135.9905 11.0443
" />
<path d="M135.9905 11.0443
L135.9905 11.3538
" />
<path d="M135.9905 11.3538
L135.9286 11.4776
" />
<path d="M135.9286 11.4776
L135.8667 11.5395
" />
<path d="M135.8667 11.5395
L135.7429 11.6014
" />
<path d="M135.7429 11.6014
L135.3714 11.6014
" />
<path d="M135.3714 11.6014
L135.2476 11.5395
" />
<path d="M135.2476 11.5395
L135.1857 11.4776
" />
</g></g>
<g style="fill:#000000; fill-opacity:0.0; 
stroke:#000000; stroke-width:0.0212; stroke-opacity:1; 
stroke-linecap:round; stroke-linejoin:round;">
</g>
<g style="fill:#000000; fill-opacity:0.0; 
stroke:#000000; stroke-width:0.1500; stroke-opacity:1; 
stroke-linecap:round; stroke-linejoin:round;">
<text x="185.0000" y="11.6500"
textLength="1.3531" font-size="1.7333" lengthAdjust="spacingAndGlyphs"
text-anchor="start" opacity="0">4</text>
<g class="stroked-text"><desc>4</desc>
<path d="M185.8667 10.7347
L185.8667 11.6014
" />
<path d="M185.5571 10.2395
L185.2476 11.1681
" />
<path d="M185.2476 11.1681
L186.0524 11.1681
" />
</g></g>
<g style="fill:#000000; fill-opacity:0.0; 
stroke:#000000; stroke-width:0.0212; stroke-opacity:1; 
stroke-linecap:round; stroke-linejoin:round;">
</g>
<g style="fill:#000000; fill-opacity:0.0; 
stroke:#000000; stroke-width:0.1500; stroke-opacity:1; 
stroke-linecap:round; stroke-linejoin:round;">
<text x="235.0000" y="11.6500"
textLength="1.3531" font-size="1.7333" lengthAdjust="spacingAndGlyphs"
text-anchor="start" opacity="0">5</text>
<g class="stroked-text"><desc>5</desc>
<path d="M235.9286 10.3014
L235.3095 10.3014
" />
<path d="M235.3095 10.3014
L235.2476 10.9205
" />
<path d="M235.2476 10.9205
L235.3095 10.8585
" />
<path d="M235.3095 10.8585
L235.4333 10.7966
" />
<path d="M235.4333 10.7966
L235.7429 10.7966
" />
<path d="M235.7429 10.7966
L235.8667 10.8585
" />
<path d="M235.8667 10.8585
L235.9286 10.9205
" />
<path d="M235.9286 10.9205
L235.9905 11.0443
" />
<path d="M235.9905 11.0443
L235.9905 11.3538
" />
<path d="M235.9905 11.3538
L235.9286 11.4776
" />
<path d="M235.9286 11.4776
L235.8667 11.5395
" />
<path d="M235.8667 11.5395
L235.7429 11.6014
" />
<path d="M235.7429 11.6014
L235.4333 11.6014
" />
<path d="M235.4333 11.6014
L235.3095 11.5395
" />
<path d="M235.3095 11.5395
L235.2476 11.4776
" />
</g></g>
<g style="fill:#000000; fill-opacity:0.0; 
stroke:#000000; stroke-width:0.0212; stroke-opacity:1; 
stroke-linecap:round; stroke-linejoin:round;">
</g>
<g style="fill:#000000; fill-opacity:0.0; 
stroke:#000000; stroke-width:0.1500; stroke-opacity:1; 
stroke-linecap:round; stroke-linejoin:round;">
<text x="285.0000" y="11.6500"
textLength="1.3531" font-size="1.7333" lengthAdjust="spacingAndGlyphs"
text-anchor="start" opacity="0">6</text>
<g class="stroked-text"><desc>6</desc>
<path d="M285.8667 10.3014
L285.6190 10.3014
" />
<path d="M285.6190 10.3014
L285.4952 10.3633
" />
<path d="M285.4952 10.3633
L285.4333 10.4252
" />
<path d="M285.4333 10.4252
L285.3095 10.6109
" />
<path d="M285.3095 10.6109
L285.2476 10.8585
" />
<path d="M285.2476 10.8585
L285.2476 11.3538
" />
<path d="M285.2476 11.3538
L285.3095 11.4776
" />
<path d="M285.3095 11.4776
L285.3714 11.5395
" />
<path d="M285.3714 11.5395
L285.4952 11.6014
" />
<path d="M285.4952 11.6014
L285.7429 11.6014
" />
<path d="M285.7429 11.6014
L285.8667 11.5395
" />
<path d="M285.8667 11.5395
L285.9286 11.4776
" />
<path d="M285.9286 11.4776
L285.9905 11.3538
" />
<path d="M285.9905 11.3538
L285.9905 11.0443
" />
<path d="M285.9905 11.0443
L285.9286 10.9205
" />
<path d="M285.9286 10.9205
L285.8667 10.8585
" />
<path d="M285.8667 10.8585
L285.7429 10.7966
" />
<path d="M285.7429 10.7966
L285.4952 10.7966
" />
<path d="M285.4952 10.7966
L285.3714 10.8585
" />
<path d="M285.3714 10.8585
L285.3095 10.9205
" />
<path d="M285.3095 10.9205
L285.2476 11.0443
" />
</g></g>
<g style="fill:#000000; fill-opacity:0.0; 
stroke:#000000; stroke-width:0.0212; stroke-opacity:1; 
stroke-linecap:round; stroke-linejoin:round;">
</g>
<g style="fill:#000000; fill-opacity:0.0; 
stroke:#000000; stroke-width:0.1500; stroke-opacity:1; 
stroke-linecap:round; stroke-linejoin:round;">
<text x="335.0000" y="11.6500"
textLength="1.3531" font-size="1.7333" lengthAdjust="spacingAndGlyphs"
text-anchor="start" opacity="0">7</text>
<g class="stroked-text"><desc>7</desc>
<path d="M335.1857 10.3014
L336.0524 10.3014
" />
<path d="M336.0524 10.3014
L335.4952 11.6014
" />
</g></g>
<g style="fill:#000000; fill-opacity:0.0; 
stroke:#000000; stroke-width:0.0212; stroke-opacity:1; 
stroke-linecap:round; stroke-linejoin:round;">
</g>
<g style="fill:#000000; fill-opacity:0.0; 
stroke:#000000; stroke-width:0.1500; stroke-opacity:1; 
stroke-linecap:round; stroke-linejoin:round;">
<text x="385.0000" y="11.6500"
textLength="1.3531" font-size="1.7333" lengthAdjust="spacingAndGlyphs"
text-anchor="start" opacity="0">8</text>
<g class="stroked-text"><desc>8</desc>
<path d="M385.4952 10.8585
L385.3714 10.7966
" />
<path d="M385.3714 10.7966
L385.3095 10.7347
" />
<path d="M385.3095 10.7347
L385.2476 10.6109
" />
<path d="M385.2476 10.6109
L385.2476 10.5490
" />
<path d="M385.2476 10.5490
L385.3095 10.4252
" />
<path d="M385.3095 10.4252
L385.3714 10.3633
" />
<path d="M385.3714 10.3633
L385.4952 10.3014
" />
<path d="M385.4952 10.3014
L385.7429 10.3014
" />
<path d="M385.7429 10.3014
L385.8667 10.3633
" />
<path d="M385.8667 10.3633
L385.9286 10.4252
" />
<path d="M385.9286 10.4252
L385.9905 10.5490
" />
<path d="M385.9905 10.5490
L385.9905 10.6109
" />
<path d="M385.9905 10.6109
L385.9286 10.7347
" />
<path d="M385.9286 10.7347
L385.8667 10.7966
" />
<path d="M385.8667 10.7966
L385.7429 10.8585
" />
<path d="M385.7429 10.8585
L385.4952 10.8585
" />
<path d="M385.4952 10.8585
L385.3714 10.9205
" />
<path d="M385.3714 10.9205
L385.3095 10.9824
" />
<path d="M385.3095 10.9824
L385.2476 11.1062
" />
<path d="M385.2476 11.1062
L385.2476 11.3538
" />
<path d="M385.2476 11.3538
L385.3095 11.4776
" />
<path d="M385.3095 11.4776
L385.3714 11.5395
" />
<path d="M385.3714 11.5395
L385.4952 11.6014
" />
<path d="M385.4952 11.6014
L385.7429 11.6014
" />
<path d="M385.7429 11.6014
L385.8667 11.5395
" />
<path d="M385.8667 11.5395
L385.9286 11.4776
" />
<path d="M385.9286 11.4776
L385.9905 11.3538
" />
<path d="M385.9905 11.3538
L385.9905 11.1062
" />
<path d="M385.9905 11.1062
L385.9286 10.9824
" />
<path d="M385.9286 10.9824
L385.8667 10.9205
" />
<path d="M385.8667 10.9205
L385.7429 10.8585
" />
</g></g>
<g style="fill:#000000; fill-opacity:0.0; 
stroke:#000000; stroke-width:0.0212; stroke-opacity:1; 
stroke-linecap:round; stroke-linejoin:round;">
</g>
<g style="fill:#000000; fill-opacity:0.0; 
stroke:#000000; stroke-width:0.1500; stroke-opacity:1; 
stroke-linecap:round; stroke-linejoin:round;">
<path d="M60.0000 285.0022
L60.0000 287.0022
" />
</g>
<g style="fill:#000000; fill-opacity:0.0; 
stroke:#000000; stroke-width:0.0212; stroke-opacity:1; 
stroke-linecap:round; stroke-linejoin:round;">
</g>
<g style="fill:#000000; fill-opacity:0.0; 
stroke:#000000; stroke-width:0.1500; stroke-opacity:1; 
stroke-linecap:round; stroke-linejoin:round;">
<path d="M110.0000 285.0022
L110.0000 287.0022
" />
</g>
<g style="fill:#000000; fill-opacity:0.0; 
stroke:#000000; stroke-width:0.0212; stroke-opacity:1; 
stroke-linecap:round; stroke-linejoin:round;">
</g>
<g style="fill:#000000; fill-opacity:0.0; 
stroke:#000000; stroke-width:0.1500; stroke-opacity:1; 
stroke-linecap:round; stroke-linejoin:round;">
<path d="M160.0000 285.0022
L160.0000 287.0022
" />
</g>
<g style="fill:#000000; fill-opacity:0.0; 
stroke:#000000; stroke-width:0.0212; stroke-opacity:1; 
stroke-linecap:round; stroke-linejoin:round;">
</g>
<g style="fill:#000000; fill-opacity:0.0; 
stroke:#000000; stroke-width:0.1500; stroke-opacity:1; 
stroke-linecap:round; stroke-linejoin:round;">
<path d="M210.0000 285.0022
L210.0000 287.0022
" />
</g>
<g style="fill:#000000; fill-opacity:0.0; 
stroke:#000000; stroke-width:0.0212; stroke-opacity:1; 
stroke-linecap:round; stroke-linejoin:round;">
</g>
<g style="fill:#000000; fill-opacity:0.0; 
stroke:#000000; stroke-width:0.1500; stroke-opacity:1; 
stroke-linecap:round; stroke-linejoin:round;">
<path d="M260.0000 285.0022
L260.0000 287.0022
" />
</g>
<g style="fill:#000000; fill-opacity:0.0; 
stroke:#000000; stroke-width:0.0212; stroke-opacity:1; 
stroke-linecap:round; stroke-linejoin:round;">
</g>
<g style="fill:#000000; fill-opacity:0.0; 
stroke:#000000; stroke-width:0.1500; stroke-opacity:1; 
stroke-linecap:round; stroke-linejoin:round;">
<path d="M310.0000 285.0022
L310.0000 287.0022
" />
</g>
<g style="fill:#000000; fill-opacity:0.0; 
stroke:#000000; stroke-width:0.0212; stroke-opacity:1; 
stroke-linecap:round; stroke-linejoin:round;">
</g>
<g style="fill:#000000; fill-opacity:0.0; 
stroke:#000000; stroke-width:0.1500; stroke-opacity:1; 
stroke-linecap:round; stroke-linejoin:round;">
<path d="M360.0000 285.0022
L360.0000 287.0022
" />
</g>
<g style="fill:#000000; fill-opacity:0.0; 
stroke:#000000; stroke-width:0.0212; stroke-opacity:1; 
stroke-linecap:round; stroke-linejoin:round;">
</g>
<g style="fill:#000000; fill-opacity:0.0; 
stroke:#000000; stroke-width:0.1500; stroke-opacity:1; 
stroke-linecap:round; stroke-linejoin:round;">
<text x="35.0000" y="286.6522"
textLength="1.3531" font-size="1.7333" lengthAdjust="spacingAndGlyphs"
text-anchor="start" opacity="0">1</text>
<g class="stroked-text"><desc>1</desc>
<path d="M35.9905 286.6036
L35.2476 286.6036
" />
<path d="M35.6190 286.6036
L35.6190 285.3036
" />
<path d="M35.6190 285.3036
L35.4952 285.4893
" />
<path d="M35.4952 285.4893
L35.3714 285.6131
" />
<path d="M35.3714 285.6131
L35.2476 285.6750
" />
</g></g>
<g style="fill:#000000; fill-opacity:0.0; 
stroke:#000000; stroke-width:0.0212; stroke-opacity:1; 
stroke-linecap:round; stroke-linejoin:round;">
</g>
<g style="fill:#000000; fill-opacity:0.0; 
stroke:#000000; stroke-width:0.1500; stroke-opacity:1; 
stroke-linecap:round; stroke-linejoin:round;">
<text x="85.0000" y="286.6522"
textLength="1.3531" font-size="1.7333" lengthAdjust="spacingAndGlyphs"
text-anchor="start" opacity="0">2</text>
<g class="stroked-text"><desc>2</desc>
<path d="M85.2476 285.4274
L85.3095 285.3655
" />
<path d="M85.3095 285.3655
L85.4333 285.3036
" />
<path d="M85.4333 285.3036
L85.7429 285.3036
" />
<path d="M85.7429 285.3036
L85.8667 285.3655
" />
<path d="M85.8667 285.3655
L85.9286 285.4274
" />
<path d="M85.9286 285.4274
L85.9905 285.5512
" />
<path d="M85.9905 285.5512
L85.9905 285.6750
" />
<path d="M85.9905 285.6750
L85.9286 285.8607
" />
<path d="M85.9286 285.8607
L85.1857 286.6036
" />
<path d="M85.1857 286.6036
L85.9905 286.6036
" />
</g></g>
<g style="fill:#000000; fill-opacity:0.0; 
stroke:#000000; stroke-width:0.0212; stroke-opacity:1; 
stroke-linecap:round; stroke-linejoin:round;">
</g>
<g style="fill:#000000; fill-opacity:0.0; 
stroke:#000000; stroke-width:0.1500; stroke-opacity:1; 
stroke-linecap:round; stroke-linejoin:round;">
<text x="135.0000" y="286.6522"
textLength="1.3531" font-size="1.7333" lengthAdjust="spacingAndGlyphs"
text-anchor="start" opacity="0">3</text>
<g class="stroked-text"><desc>3</desc>
<path d="M135.1857 285.3036
L135.9905 285.3036
" />
<path d="M135.9905 285.3036
L135.5571 285.7988
" />
<path d="M135.5571 285.7988
L135.7429 285.7988
" />
<path d="M135.7429 285.7988
L135.8667 285.8607
" />
<path d="M135.8667 285.8607
L135.9286 285.9227
" />
<path d="M135.9286 285.9227
L135.9905 286.0465
" />
<path d="M135.9905 286.0465
L135.9905 286.3560
" />
<path d="M135.9905 286.3560
L135.9286 286.4798
" />
<path d="M135.9286 286.4798
L135.8667 286.5417
" />
<path d="M135.8667 286.5417
L135.7429 286.6036
" />
<path d="M135.7429 286.6036
L135.3714 286.6036
" />
<path d="M135.3714 286.6036
L135.2476 286.5417
" />
<path d="M135.2476 286.5417
L135.1857 286.4798
" />
</g></g>
<g style="fill:#000000; fill-opacity:0.0; 
stroke:#000000; stroke-width:0.0212; stroke-opacity:1; 
stroke-linecap:round; stroke-linejoin:round;">
</g>
<g style="fill:#000000; fill-opacity:0.0; 
stroke:#000000; stroke-width:0.1500; stroke-opacity:1; 
stroke-linecap:round; stroke-linejoin:round;">
<text x="185.0000" y="286.6522"
textLength="1.3531" font-size="1.7333" lengthAdjust="spacingAndGlyphs"
text-anchor="start" opacity="0">4</text>
<g class="stroked-text"><desc>4</desc>
<path d="M185.8667 285.7369
L185.8667 286.6036
" />
<path d="M185.5571 285.2417
L185.2476 286.1703
" />
<path d="M185.2476 286.1703
L186.0524 286.1703
" />
</g></g>
<g style="fill:#000000; fill-opacity:0.0; 
stroke:#000000; stroke-width:0.0212; stroke-opacity:1; 
stroke-linecap:round; stroke-linejoin:round;">
</g>
<g style="fill:#000000; fill-opacity:0.0; 
stroke:#000000; stroke-width:0.1500; stroke-opacity:1; 
stroke-linecap:round; stroke-linejoin:round;">
<text x="235.0000" y="286.6522"
textLength="1.3531" font-size="1.7333" lengthAdjust="spacingAndGlyphs"
text-anchor="start" opacity="0">5</text>
<g class="stroked-text"><desc>5</desc>
<path d="M235.9286 285.3036
L235.3095 285.3036
" />
<path d="M235.3095 285.3036
L235.2476 285.9227
" />
<path d="M235.2476 285.9227
L235.3095 285.8607
" />
<path d="M235.3095 285.8607
L235.4333 285.7988
" />
<path d="M235.4333 285.7988
L235.7429 285.7988
" />
<path d="M235.7429 285.7988
L235.8667 285.8607
" />
<path d="M235.8667 285.8607
L235.9286 285.9227
" />
<path d="M235.9286 285.9227
L235.9905 286.0465
" />
<path d="M235.9905 286.0465
L235.9905 286.3560
" />
<path d="M235.9905 286.3560
L235.9286 286.4798
" />
<path d="M235.9286 286.4798
L235.8667 286.5417
" />
<path d="M235.8667 286.5417
L235.7429 286.6036
" />
<path d="M235.7429 286.6036
L235.4333 286.6036
" />
<path d="M235.4333 286.6036
L235.3095 286.5417
" />
<path d="M235.3095 286.5417
L235.2476 286.4798
" />
</g></g>
<g style="fill:#000000; fill-opacity:0.0; 
stroke:#000000; stroke-width:0.0212; stroke-opacity:1; 
stroke-linecap:round; stroke-linejoin:round;">
</g>
<g style="fill:#000000; fill-opacity:0.0; 
stroke:#000000; stroke-width:0.1500; stroke-opacity:1; 
stroke-linecap:round; stroke-linejoin:round;">
<text x="285.0000" y="286.6522"
textLength="1.3531" font-size="1.7333" lengthAdjust="spacingAndGlyphs"
text-anchor="start" opacity="0">6</text>
<g class="stroked-text"><desc>6</desc>
<path d="M285.8667 285.3036
L285.6190 285.3036
" />
<path d="M285.6190 285.3036
L285.4952 285.3655
" />
<path d="M285.4952 285.3655
L285.4333 285.4274
" />
<path d="M285.4333 285.4274
L285.3095 285.6131
" />
<path d="M285.3095 285.6131
L285.2476 285.8607
" />
<path d="M285.2476 285.8607
L285.2476 286.3560
" />
<path d="M285.2476 286.3560
L285.3095 286.4798
" />
<path d="M285.3095 286.4798
L285.3714 286.5417
" />
<path d="M285.3714 286.5417
L285.4952 286.6036
" />
<path d="M285.4952 286.6036
L285.7429 286.6036
" />
<path d="M285.7429 286.6036
L285.8667 286.5417
" />
<path d="M285.8667 286.5417
L285.9286 286.4798
" />
<path d="M285.9286 286.4798
L285.9905 286.3560
" />
<path d="M285.9905 286.3560
L285.9905 286.0465
" />
<path d="M285.9905 286.0465
L285.9286 285.9227
" />
<path d="M285.9286 285.9227
L285.8667 285.8607
" />
<path d="M285.8667 285.8607
L285.7429 285.7988
" />
<path d="M285.7429 285.7988
L285.4952 285.7988
" />
<path d="M285.4952 285.7988
L285.3714 285.8607
" />
<path d="M285.3714 285.8607
L285.3095 285.9227
" />
<path d="M285.3095 285.9227
L285.2476 286.0465
" />
</g></g>
<g style="fill:#000000; fill-opacity:0.0; 
stroke:#000000; stroke-width:0.0212; stroke-opacity:1; 
stroke-linecap:round; stroke-linejoin:round;">
</g>
<g style="fill:#000000; fill-opacity:0.0; 
stroke:#000000; stroke-width:0.1500; stroke-opacity:1; 
stroke-linecap:round; stroke-linejoin:round;">
<text x="335.0000" y="286.6522"
textLength="1.3531" font-size="1.7333" lengthAdjust="spacingAndGlyphs"
text-anchor="start" opacity="0">7</text>
<g class="stroked-text"><desc>7</desc>
<path d="M335.1857 285.3036
L336.0524 285.3036
" />
<path d="M336.0524 285.3036
L335.4952 286.6036
" />
</g></g>
<g style="fill:#000000; fill-opacity:0.0; 
stroke:#000000; stroke-width:0.0212; stroke-opacity:1; 
stroke-linecap:round; stroke-linejoin:round;">
</g>
<g style="fill:#000000; fill-opacity:0.0; 
stroke:#000000; stroke-width:0.1500; stroke-opacity:1; 
stroke-linecap:round; stroke-linejoin:round;">
<text x="385.0000" y="286.6522"
textLength="1.3531" font-size="1.7333" lengthAdjust="spacingAndGlyphs"
text-anchor="start" opacity="0">8</text>
<g class="stroked-text"><desc>8</desc>
<path d="M385.4952 285.8607
L385.3714 285.7988
" />
<path d="M385.3714 285.7988
L385.3095 285.7369
" />
<path d="M385.3095 285.7369
L385.2476 285.6131
" />
<path d="M385.2476 285.6131
L385.2476 285.5512
" />
<path d="M385.2476 285.5512
L385.3095 285.4274
" />
<path d="M385.3095 285.4274
L385.3714 285.3655
" />
<path d="M385.3714 285.3655
L385.4952 285.3036
" />
<path d="M385.4952 285.3036
L385.7429 285.3036
" />
<path d="M385.7429 285.3036
L385.8667 285.3655
" />
<path d="M385.8667 285.3655
L385.9286 285.4274
" />
<path d="M385.9286 285.4274
L385.9905 285.5512
" />
<path d="M385.9905 285.5512
L385.9905 285.6131
" />
<path d="M385.9905 285.6131
L385.9286 285.7369
" />
<path d="M385.9286 285.7369
L385.8667 285.7988
" />
<path d="M385.8667 285.7988
L385.7429 285.8607
" />
<path d="M385.7429 285.8607
L385.4952 285.8607
" />
<path d="M385.4952 285.8607
L385.3714 285.9227
" />
<path d="M385.3714 285.9227
L385.3095 285.9846
" />
<path d="M385.3095 285.9846
L385.2476 286.1084
" />
<path d="M385.2476 286.1084
L385.2476 286.3560
" />
<path d="M385.2476 286.3560
L385.3095 286.4798
" />
<path d="M385.3095 286.4798
L385.3714 286.5417
" />
<path d="M385.3714 286.5417
L385.4952 286.6036
" />
<path d="M385.4952 286.6036
L385.7429 286.6036
" />
<path d="M385.7429 286.6036
L385.8667 286.5417
" />
<path d="M385.8667 286.5417
L385.9286 286.4798
" />
<path d="M385.9286 286.4798
L385.9905 286.3560
" />
<path d="M385.9905 286.3560
L385.9905 286.1084
" />
<path d="M385.9905 286.1084
L385.9286 285.9846
" />
<path d="M385.9286 285.9846
L385.8667 285.9227
" />
<path d="M385.8667 285.9227
L385.7429 285.8607
" />
</g></g>
<g style="fill:#000000; fill-opacity:0.0; 
stroke:#000000; stroke-width:0.0212; stroke-opacity:1; 
stroke-linecap:round; stroke-linejoin:round;">
</g>
<g style="fill:#000000; fill-opacity:0.0; 
stroke:#000000; stroke-width:0.1500; stroke-opacity:1; 
stroke-linecap:round; stroke-linejoin:round;">
<path d="M10.0000 60.0000
L12.0000 60.0000
" />
</g>
<g style="fill:#000000; fill-opacity:0.0; 
stroke:#000000; stroke-width:0.0212; stroke-opacity:1; 
stroke-linecap:round; stroke-linejoin:round;">
</g>
<g style="fill:#000000; fill-opacity:0.0; 
stroke:#000000; stroke-width:0.1500; stroke-opacity:1; 
stroke-linecap:round; stroke-linejoin:round;">
<path d="M10.0000 110.0000
L12.0000 110.0000
" />
</g>
<g style="fill:#000000; fill-opacity:0.0; 
stroke:#000000; stroke-width:0.0212; stroke-opacity:1; 
stroke-linecap:round; stroke-linejoin:round;">
</g>
<g style="fill:#000000; fill-opacity:0.0; 
stroke:#000000; stroke-width:0.1500; stroke-opacity:1; 
stroke-linecap:round; stroke-linejoin:round;">
<path d="M10.0000 160.0000
L12.0000 160.0000
" />
</g>
<g style="fill:#000000; fill-opacity:0.0; 
stroke:#000000; stroke-width:0.0212; stroke-opacity:1; 
stroke-linecap:round; stroke-linejoin:round;">
</g>
<g style="fill:#000000; fill-opacity:0.0; 
stroke:#000000; stroke-width:0.1500; stroke-opacity:1; 
stroke-linecap:round; stroke-linejoin:round;">
<path d="M10.0000 210.0000
L12.0000 210.0000
" />
</g>
<g style="fill:#000000; fill-opacity:0.0; 
stroke:#000000; stroke-width:0.0212; stroke-opacity:1; 
stroke-linecap:round; stroke-linejoin:round;">
</g>
<g style="fill:#000000; fill-opacity:0.0; 
stroke:#000000; stroke-width:0.1500; stroke-opacity:1; 
stroke-linecap:round; stroke-linejoin:round;">
<path d="M10.0000 260.0000
L12.0000 260.0000
" />
</g>
<g style="fill:#000000; fill-opacity:0.0; 
stroke:#000000; stroke-width:0.0212; stroke-opacity:1; 
stroke-linecap:round; stroke-linejoin:round;">
</g>
<g style="fill:#000000; fill-opacity:0.0; 
stroke:#000000; stroke-width:0.1500; stroke-opacity:1; 
stroke-linecap:round; stroke-linejoin:round;">
<text x="11.0000" y="35.6500"
textLength="1.2293" font-size="1.7333" lengthAdjust="spacingAndGlyphs"
text-anchor="middle" opacity="0">A</text>
<g class="stroked-text"><desc>A</desc>
<path d="M10.6905 35.2300
L11.3095 35.2300
" />
<path d="M10.5667 35.6014
L11.0000 34.3014
" />
<path d="M11.0000 34.3014
L11.4333 35.6014
" />
</g></g>
<g style="fill:#000000; fill-opacity:0.0; 
stroke:#000000; stroke-width:0.0212; stroke-opacity:1; 
stroke-linecap:round; stroke-linejoin:round;">
</g>
<g style="fill:#000000; fill-opacity:0.0; 
stroke:#000000; stroke-width:0.1500; stroke-opacity:1; 
stroke-linecap:round; stroke-linejoin:round;">
<text x="11.0000" y="85.6500"
textLength="1.4150" font-size="1.7333" lengthAdjust="spacingAndGlyphs"
text-anchor="middle" opacity="0">B</text>
<g class="stroked-text"><desc>B</desc>
<path d="M11.0929 84.9205
L11.2786 84.9824
" />
<path d="M11.2786 84.9824
L11.3405 85.0443
" />
<path d="M11.3405 85.0443
L11.4024 85.1681
" />
<path d="M11.4024 85.1681
L11.4024 85.3538
" />
<path d="M11.4024 85.3538
L11.3405 85.4776
" />
<path d="M11.3405 85.4776
L11.2786 85.5395
" />
<path d="M11.2786 85.5395
L11.1548 85.6014
" />
<path d="M11.1548 85.6014
L10.6595 85.6014
" />
<path d="M10.6595 85.6014
L10.6595 84.3014
" />
<path d="M10.6595 84.3014
L11.0929 84.3014
" />
<path d="M11.0929 84.3014
L11.2167 84.3633
" />
<path d="M11.2167 84.3633
L11.2786 84.4252
" />
<path d="M11.2786 84.4252
L11.3405 84.5490
" />
<path d="M11.3405 84.5490
L11.3405 84.6728
" />
<path d="M11.3405 84.6728
L11.2786 84.7966
" />
<path d="M11.2786 84.7966
L11.2167 84.8585
" />
<path d="M11.2167 84.8585
L11.0929 84.9205
" />
<path d="M11.0929 84.9205
L10.6595 84.9205
" />
</g></g>
<g style="fill:#000000; fill-opacity:0.0; 
stroke:#000000; stroke-width:0.0212; stroke-opacity:1; 
stroke-linecap:round; stroke-linejoin:round;">
</g>
<g style="fill:#000000; fill-opacity:0.0; 
stroke:#000000; stroke-width:0.1500; stroke-opacity:1; 
stroke-linecap:round; stroke-linejoin:round;">
<text x="11.0000" y="135.6500"
textLength="1.4150" font-size="1.7333" lengthAdjust="spacingAndGlyphs"
text-anchor="middle" opacity="0">C</text>
<g class="stroked-text"><desc>C</desc>
<path d="M11.4024 135.4776
L11.3405 135.5395
" />
<path d="M11.3405 135.5395
L11.1548 135.6014
" />
<path d="M11.1548 135.6014
L11.0310 135.6014
" />
<path d="M11.0310 135.6014
L10.8452 135.5395
" />
<path d="M10.8452 135.5395
L10.7214 135.4157
" />
<path d="M10.7214 135.4157
L10.6595 135.2919
" />
<path d="M10.6595 135.2919
L10.5976 135.0443
" />
<path d="M10.5976 135.0443
L10.5976 134.8585
" />
<path d="M10.5976 134.8585
L10.6595 134.6109
" />
<path d="M10.6595 134.6109
L10.7214 134.4871
" />
<path d="M10.7214 134.4871
L10.8452 134.3633
" />
<path d="M10.8452 134.3633
L11.0310 134.3014
" />
<path d="M11.0310 134.3014
L11.1548 134.3014
" />
<path d="M11.1548 134.3014
L11.3405 134.3633
" />
<path d="M11.3405 134.3633
L11.4024 134.4252
" />
</g></g>
<g style="fill:#000000; fill-opacity:0.0; 
stroke:#000000; stroke-width:0.0212; stroke-opacity:1; 
stroke-linecap:round; stroke-linejoin:round;">
</g>
<g style="fill:#000000; fill-opacity:0.0; 
stroke:#000000; stroke-width:0.1500; stroke-opacity:1; 
stroke-linecap:round; stroke-linejoin:round;">
<text x="11.0000" y="185.6500"
textLength="1.4150" font-size="1.7333" lengthAdjust="spacingAndGlyphs"
text-anchor="middle" opacity="0">D</text>
<g class="stroked-text"><desc>D</desc>
<path d="M10.6595 185.6014
L10.6595 184.3014
" />
<path d="M10.6595 184.3014
L10.9690 184.3014
" />
<path d="M10.9690 184.3014
L11.1548 184.3633
" />
<path d="M11.1548 184.3633
L11.2786 184.4871
" />
<path d="M11.2786 184.4871
L11.3405 184.6109
" />
<path d="M11.3405 184.6109
L11.4024 184.8585
" />
<path d="M11.4024 184.8585
L11.4024 185.0443
" />
<path d="M11.4024 185.0443
L11.3405 185.2919
" />
<path d="M11.3405 185.2919
L11.2786 185.4157
" />
<path d="M11.2786 185.4157
L11.1548 185.5395
" />
<path d="M11.1548 185.5395
L10.9690 185.6014
" />
<path d="M10.9690 185.6014
L10.6595 185.6014
" />
</g></g>
<g style="fill:#000000; fill-opacity:0.0; 
stroke:#000000; stroke-width:0.0212; stroke-opacity:1; 
stroke-linecap:round; stroke-linejoin:round;">
</g>
<g style="fill:#000000; fill-opacity:0.0; 
stroke:#000000; stroke-width:0.1500; stroke-opacity:1; 
stroke-linecap:round; stroke-linejoin:round;">
<text x="11.0000" y="235.6500"
textLength="1.2912" font-size="1.7333" lengthAdjust="spacingAndGlyphs"
text-anchor="middle" opacity="0">E</text>
<g class="stroked-text"><desc>E</desc>
<path d="M10.7214 234.9205
L11.1548 234.9205
" />
<path d="M11.3405 235.6014
L10.7214 235.6014
" />
<path d="M10.7214 235.6014
L10.7214 234.3014
" />
<path d="M10.7214 234.3014
L11.3405 234.3014
" />
</g></g>
<g style="fill:#000000; fill-opacity:0.0; 
stroke:#000000; stroke-width:0.0212; stroke-opacity:1; 
stroke-linecap:round; stroke-linejoin:round;">
</g>
<g style="fill:#000000; fill-opacity:0.0; 
stroke:#000000; stroke-width:0.1500; stroke-opacity:1; 
stroke-linecap:round; stroke-linejoin:round;">
<text x="11.0000" y="285.6500"
textLength="1.2293" font-size="1.7333" lengthAdjust="spacingAndGlyphs"
text-anchor="middle" opacity="0">F</text>
<g class="stroked-text"><desc>F</desc>
<path d="M11.1857 284.9205
L10.7524 284.9205
" />
<path d="M10.7524 285.6014
L10.7524 284.3014
" />
<path d="M10.7524 284.3014
L11.3714 284.3014
" />
</g></g>
<g style="fill:#000000; fill-opacity:0.0; 
stroke:#000000; stroke-width:0.0212; stroke-opacity:1; 
stroke-linecap:round; stroke-linejoin:round;">
</g>
<g style="fill:#000000; fill-opacity:0.0; 
stroke:#000000; stroke-width:0.1500; stroke-opacity:1; 
stroke-linecap:round; stroke-linejoin:round;">
<path d="M409.9890 60.0000
L407.9890 60.0000
" />
</g>
<g style="fill:#000000; fill-opacity:0.0; 
stroke:#000000; stroke-width:0.0212; stroke-opacity:1; 
stroke-linecap:round; stroke-linejoin:round;">
</g>
<g style="fill:#000000; fill-opacity:0.0; 
stroke:#000000; stroke-width:0.1500; stroke-opacity:1; 
stroke-linecap:round; stroke-linejoin:round;">
<path d="M409.9890 110.0000
L407.9890 110.0000
" />
</g>
<g style="fill:#000000; fill-opacity:0.0; 
stroke:#000000; stroke-width:0.0212; stroke-opacity:1; 
stroke-linecap:round; stroke-linejoin:round;">
</g>
<g style="fill:#000000; fill-opacity:0.0; 
stroke:#000000; stroke-width:0.1500; stroke-opacity:1; 
stroke-linecap:round; stroke-linejoin:round;">
<path d="M409.9890 160.0000
L407.9890 160.0000
" />
</g>
<g style="fill:#000000; fill-opacity:0.0; 
stroke:#000000; stroke-width:0.0212; stroke-opacity:1; 
stroke-linecap:round; stroke-linejoin:round;">
</g>
<g style="fill:#000000; fill-opacity:0.0; 
stroke:#000000; stroke-width:0.1500; stroke-opacity:1; 
stroke-linecap:round; stroke-linejoin:round;">
<path d="M409.9890 210.0000
L407.9890 210.0000
" />
</g>
<g style="fill:#000000; fill-opacity:0.0; 
stroke:#000000; stroke-width:0.0212; stroke-opacity:1; 
stroke-linecap:round; stroke-linejoin:round;">
</g>
<g style="fill:#000000; fill-opacity:0.0; 
stroke:#000000; stroke-width:0.1500; stroke-opacity:1; 
stroke-linecap:round; stroke-linejoin:round;">
<path d="M409.9890 260.0000
L407.9890 260.0000
" />
</g>
<g style="fill:#000000; fill-opacity:0.0; 
stroke:#000000; stroke-width:0.0212; stroke-opacity:1; 
stroke-linecap:round; stroke-linejoin:round;">
</g>
<g style="fill:#000000; fill-opacity:0.0; 
stroke:#000000; stroke-width:0.1500; stroke-opacity:1; 
stroke-linecap:round; stroke-linejoin:round;">
<text x="408.9890" y="35.6500"
textLength="1.2293" font-size="1.7333" lengthAdjust="spacingAndGlyphs"
text-anchor="middle" opacity="0">A</text>
<g class="stroked-text"><desc>A</desc>
<path d="M408.6795 35.2300
L409.2985 35.2300
" />
<path d="M408.5557 35.6014
L408.9890 34.3014
" />
<path d="M408.9890 34.3014
L409.4223 35.6014
" />
</g></g>
<g style="fill:#000000; fill-opacity:0.0; 
stroke:#000000; stroke-width:0.0212; stroke-opacity:1; 
stroke-linecap:round; stroke-linejoin:round;">
</g>
<g style="fill:#000000; fill-opacity:0.0; 
stroke:#000000; stroke-width:0.1500; stroke-opacity:1; 
stroke-linecap:round; stroke-linejoin:round;">
<text x="408.9890" y="85.6500"
textLength="1.4150" font-size="1.7333" lengthAdjust="spacingAndGlyphs"
text-anchor="middle" opacity="0">B</text>
<g class="stroked-text"><desc>B</desc>
<path d="M409.0819 84.9205
L409.2676 84.9824
" />
<path d="M409.2676 84.9824
L409.3295 85.0443
" />
<path d="M409.3295 85.0443
L409.3914 85.1681
" />
<path d="M409.3914 85.1681
L409.3914 85.3538
" />
<path d="M409.3914 85.3538
L409.3295 85.4776
" />
<path d="M409.3295 85.4776
L409.2676 85.5395
" />
<path d="M409.2676 85.5395
L409.1438 85.6014
" />
<path d="M409.1438 85.6014
L408.6485 85.6014
" />
<path d="M408.6485 85.6014
L408.6485 84.3014
" />
<path d="M408.6485 84.3014
L409.0819 84.3014
" />
<path d="M409.0819 84.3014
L409.2057 84.3633
" />
<path d="M409.2057 84.3633
L409.2676 84.4252
" />
<path d="M409.2676 84.4252
L409.3295 84.5490
" />
<path d="M409.3295 84.5490
L409.3295 84.6728
" />
<path d="M409.3295 84.6728
L409.2676 84.7966
" />
<path d="M409.2676 84.7966
L409.2057 84.8585
" />
<path d="M409.2057 84.8585
L409.0819 84.9205
" />
<path d="M409.0819 84.9205
L408.6485 84.9205
" />
</g></g>
<g style="fill:#000000; fill-opacity:0.0; 
stroke:#000000; stroke-width:0.0212; stroke-opacity:1; 
stroke-linecap:round; stroke-linejoin:round;">
</g>
<g style="fill:#000000; fill-opacity:0.0; 
stroke:#000000; stroke-width:0.1500; stroke-opacity:1; 
stroke-linecap:round; stroke-linejoin:round;">
<text x="408.9890" y="135.6500"
textLength="1.4150" font-size="1.7333" lengthAdjust="spacingAndGlyphs"
text-anchor="middle" opacity="0">C</text>
<g class="stroked-text"><desc>C</desc>
<path d="M409.3914 135.4776
L409.3295 135.5395
" />
<path d="M409.3295 135.5395
L409.1438 135.6014
" />
<path d="M409.1438 135.6014
L409.0200 135.6014
" />
<path d="M409.0200 135.6014
L408.8342 135.5395
" />
<path d="M408.8342 135.5395
L408.7104 135.4157
" />
<path d="M408.7104 135.4157
L408.6485 135.2919
" />
<path d="M408.6485 135.2919
L408.5866 135.0443
" />
<path d="M408.5866 135.0443
L408.5866 134.8585
" />
<path d="M408.5866 134.8585
L408.6485 134.6109
" />
<path d="M408.6485 134.6109
L408.7104 134.4871
" />
<path d="M408.7104 134.4871
L408.8342 134.3633
" />
<path d="M408.8342 134.3633
L409.0200 134.3014
" />
<path d="M409.0200 134.3014
L409.1438 134.3014
" />
<path d="M409.1438 134.3014
L409.3295 134.3633
" />
<path d="M409.3295 134.3633
L409.3914 134.4252
" />
</g></g>
<g style="fill:#000000; fill-opacity:0.0; 
stroke:#000000; stroke-width:0.0212; stroke-opacity:1; 
stroke-linecap:round; stroke-linejoin:round;">
</g>
<g style="fill:#000000; fill-opacity:0.0; 
stroke:#000000; stroke-width:0.1500; stroke-opacity:1; 
stroke-linecap:round; stroke-linejoin:round;">
<text x="408.9890" y="185.6500"
textLength="1.4150" font-size="1.7333" lengthAdjust="spacingAndGlyphs"
text-anchor="middle" opacity="0">D</text>
<g class="stroked-text"><desc>D</desc>
<path d="M408.6485 185.6014
L408.6485 184.3014
" />
<path d="M408.6485 184.3014
L408.9580 184.3014
" />
<path d="M408.9580 184.3014
L409.1438 184.3633
" />
<path d="M409.1438 184.3633
L409.2676 184.4871
" />
<path d="M409.2676 184.4871
L409.3295 184.6109
" />
<path d="M409.3295 184.6109
L409.3914 184.8585
" />
<path d="M409.3914 184.8585
L409.3914 185.0443
" />
<path d="M409.3914 185.0443
L409.3295 185.2919
" />
<path d="M409.3295 185.2919
L409.2676 185.4157
" />
<path d="M409.2676 185.4157
L409.1438 185.5395
" />
<path d="M409.1438 185.5395
L408.9580 185.6014
" />
<path d="M408.9580 185.6014
L408.6485 185.6014
" />
</g></g>
<g style="fill:#000000; fill-opacity:0.0; 
stroke:#000000; stroke-width:0.0212; stroke-opacity:1; 
stroke-linecap:round; stroke-linejoin:round;">
</g>
<g style="fill:#000000; fill-opacity:0.0; 
stroke:#000000; stroke-width:0.1500; stroke-opacity:1; 
stroke-linecap:round; stroke-linejoin:round;">
<text x="408.9890" y="235.6500"
textLength="1.2912" font-size="1.7333" lengthAdjust="spacingAndGlyphs"
text-anchor="middle" opacity="0">E</text>
<g class="stroked-text"><desc>E</desc>
<path d="M408.7104 234.9205
L409.1438 234.9205
" />
<path d="M409.3295 235.6014
L408.7104 235.6014
" />
<path d="M408.7104 235.6014
L408.7104 234.3014
" />
<path d="M408.7104 234.3014
L409.3295 234.3014
" />
</g></g>
<g style="fill:#000000; fill-opacity:0.0; 
stroke:#000000; stroke-width:0.0212; stroke-opacity:1; 
stroke-linecap:round; stroke-linejoin:round;">
</g>
<g style="fill:#000000; fill-opacity:0.0; 
stroke:#000000; stroke-width:0.1500; stroke-opacity:1; 
stroke-linecap:round; stroke-linejoin:round;">
<text x="408.9890" y="285.6500"
textLength="1.2293" font-size="1.7333" lengthAdjust="spacingAndGlyphs"
text-anchor="middle" opacity="0">F</text>
<g class="stroked-text"><desc>F</desc>
<path d="M409.1747 284.9205
L408.7414 284.9205
" />
<path d="M408.7414 285.6014
L408.7414 284.3014
" />
<path d="M408.7414 284.3014
L409.3604 284.3014
" />
</g></g>
<g style="fill:#000000; fill-opacity:0.0; 
stroke:#000000; stroke-width:0.0212; stroke-opacity:1; 
stroke-linecap:round; stroke-linejoin:round;">
</g>
<g style="fill:#000000; fill-opacity:0.0; 
stroke:#000000; stroke-width:0.1500; stroke-opacity:1; 
stroke-linecap:round; stroke-linejoin:round;">
<text x="322.9890" y="280.8522"
textLength="6.9321" font-size="2.0000" lengthAdjust="spacingAndGlyphs"
text-anchor="start" opacity="0">Date: </text>
<g class="stroked-text"><desc>Date: </desc>
<path d="M323.3461 280.7961
L323.3461 279.2961
" />
<path d="M323.3461 279.2961
L323.7033 279.2961
" />
<path d="M323.7033 279.2961
L323.9176 279.3676
" />
<path d="M323.9176 279.3676
L324.0604 279.5104
" />
<path d="M324.0604 279.5104
L324.1319 279.6533
" />
<path d="M324.1319 279.6533
L324.2033 279.9390
" />
<path d="M324.2033 279.9390
L324.2033 280.1533
" />
<path d="M324.2033 280.1533
L324.1319 280.4390
" />
<path d="M324.1319 280.4390
L324.0604 280.5818
" />
<path d="M324.0604 280.5818
L323.9176 280.7247
" />
<path d="M323.9176 280.7247
L323.7033 280.7961
" />
<path d="M323.7033 280.7961
L323.3461 280.7961
" />
<path d="M325.4890 280.7961
L325.4890 280.0104
" />
<path d="M325.4890 280.0104
L325.4176 279.8676
" />
<path d="M325.4176 279.8676
L325.2747 279.7961
" />
<path d="M325.2747 279.7961
L324.9890 279.7961
" />
<path d="M324.9890 279.7961
L324.8461 279.8676
" />
<path d="M325.4890 280.7247
L325.3461 280.7961
" />
<path d="M325.3461 280.7961
L324.9890 280.7961
" />
<path d="M324.9890 280.7961
L324.8461 280.7247
" />
<path d="M324.8461 280.7247
L324.7747 280.5818
" />
<path d="M324.7747 280.5818
L324.7747 280.4390
" />
<path d="M324.7747 280.4390
L324.8461 280.2961
" />
<path d="M324.8461 280.2961
L324.9890 280.2247
" />
<path d="M324.9890 280.2247
L325.3461 280.2247
" />
<path d="M325.3461 280.2247
L325.4890 280.1533
" />
<path d="M325.9890 279.7961
L326.5604 279.7961
" />
<path d="M326.2033 279.2961
L326.2033 280.5818
" />
<path d="M326.2033 280.5818
L326.2747 280.7247
" />
<path d="M326.2747 280.7247
L326.4176 280.7961
" />
<path d="M326.4176 280.7961
L326.5604 280.7961
" />
<path d="M327.6319 280.7247
L327.4890 280.7961
" />
<path d="M327.4890 280.7961
L327.2033 280.7961
" />
<path d="M327.2033 280.7961
L327.0604 280.7247
" />
<path d="M327.0604 280.7247
L326.9890 280.5818
" />
<path d="M326.9890 280.5818
L326.9890 280.0104
" />
<path d="M326.9890 280.0104
L327.0604 279.8676
" />
<path d="M327.0604 279.8676
L327.2033 279.7961
" />
<path d="M327.2033 279.7961
L327.4890 279.7961
" />
<path d="M327.4890 279.7961
L327.6319 279.8676
" />
<path d="M327.6319 279.8676
L327.7033 280.0104
" />
<path d="M327.7033 280.0104
L327.7033 280.1533
" />
<path d="M327.7033 280.1533
L326.9890 280.2961
" />
<path d="M328.3461 280.6533
L328.4176 280.7247
" />
<path d="M328.4176 280.7247
L328.3461 280.7961
" />
<path d="M328.3461 280.7961
L328.2747 280.7247
" />
<path d="M328.2747 280.7247
L328.3461 280.6533
" />
<path d="M328.3461 280.6533
L328.3461 280.7961
" />
<path d="M328.3461 279.8676
L328.4176 279.9390
" />
<path d="M328.4176 279.9390
L328.3461 280.0104
" />
<path d="M328.3461 280.0104
L328.2747 279.9390
" />
<path d="M328.2747 279.9390
L328.3461 279.8676
" />
<path d="M328.3461 279.8676
L328.3461 280.0104
" />
</g></g>
<g style="fill:#000000; fill-opacity:0.0; 
stroke:#000000; stroke-width:0.0212; stroke-opacity:1; 
stroke-linecap:round; stroke-linejoin:round;">
</g>
<g style="fill:#000000; fill-opacity:0.0; 
stroke:#000000; stroke-width:0.1500; stroke-opacity:1; 
stroke-linecap:round; stroke-linejoin:round;">
<path d="M299.9890 281.5022
L407.9890 281.5022
" />
</g>
<g style="fill:#000000; fill-opacity:0.0; 
stroke:#000000; stroke-width:0.0212; stroke-opacity:1; 
stroke-linecap:round; stroke-linejoin:round;">
</g>
<g style="fill:#000000; fill-opacity:0.0; 
stroke:#000000; stroke-width:0.1500; stroke-opacity:1; 
stroke-linecap:round; stroke-linejoin:round;">
<text x="300.9890" y="283.6522"
textLength="31.2893" font-size="2.0000" lengthAdjust="spacingAndGlyphs"
text-anchor="start" opacity="0">KiCad E.D.A.  pcbnew 7.0.2</text>
<g class="stroked-text"><desc>KiCad E.D.A.  pcbnew 7.0.2</desc>
<path d="M301.3461 283.5961
L301.3461 282.0961
" />
<path d="M302.2033 283.5961
L301.5604 282.7390
" />
<path d="M302.2033 282.0961
L301.3461 282.9533
" />
<path d="M302.8461 283.5961
L302.8461 282.5961
" />
<path d="M302.8461 282.0961
L302.7747 282.1676
" />
<path d="M302.7747 282.1676
L302.8461 282.2390
" />
<path d="M302.8461 282.2390
L302.9176 282.1676
" />
<path d="M302.9176 282.1676
L302.8461 282.0961
" />
<path d="M302.8461 282.0961
L302.8461 282.2390
" />
<path d="M304.4176 283.4533
L304.3461 283.5247
" />
<path d="M304.3461 283.5247
L304.1319 283.5961
" />
<path d="M304.1319 283.5961
L303.9890 283.5961
" />
<path d="M303.9890 283.5961
L303.7747 283.5247
" />
<path d="M303.7747 283.5247
L303.6319 283.3818
" />
<path d="M303.6319 283.3818
L303.5604 283.2390
" />
<path d="M303.5604 283.2390
L303.4890 282.9533
" />
<path d="M303.4890 282.9533
L303.4890 282.7390
" />
<path d="M303.4890 282.7390
L303.5604 282.4533
" />
<path d="M303.5604 282.4533
L303.6319 282.3104
" />
<path d="M303.6319 282.3104
L303.7747 282.1676
" />
<path d="M303.7747 282.1676
L303.9890 282.0961
" />
<path d="M303.9890 282.0961
L304.1319 282.0961
" />
<path d="M304.1319 282.0961
L304.3461 282.1676
" />
<path d="M304.3461 282.1676
L304.4176 282.2390
" />
<path d="M305.7033 283.5961
L305.7033 282.8104
" />
<path d="M305.7033 282.8104
L305.6319 282.6676
" />
<path d="M305.6319 282.6676
L305.4890 282.5961
" />
<path d="M305.4890 282.5961
L305.2033 282.5961
" />
<path d="M305.2033 282.5961
L305.0604 282.6676
" />
<path d="M305.7033 283.5247
L305.5604 283.5961
" />
<path d="M305.5604 283.5961
L305.2033 283.5961
" />
<path d="M305.2033 283.5961
L305.0604 283.5247
" />
<path d="M305.0604 283.5247
L304.9890 283.3818
" />
<path d="M304.9890 283.3818
L304.9890 283.2390
" />
<path d="M304.9890 283.2390
L305.0604 283.0961
" />
<path d="M305.0604 283.0961
L305.2033 283.0247
" />
<path d="M305.2033 283.0247
L305.5604 283.0247
" />
<path d="M305.5604 283.0247
L305.7033 282.9533
" />
<path d="M307.0604 283.5961
L307.0604 282.0961
" />
<path d="M307.0604 283.5247
L306.9176 283.5961
" />
<path d="M306.9176 283.5961
L306.6319 283.5961
" />
<path d="M306.6319 283.5961
L306.4890 283.5247
" />
<path d="M306.4890 283.5247
L306.4176 283.4533
" />
<path d="M306.4176 283.4533
L306.3461 283.3104
" />
<path d="M306.3461 283.3104
L306.3461 282.8818
" />
<path d="M306.3461 282.8818
L306.4176 282.7390
" />
<path d="M306.4176 282.7390
L306.4890 282.6676
" />
<path d="M306.4890 282.6676
L306.6319 282.5961
" />
<path d="M306.6319 282.5961
L306.9176 282.5961
" />
<path d="M306.9176 282.5961
L307.0604 282.6676
" />
<path d="M308.9176 282.8104
L309.4176 282.8104
" />
<path d="M309.6319 283.5961
L308.9176 283.5961
" />
<path d="M308.9176 283.5961
L308.9176 282.0961
" />
<path d="M308.9176 282.0961
L309.6319 282.0961
" />
<path d="M310.2747 283.4533
L310.3461 283.5247
" />
<path d="M310.3461 283.5247
L310.2747 283.5961
" />
<path d="M310.2747 283.5961
L310.2033 283.5247
" />
<path d="M310.2033 283.5247
L310.2747 283.4533
" />
<path d="M310.2747 283.4533
L310.2747 283.5961
" />
<path d="M310.9890 283.5961
L310.9890 282.0961
" />
<path d="M310.9890 282.0961
L311.3461 282.0961
" />
<path d="M311.3461 282.0961
L311.5604 282.1676
" />
<path d="M311.5604 282.1676
L311.7033 282.3104
" />
<path d="M311.7033 282.3104
L311.7747 282.4533
" />
<path d="M311.7747 282.4533
L311.8461 282.7390
" />
<path d="M311.8461 282.7390
L311.8461 282.9533
" />
<path d="M311.8461 282.9533
L311.7747 283.2390
" />
<path d="M311.7747 283.2390
L311.7033 283.3818
" />
<path d="M311.7033 283.3818
L311.5604 283.5247
" />
<path d="M311.5604 283.5247
L311.3461 283.5961
" />
<path d="M311.3461 283.5961
L310.9890 283.5961
" />
<path d="M312.4890 283.4533
L312.5604 283.5247
" />
<path d="M312.5604 283.5247
L312.4890 283.5961
" />
<path d="M312.4890 283.5961
L312.4176 283.5247
" />
<path d="M312.4176 283.5247
L312.4890 283.4533
" />
<path d="M312.4890 283.4533
L312.4890 283.5961
" />
<path d="M313.1319 283.1676
L313.8461 283.1676
" />
<path d="M312.9890 283.5961
L313.4890 282.0961
" />
<path d="M313.4890 282.0961
L313.9890 283.5961
" />
<path d="M314.4890 283.4533
L314.5604 283.5247
" />
<path d="M314.5604 283.5247
L314.4890 283.5961
" />
<path d="M314.4890 283.5961
L314.4176 283.5247
" />
<path d="M314.4176 283.5247
L314.4890 283.4533
" />
<path d="M314.4890 283.4533
L314.4890 283.5961
" />
<path d="M317.4890 282.5961
L317.4890 284.0961
" />
<path d="M317.4890 282.6676
L317.6319 282.5961
" />
<path d="M317.6319 282.5961
L317.9176 282.5961
" />
<path d="M317.9176 282.5961
L318.0604 282.6676
" />
<path d="M318.0604 282.6676
L318.1319 282.7390
" />
<path d="M318.1319 282.7390
L318.2033 282.8818
" />
<path d="M318.2033 282.8818
L318.2033 283.3104
" />
<path d="M318.2033 283.3104
L318.1319 283.4533
" />
<path d="M318.1319 283.4533
L318.0604 283.5247
" />
<path d="M318.0604 283.5247
L317.9176 283.5961
" />
<path d="M317.9176 283.5961
L317.6319 283.5961
" />
<path d="M317.6319 283.5961
L317.4890 283.5247
" />
<path d="M319.4890 283.5247
L319.3461 283.5961
" />
<path d="M319.3461 283.5961
L319.0604 283.5961
" />
<path d="M319.0604 283.5961
L318.9176 283.5247
" />
<path d="M318.9176 283.5247
L318.8461 283.4533
" />
<path d="M318.8461 283.4533
L318.7747 283.3104
" />
<path d="M318.7747 283.3104
L318.7747 282.8818
" />
<path d="M318.7747 282.8818
L318.8461 282.7390
" />
<path d="M318.8461 282.7390
L318.9176 282.6676
" />
<path d="M318.9176 282.6676
L319.0604 282.5961
" />
<path d="M319.0604 282.5961
L319.3461 282.5961
" />
<path d="M319.3461 282.5961
L319.4890 282.6676
" />
<path d="M320.1319 283.5961
L320.1319 282.0961
" />
<path d="M320.1319 282.6676
L320.2747 282.5961
" />
<path d="M320.2747 282.5961
L320.5604 282.5961
" />
<path d="M320.5604 282.5961
L320.7033 282.6676
" />
<path d="M320.7033 282.6676
L320.7747 282.7390
" />
<path d="M320.7747 282.7390
L320.8461 282.8818
" />
<path d="M320.8461 282.8818
L320.8461 283.3104
" />
<path d="M320.8461 283.3104
L320.7747 283.4533
" />
<path d="M320.7747 283.4533
L320.7033 283.5247
" />
<path d="M320.7033 283.5247
L320.5604 283.5961
" />
<path d="M320.5604 283.5961
L320.2747 283.5961
" />
<path d="M320.2747 283.5961
L320.1319 283.5247
" />
<path d="M321.4890 282.5961
L321.4890 283.5961
" />
<path d="M321.4890 282.7390
L321.5604 282.6676
" />
<path d="M321.5604 282.6676
L321.7033 282.5961
" />
<path d="M321.7033 282.5961
L321.9176 282.5961
" />
<path d="M321.9176 282.5961
L322.0604 282.6676
" />
<path d="M322.0604 282.6676
L322.1319 282.8104
" />
<path d="M322.1319 282.8104
L322.1319 283.5961
" />
<path d="M323.4176 283.5247
L323.2747 283.5961
" />
<path d="M323.2747 283.5961
L322.9890 283.5961
" />
<path d="M322.9890 283.5961
L322.8461 283.5247
" />
<path d="M322.8461 283.5247
L322.7747 283.3818
" />
<path d="M322.7747 283.3818
L322.7747 282.8104
" />
<path d="M322.7747 282.8104
L322.8461 282.6676
" />
<path d="M322.8461 282.6676
L322.9890 282.5961
" />
<path d="M322.9890 282.5961
L323.2747 282.5961
" />
<path d="M323.2747 282.5961
L323.4176 282.6676
" />
<path d="M323.4176 282.6676
L323.4890 282.8104
" />
<path d="M323.4890 282.8104
L323.4890 282.9533
" />
<path d="M323.4890 282.9533
L322.7747 283.0961
" />
<path d="M323.9890 282.5961
L324.2747 283.5961
" />
<path d="M324.2747 283.5961
L324.5604 282.8818
" />
<path d="M324.5604 282.8818
L324.8461 283.5961
" />
<path d="M324.8461 283.5961
L325.1319 282.5961
" />
<path d="M326.7033 282.0961
L327.7033 282.0961
" />
<path d="M327.7033 282.0961
L327.0604 283.5961
" />
<path d="M328.2747 283.4533
L328.3461 283.5247
" />
<path d="M328.3461 283.5247
L328.2747 283.5961
" />
<path d="M328.2747 283.5961
L328.2033 283.5247
" />
<path d="M328.2033 283.5247
L328.2747 283.4533
" />
<path d="M328.2747 283.4533
L328.2747 283.5961
" />
<path d="M329.2747 282.0961
L329.4176 282.0961
" />
<path d="M329.4176 282.0961
L329.5604 282.1676
" />
<path d="M329.5604 282.1676
L329.6319 282.2390
" />
<path d="M329.6319 282.2390
L329.7033 282.3818
" />
<path d="M329.7033 282.3818
L329.7747 282.6676
" />
<path d="M329.7747 282.6676
L329.7747 283.0247
" />
<path d="M329.7747 283.0247
L329.7033 283.3104
" />
<path d="M329.7033 283.3104
L329.6319 283.4533
" />
<path d="M329.6319 283.4533
L329.5604 283.5247
" />
<path d="M329.5604 283.5247
L329.4176 283.5961
" />
<path d="M329.4176 283.5961
L329.2747 283.5961
" />
<path d="M329.2747 283.5961
L329.1319 283.5247
" />
<path d="M329.1319 283.5247
L329.0604 283.4533
" />
<path d="M329.0604 283.4533
L328.9890 283.3104
" />
<path d="M328.9890 283.3104
L328.9176 283.0247
" />
<path d="M328.9176 283.0247
L328.9176 282.6676
" />
<path d="M328.9176 282.6676
L328.9890 282.3818
" />
<path d="M328.9890 282.3818
L329.0604 282.2390
" />
<path d="M329.0604 282.2390
L329.1319 282.1676
" />
<path d="M329.1319 282.1676
L329.2747 282.0961
" />
<path d="M330.4176 283.4533
L330.4890 283.5247
" />
<path d="M330.4890 283.5247
L330.4176 283.5961
" />
<path d="M330.4176 283.5961
L330.3461 283.5247
" />
<path d="M330.3461 283.5247
L330.4176 283.4533
" />
<path d="M330.4176 283.4533
L330.4176 283.5961
" />
<path d="M331.0604 282.2390
L331.1319 282.1676
" />
<path d="M331.1319 282.1676
L331.2747 282.0961
" />
<path d="M331.2747 282.0961
L331.6319 282.0961
" />
<path d="M331.6319 282.0961
L331.7747 282.1676
" />
<path d="M331.7747 282.1676
L331.8461 282.2390
" />
<path d="M331.8461 282.2390
L331.9176 282.3818
" />
<path d="M331.9176 282.3818
L331.9176 282.5247
" />
<path d="M331.9176 282.5247
L331.8461 282.7390
" />
<path d="M331.8461 282.7390
L330.9890 283.5961
" />
<path d="M330.9890 283.5961
L331.9176 283.5961
" />
</g></g>
<g style="fill:#000000; fill-opacity:0.0; 
stroke:#000000; stroke-width:0.0212; stroke-opacity:1; 
stroke-linecap:round; stroke-linejoin:round;">
</g>
<g style="fill:#000000; fill-opacity:0.0; 
stroke:#000000; stroke-width:0.1500; stroke-opacity:1; 
stroke-linecap:round; stroke-linejoin:round;">
<path d="M299.9890 278.5022
L407.9890 278.5022
" />
</g>
<g style="fill:#000000; fill-opacity:0.0; 
stroke:#000000; stroke-width:0.0212; stroke-opacity:1; 
stroke-linecap:round; stroke-linejoin:round;">
</g>
<g style="fill:#000000; fill-opacity:0.0; 
stroke:#000000; stroke-width:0.3000; stroke-opacity:1; 
stroke-linecap:round; stroke-linejoin:round;">
<text x="385.9890" y="280.8522"
textLength="13.0929" font-size="2.0000" lengthAdjust="spacingAndGlyphs"
text-anchor="start" opacity="0">Rev: v1.0.0</text>
<g class="stroked-text"><desc>Rev: v1.0.0</desc>
<path d="M387.2033 280.7961
L386.7033 280.0818
" />
<path d="M386.3461 280.7961
L386.3461 279.2961
" />
<path d="M386.3461 279.2961
L386.9176 279.2961
" />
<path d="M386.9176 279.2961
L387.0604 279.3676
" />
<path d="M387.0604 279.3676
L387.1319 279.4390
" />
<path d="M387.1319 279.4390
L387.2033 279.5818
" />
<path d="M387.2033 279.5818
L387.2033 279.7961
" />
<path d="M387.2033 279.7961
L387.1319 279.9390
" />
<path d="M387.1319 279.9390
L387.0604 280.0104
" />
<path d="M387.0604 280.0104
L386.9176 280.0818
" />
<path d="M386.9176 280.0818
L386.3461 280.0818
" />
<path d="M388.4176 280.7247
L388.2747 280.7961
" />
<path d="M388.2747 280.7961
L387.9890 280.7961
" />
<path d="M387.9890 280.7961
L387.8461 280.7247
" />
<path d="M387.8461 280.7247
L387.7747 280.5818
" />
<path d="M387.7747 280.5818
L387.7747 280.0104
" />
<path d="M387.7747 280.0104
L387.8461 279.8676
" />
<path d="M387.8461 279.8676
L387.9890 279.7961
" />
<path d="M387.9890 279.7961
L388.2747 279.7961
" />
<path d="M388.2747 279.7961
L388.4176 279.8676
" />
<path d="M388.4176 279.8676
L388.4890 280.0104
" />
<path d="M388.4890 280.0104
L388.4890 280.1533
" />
<path d="M388.4890 280.1533
L387.7747 280.2961
" />
<path d="M388.9890 279.7961
L389.3461 280.7961
" />
<path d="M389.3461 280.7961
L389.7033 279.7961
" />
<path d="M390.2747 280.6533
L390.3461 280.7247
" />
<path d="M390.3461 280.7247
L390.2747 280.7961
" />
<path d="M390.2747 280.7961
L390.2033 280.7247
" />
<path d="M390.2033 280.7247
L390.2747 280.6533
" />
<path d="M390.2747 280.6533
L390.2747 280.7961
" />
<path d="M390.2747 279.8676
L390.3461 279.9390
" />
<path d="M390.3461 279.9390
L390.2747 280.0104
" />
<path d="M390.2747 280.0104
L390.2033 279.9390
" />
<path d="M390.2033 279.9390
L390.2747 279.8676
" />
<path d="M390.2747 279.8676
L390.2747 280.0104
" />
<path d="M391.9890 279.7961
L392.3461 280.7961
" />
<path d="M392.3461 280.7961
L392.7033 279.7961
" />
<path d="M394.0604 280.7961
L393.2033 280.7961
" />
<path d="M393.6319 280.7961
L393.6319 279.2961
" />
<path d="M393.6319 279.2961
L393.4890 279.5104
" />
<path d="M393.4890 279.5104
L393.3461 279.6533
" />
<path d="M393.3461 279.6533
L393.2033 279.7247
" />
<path d="M394.7033 280.6533
L394.7747 280.7247
" />
<path d="M394.7747 280.7247
L394.7033 280.7961
" />
<path d="M394.7033 280.7961
L394.6319 280.7247
" />
<path d="M394.6319 280.7247
L394.7033 280.6533
" />
<path d="M394.7033 280.6533
L394.7033 280.7961
" />
<path d="M395.7033 279.2961
L395.8461 279.2961
" />
<path d="M395.8461 279.2961
L395.9890 279.3676
" />
<path d="M395.9890 279.3676
L396.0604 279.4390
" />
<path d="M396.0604 279.4390
L396.1319 279.5818
" />
<path d="M396.1319 279.5818
L396.2033 279.8676
" />
<path d="M396.2033 279.8676
L396.2033 280.2247
" />
<path d="M396.2033 280.2247
L396.1319 280.5104
" />
<path d="M396.1319 280.5104
L396.0604 280.6533
" />
<path d="M396.0604 280.6533
L395.9890 280.7247
" />
<path d="M395.9890 280.7247
L395.8461 280.7961
" />
<path d="M395.8461 280.7961
L395.7033 280.7961
" />
<path d="M395.7033 280.7961
L395.5604 280.7247
" />
<path d="M395.5604 280.7247
L395.4890 280.6533
" />
<path d="M395.4890 280.6533
L395.4176 280.5104
" />
<path d="M395.4176 280.5104
L395.3461 280.2247
" />
<path d="M395.3461 280.2247
L395.3461 279.8676
" />
<path d="M395.3461 279.8676
L395.4176 279.5818
" />
<path d="M395.4176 279.5818
L395.4890 279.4390
" />
<path d="M395.4890 279.4390
L395.5604 279.3676
" />
<path d="M395.5604 279.3676
L395.7033 279.2961
" />
<path d="M396.8461 280.6533
L396.9176 280.7247
" />
<path d="M396.9176 280.7247
L396.8461 280.7961
" />
<path d="M396.8461 280.7961
L396.7747 280.7247
" />
<path d="M396.7747 280.7247
L396.8461 280.6533
" />
<path d="M396.8461 280.6533
L396.8461 280.7961
" />
<path d="M397.8461 279.2961
L397.9890 279.2961
" />
<path d="M397.9890 279.2961
L398.1319 279.3676
" />
<path d="M398.1319 279.3676
L398.2033 279.4390
" />
<path d="M398.2033 279.4390
L398.2747 279.5818
" />
<path d="M398.2747 279.5818
L398.3461 279.8676
" />
<path d="M398.3461 279.8676
L398.3461 280.2247
" />
<path d="M398.3461 280.2247
L398.2747 280.5104
" />
<path d="M398.2747 280.5104
L398.2033 280.6533
" />
<path d="M398.2033 280.6533
L398.1319 280.7247
" />
<path d="M398.1319 280.7247
L397.9890 280.7961
" />
<path d="M397.9890 280.7961
L397.8461 280.7961
" />
<path d="M397.8461 280.7961
L397.7033 280.7247
" />
<path d="M397.7033 280.7247
L397.6319 280.6533
" />
<path d="M397.6319 280.6533
L397.5604 280.5104
" />
<path d="M397.5604 280.5104
L397.4890 280.2247
" />
<path d="M397.4890 280.2247
L397.4890 279.8676
" />
<path d="M397.4890 279.8676
L397.5604 279.5818
" />
<path d="M397.5604 279.5818
L397.6319 279.4390
" />
<path d="M397.6319 279.4390
L397.7033 279.3676
" />
<path d="M397.7033 279.3676
L397.8461 279.2961
" />
</g></g>
<g style="fill:#000000; fill-opacity:0.0; 
stroke:#000000; stroke-width:0.0212; stroke-opacity:1; 
stroke-linecap:round; stroke-linejoin:round;">
</g>
<g style="fill:#000000; fill-opacity:0.0; 
stroke:#000000; stroke-width:0.1500; stroke-opacity:1; 
stroke-linecap:round; stroke-linejoin:round;">
<text x="300.9890" y="280.8522"
textLength="9.2893" font-size="2.0000" lengthAdjust="spacingAndGlyphs"
text-anchor="start" opacity="0">Size: A3</text>
<g class="stroked-text"><desc>Size: A3</desc>
<path d="M301.2747 280.7247
L301.4890 280.7961
" />
<path d="M301.4890 280.7961
L301.8461 280.7961
" />
<path d="M301.8461 280.7961
L301.9890 280.7247
" />
<path d="M301.9890 280.7247
L302.0604 280.6533
" />
<path d="M302.0604 280.6533
L302.1319 280.5104
" />
<path d="M302.1319 280.5104
L302.1319 280.3676
" />
<path d="M302.1319 280.3676
L302.0604 280.2247
" />
<path d="M302.0604 280.2247
L301.9890 280.1533
" />
<path d="M301.9890 280.1533
L301.8461 280.0818
" />
<path d="M301.8461 280.0818
L301.5604 280.0104
" />
<path d="M301.5604 280.0104
L301.4176 279.9390
" />
<path d="M301.4176 279.9390
L301.3461 279.8676
" />
<path d="M301.3461 279.8676
L301.2747 279.7247
" />
<path d="M301.2747 279.7247
L301.2747 279.5818
" />
<path d="M301.2747 279.5818
L301.3461 279.4390
" />
<path d="M301.3461 279.4390
L301.4176 279.3676
" />
<path d="M301.4176 279.3676
L301.5604 279.2961
" />
<path d="M301.5604 279.2961
L301.9176 279.2961
" />
<path d="M301.9176 279.2961
L302.1319 279.3676
" />
<path d="M302.7747 280.7961
L302.7747 279.7961
" />
<path d="M302.7747 279.2961
L302.7033 279.3676
" />
<path d="M302.7033 279.3676
L302.7747 279.4390
" />
<path d="M302.7747 279.4390
L302.8461 279.3676
" />
<path d="M302.8461 279.3676
L302.7747 279.2961
" />
<path d="M302.7747 279.2961
L302.7747 279.4390
" />
<path d="M303.3461 279.7961
L304.1319 279.7961
" />
<path d="M304.1319 279.7961
L303.3461 280.7961
" />
<path d="M303.3461 280.7961
L304.1319 280.7961
" />
<path d="M305.2747 280.7247
L305.1319 280.7961
" />
<path d="M305.1319 280.7961
L304.8461 280.7961
" />
<path d="M304.8461 280.7961
L304.7033 280.7247
" />
<path d="M304.7033 280.7247
L304.6319 280.5818
" />
<path d="M304.6319 280.5818
L304.6319 280.0104
" />
<path d="M304.6319 280.0104
L304.7033 279.8676
" />
<path d="M304.7033 279.8676
L304.8461 279.7961
" />
<path d="M304.8461 279.7961
L305.1319 279.7961
" />
<path d="M305.1319 279.7961
L305.2747 279.8676
" />
<path d="M305.2747 279.8676
L305.3461 280.0104
" />
<path d="M305.3461 280.0104
L305.3461 280.1533
" />
<path d="M305.3461 280.1533
L304.6319 280.2961
" />
<path d="M305.9890 280.6533
L306.0604 280.7247
" />
<path d="M306.0604 280.7247
L305.9890 280.7961
" />
<path d="M305.9890 280.7961
L305.9176 280.7247
" />
<path d="M305.9176 280.7247
L305.9890 280.6533
" />
<path d="M305.9890 280.6533
L305.9890 280.7961
" />
<path d="M305.9890 279.8676
L306.0604 279.9390
" />
<path d="M306.0604 279.9390
L305.9890 280.0104
" />
<path d="M305.9890 280.0104
L305.9176 279.9390
" />
<path d="M305.9176 279.9390
L305.9890 279.8676
" />
<path d="M305.9890 279.8676
L305.9890 280.0104
" />
<path d="M307.7747 280.3676
L308.4890 280.3676
" />
<path d="M307.6319 280.7961
L308.1319 279.2961
" />
<path d="M308.1319 279.2961
L308.6319 280.7961
" />
<path d="M308.9890 279.2961
L309.9176 279.2961
" />
<path d="M309.9176 279.2961
L309.4176 279.8676
" />
<path d="M309.4176 279.8676
L309.6319 279.8676
" />
<path d="M309.6319 279.8676
L309.7747 279.9390
" />
<path d="M309.7747 279.9390
L309.8461 280.0104
" />
<path d="M309.8461 280.0104
L309.9176 280.1533
" />
<path d="M309.9176 280.1533
L309.9176 280.5104
" />
<path d="M309.9176 280.5104
L309.8461 280.6533
" />
<path d="M309.8461 280.6533
L309.7747 280.7247
" />
<path d="M309.7747 280.7247
L309.6319 280.7961
" />
<path d="M309.6319 280.7961
L309.2033 280.7961
" />
<path d="M309.2033 280.7961
L309.0604 280.7247
" />
<path d="M309.0604 280.7247
L308.9890 280.6533
" />
</g></g>
<g style="fill:#000000; fill-opacity:0.0; 
stroke:#000000; stroke-width:0.0212; stroke-opacity:1; 
stroke-linecap:round; stroke-linejoin:round;">
</g>
<g style="fill:#000000; fill-opacity:0.0; 
stroke:#000000; stroke-width:0.1500; stroke-opacity:1; 
stroke-linecap:round; stroke-linejoin:round;">
<text x="385.9890" y="283.6522"
textLength="8.4321" font-size="2.0000" lengthAdjust="spacingAndGlyphs"
text-anchor="start" opacity="0">Id: 1/1</text>
<g class="stroked-text"><desc>Id: 1/1</desc>
<path d="M386.3461 283.5961
L386.3461 282.0961
" />
<path d="M387.7033 283.5961
L387.7033 282.0961
" />
<path d="M387.7033 283.5247
L387.5604 283.5961
" />
<path d="M387.5604 283.5961
L387.2747 283.5961
" />
<path d="M387.2747 283.5961
L387.1319 283.5247
" />
<path d="M387.1319 283.5247
L387.0604 283.4533
" />
<path d="M387.0604 283.4533
L386.9890 283.3104
" />
<path d="M386.9890 283.3104
L386.9890 282.8818
" />
<path d="M386.9890 282.8818
L387.0604 282.7390
" />
<path d="M387.0604 282.7390
L387.1319 282.6676
" />
<path d="M387.1319 282.6676
L387.2747 282.5961
" />
<path d="M387.2747 282.5961
L387.5604 282.5961
" />
<path d="M387.5604 282.5961
L387.7033 282.6676
" />
<path d="M388.4176 283.4533
L388.4890 283.5247
" />
<path d="M388.4890 283.5247
L388.4176 283.5961
" />
<path d="M388.4176 283.5961
L388.3461 283.5247
" />
<path d="M388.3461 283.5247
L388.4176 283.4533
" />
<path d="M388.4176 283.4533
L388.4176 283.5961
" />
<path d="M388.4176 282.6676
L388.4890 282.7390
" />
<path d="M388.4890 282.7390
L388.4176 282.8104
" />
<path d="M388.4176 282.8104
L388.3461 282.7390
" />
<path d="M388.3461 282.7390
L388.4176 282.6676
" />
<path d="M388.4176 282.6676
L388.4176 282.8104
" />
<path d="M391.0604 283.5961
L390.2033 283.5961
" />
<path d="M390.6319 283.5961
L390.6319 282.0961
" />
<path d="M390.6319 282.0961
L390.4890 282.3104
" />
<path d="M390.4890 282.3104
L390.3461 282.4533
" />
<path d="M390.3461 282.4533
L390.2033 282.5247
" />
<path d="M392.7747 282.0247
L391.4890 283.9533
" />
<path d="M394.0604 283.5961
L393.2033 283.5961
" />
<path d="M393.6319 283.5961
L393.6319 282.0961
" />
<path d="M393.6319 282.0961
L393.4890 282.3104
" />
<path d="M393.4890 282.3104
L393.3461 282.4533
" />
<path d="M393.3461 282.4533
L393.2033 282.5247
" />
</g></g>
<g style="fill:#000000; fill-opacity:0.0; 
stroke:#000000; stroke-width:0.0212; stroke-opacity:1; 
stroke-linecap:round; stroke-linejoin:round;">
</g>
<g style="fill:#000000; fill-opacity:0.0; 
stroke:#000000; stroke-width:0.1500; stroke-opacity:1; 
stroke-linecap:round; stroke-linejoin:round;">
<path d="M299.9890 274.5022
L407.9890 274.5022
" />
</g>
<g style="fill:#000000; fill-opacity:0.0; 
stroke:#000000; stroke-width:0.0212; stroke-opacity:1; 
stroke-linecap:round; stroke-linejoin:round;">
</g>
<g style="fill:#000000; fill-opacity:0.0; 
stroke:#000000; stroke-width:0.4000; stroke-opacity:1; 
stroke-linecap:round; stroke-linejoin:round;">
<text x="300.9890" y="277.3022"
textLength="15.7310" font-size="2.6667" lengthAdjust="spacingAndGlyphs"
text-anchor="start" opacity="0">Title: paul</text>
<g class="stroked-text"><desc>Title: paul</desc>
<path d="M301.4176 275.2274
L302.5604 275.2274
" />
<path d="M301.7390 277.2274
L301.9890 275.2274
" />
<path d="M302.9652 277.2274
L303.1319 275.8941
" />
<path d="M303.2152 275.2274
L303.1080 275.3227
" />
<path d="M303.1080 275.3227
L303.1914 275.4179
" />
<path d="M303.1914 275.4179
L303.2985 275.3227
" />
<path d="M303.2985 275.3227
L303.2152 275.2274
" />
<path d="M303.2152 275.2274
L303.1914 275.4179
" />
<path d="M303.7866 275.8941
L304.5485 275.8941
" />
<path d="M304.1557 275.2274
L303.9414 276.9417
" />
<path d="M303.9414 276.9417
L304.0128 277.1322
" />
<path d="M304.0128 277.1322
L304.1914 277.2274
" />
<path d="M304.1914 277.2274
L304.3819 277.2274
" />
<path d="M305.3223 277.2274
L305.1438 277.1322
" />
<path d="M305.1438 277.1322
L305.0723 276.9417
" />
<path d="M305.0723 276.9417
L305.2866 275.2274
" />
<path d="M306.8461 277.1322
L306.6438 277.2274
" />
<path d="M306.6438 277.2274
L306.2628 277.2274
" />
<path d="M306.2628 277.2274
L306.0842 277.1322
" />
<path d="M306.0842 277.1322
L306.0128 276.9417
" />
<path d="M306.0128 276.9417
L306.1080 276.1798
" />
<path d="M306.1080 276.1798
L306.2271 275.9893
" />
<path d="M306.2271 275.9893
L306.4295 275.8941
" />
<path d="M306.4295 275.8941
L306.8104 275.8941
" />
<path d="M306.8104 275.8941
L306.9890 275.9893
" />
<path d="M306.9890 275.9893
L307.0604 276.1798
" />
<path d="M307.0604 276.1798
L307.0366 276.3703
" />
<path d="M307.0366 276.3703
L306.0604 276.5608
" />
<path d="M307.7985 277.0370
L307.8819 277.1322
" />
<path d="M307.8819 277.1322
L307.7747 277.2274
" />
<path d="M307.7747 277.2274
L307.6914 277.1322
" />
<path d="M307.6914 277.1322
L307.7985 277.0370
" />
<path d="M307.7985 277.0370
L307.7747 277.2274
" />
<path d="M307.9295 275.9893
L308.0128 276.0846
" />
<path d="M308.0128 276.0846
L307.9057 276.1798
" />
<path d="M307.9057 276.1798
L307.8223 276.0846
" />
<path d="M307.8223 276.0846
L307.9295 275.9893
" />
<path d="M307.9295 275.9893
L307.9057 276.1798
" />
<path d="M310.4057 275.8941
L310.1557 277.8941
" />
<path d="M310.3938 275.9893
L310.5961 275.8941
" />
<path d="M310.5961 275.8941
L310.9771 275.8941
" />
<path d="M310.9771 275.8941
L311.1557 275.9893
" />
<path d="M311.1557 275.9893
L311.2390 276.0846
" />
<path d="M311.2390 276.0846
L311.3104 276.2751
" />
<path d="M311.3104 276.2751
L311.2390 276.8465
" />
<path d="M311.2390 276.8465
L311.1200 277.0370
" />
<path d="M311.1200 277.0370
L311.0128 277.1322
" />
<path d="M311.0128 277.1322
L310.8104 277.2274
" />
<path d="M310.8104 277.2274
L310.4295 277.2274
" />
<path d="M310.4295 277.2274
L310.2509 277.1322
" />
<path d="M312.8104 277.2274
L312.9414 276.1798
" />
<path d="M312.9414 276.1798
L312.8700 275.9893
" />
<path d="M312.8700 275.9893
L312.6914 275.8941
" />
<path d="M312.6914 275.8941
L312.3104 275.8941
" />
<path d="M312.3104 275.8941
L312.1080 275.9893
" />
<path d="M312.8223 277.1322
L312.6200 277.2274
" />
<path d="M312.6200 277.2274
L312.1438 277.2274
" />
<path d="M312.1438 277.2274
L311.9652 277.1322
" />
<path d="M311.9652 277.1322
L311.8938 276.9417
" />
<path d="M311.8938 276.9417
L311.9176 276.7512
" />
<path d="M311.9176 276.7512
L312.0366 276.5608
" />
<path d="M312.0366 276.5608
L312.2390 276.4655
" />
<path d="M312.2390 276.4655
L312.7152 276.4655
" />
<path d="M312.7152 276.4655
L312.9176 276.3703
" />
<path d="M314.7747 275.8941
L314.6080 277.2274
" />
<path d="M313.9176 275.8941
L313.7866 276.9417
" />
<path d="M313.7866 276.9417
L313.8580 277.1322
" />
<path d="M313.8580 277.1322
L314.0366 277.2274
" />
<path d="M314.0366 277.2274
L314.3223 277.2274
" />
<path d="M314.3223 277.2274
L314.5247 277.1322
" />
<path d="M314.5247 277.1322
L314.6319 277.0370
" />
<path d="M315.8342 277.2274
L315.6557 277.1322
" />
<path d="M315.6557 277.1322
L315.5842 276.9417
" />
<path d="M315.5842 276.9417
L315.7985 275.2274
" />
</g></g>
<g style="fill:#000000; fill-opacity:0.0; 
stroke:#000000; stroke-width:0.0212; stroke-opacity:1; 
stroke-linecap:round; stroke-linejoin:round;">
</g>
<g style="fill:#000000; fill-opacity:0.0; 
stroke:#000000; stroke-width:0.1500; stroke-opacity:1; 
stroke-linecap:round; stroke-linejoin:round;">
<text x="300.9890" y="273.4522"
textLength="22.6464" font-size="2.0000" lengthAdjust="spacingAndGlyphs"
text-anchor="start" opacity="0">File: paul.kicad_pcb</text>
<g class="stroked-text"><desc>File: paul.kicad_pcb</desc>
<path d="M301.8461 272.6104
L301.3461 272.6104
" />
<path d="M301.3461 273.3961
L301.3461 271.8961
" />
<path d="M301.3461 271.8961
L302.0604 271.8961
" />
<path d="M302.6319 273.3961
L302.6319 272.3961
" />
<path d="M302.6319 271.8961
L302.5604 271.9676
" />
<path d="M302.5604 271.9676
L302.6319 272.0390
" />
<path d="M302.6319 272.0390
L302.7033 271.9676
" />
<path d="M302.7033 271.9676
L302.6319 271.8961
" />
<path d="M302.6319 271.8961
L302.6319 272.0390
" />
<path d="M303.5604 273.3961
L303.4176 273.3247
" />
<path d="M303.4176 273.3247
L303.3461 273.1818
" />
<path d="M303.3461 273.1818
L303.3461 271.8961
" />
<path d="M304.7033 273.3247
L304.5604 273.3961
" />
<path d="M304.5604 273.3961
L304.2747 273.3961
" />
<path d="M304.2747 273.3961
L304.1319 273.3247
" />
<path d="M304.1319 273.3247
L304.0604 273.1818
" />
<path d="M304.0604 273.1818
L304.0604 272.6104
" />
<path d="M304.0604 272.6104
L304.1319 272.4676
" />
<path d="M304.1319 272.4676
L304.2747 272.3961
" />
<path d="M304.2747 272.3961
L304.5604 272.3961
" />
<path d="M304.5604 272.3961
L304.7033 272.4676
" />
<path d="M304.7033 272.4676
L304.7747 272.6104
" />
<path d="M304.7747 272.6104
L304.7747 272.7533
" />
<path d="M304.7747 272.7533
L304.0604 272.8961
" />
<path d="M305.4176 273.2533
L305.4890 273.3247
" />
<path d="M305.4890 273.3247
L305.4176 273.3961
" />
<path d="M305.4176 273.3961
L305.3461 273.3247
" />
<path d="M305.3461 273.3247
L305.4176 273.2533
" />
<path d="M305.4176 273.2533
L305.4176 273.3961
" />
<path d="M305.4176 272.4676
L305.4890 272.5390
" />
<path d="M305.4890 272.5390
L305.4176 272.6104
" />
<path d="M305.4176 272.6104
L305.3461 272.5390
" />
<path d="M305.3461 272.5390
L305.4176 272.4676
" />
<path d="M305.4176 272.4676
L305.4176 272.6104
" />
<path d="M307.2747 272.3961
L307.2747 273.8961
" />
<path d="M307.2747 272.4676
L307.4176 272.3961
" />
<path d="M307.4176 272.3961
L307.7033 272.3961
" />
<path d="M307.7033 272.3961
L307.8461 272.4676
" />
<path d="M307.8461 272.4676
L307.9176 272.5390
" />
<path d="M307.9176 272.5390
L307.9890 272.6818
" />
<path d="M307.9890 272.6818
L307.9890 273.1104
" />
<path d="M307.9890 273.1104
L307.9176 273.2533
" />
<path d="M307.9176 273.2533
L307.8461 273.3247
" />
<path d="M307.8461 273.3247
L307.7033 273.3961
" />
<path d="M307.7033 273.3961
L307.4176 273.3961
" />
<path d="M307.4176 273.3961
L307.2747 273.3247
" />
<path d="M309.2747 273.3961
L309.2747 272.6104
" />
<path d="M309.2747 272.6104
L309.2033 272.4676
" />
<path d="M309.2033 272.4676
L309.0604 272.3961
" />
<path d="M309.0604 272.3961
L308.7747 272.3961
" />
<path d="M308.7747 272.3961
L308.6319 272.4676
" />
<path d="M309.2747 273.3247
L309.1319 273.3961
" />
<path d="M309.1319 273.3961
L308.7747 273.3961
" />
<path d="M308.7747 273.3961
L308.6319 273.3247
" />
<path d="M308.6319 273.3247
L308.5604 273.1818
" />
<path d="M308.5604 273.1818
L308.5604 273.0390
" />
<path d="M308.5604 273.0390
L308.6319 272.8961
" />
<path d="M308.6319 272.8961
L308.7747 272.8247
" />
<path d="M308.7747 272.8247
L309.1319 272.8247
" />
<path d="M309.1319 272.8247
L309.2747 272.7533
" />
<path d="M310.6319 272.3961
L310.6319 273.3961
" />
<path d="M309.9890 272.3961
L309.9890 273.1818
" />
<path d="M309.9890 273.1818
L310.0604 273.3247
" />
<path d="M310.0604 273.3247
L310.2033 273.3961
" />
<path d="M310.2033 273.3961
L310.4176 273.3961
" />
<path d="M310.4176 273.3961
L310.5604 273.3247
" />
<path d="M310.5604 273.3247
L310.6319 273.2533
" />
<path d="M311.5604 273.3961
L311.4176 273.3247
" />
<path d="M311.4176 273.3247
L311.3461 273.1818
" />
<path d="M311.3461 273.1818
L311.3461 271.8961
" />
<path d="M312.1319 273.2533
L312.2033 273.3247
" />
<path d="M312.2033 273.3247
L312.1319 273.3961
" />
<path d="M312.1319 273.3961
L312.0604 273.3247
" />
<path d="M312.0604 273.3247
L312.1319 273.2533
" />
<path d="M312.1319 273.2533
L312.1319 273.3961
" />
<path d="M312.8461 273.3961
L312.8461 271.8961
" />
<path d="M312.9890 272.8247
L313.4176 273.3961
" />
<path d="M313.4176 272.3961
L312.8461 272.9676
" />
<path d="M314.0604 273.3961
L314.0604 272.3961
" />
<path d="M314.0604 271.8961
L313.9890 271.9676
" />
<path d="M313.9890 271.9676
L314.0604 272.0390
" />
<path d="M314.0604 272.0390
L314.1319 271.9676
" />
<path d="M314.1319 271.9676
L314.0604 271.8961
" />
<path d="M314.0604 271.8961
L314.0604 272.0390
" />
<path d="M315.4176 273.3247
L315.2747 273.3961
" />
<path d="M315.2747 273.3961
L314.9890 273.3961
" />
<path d="M314.9890 273.3961
L314.8461 273.3247
" />
<path d="M314.8461 273.3247
L314.7747 273.2533
" />
<path d="M314.7747 273.2533
L314.7033 273.1104
" />
<path d="M314.7033 273.1104
L314.7033 272.6818
" />
<path d="M314.7033 272.6818
L314.7747 272.5390
" />
<path d="M314.7747 272.5390
L314.8461 272.4676
" />
<path d="M314.8461 272.4676
L314.9890 272.3961
" />
<path d="M314.9890 272.3961
L315.2747 272.3961
" />
<path d="M315.2747 272.3961
L315.4176 272.4676
" />
<path d="M316.7033 273.3961
L316.7033 272.6104
" />
<path d="M316.7033 272.6104
L316.6319 272.4676
" />
<path d="M316.6319 272.4676
L316.4890 272.3961
" />
<path d="M316.4890 272.3961
L316.2033 272.3961
" />
<path d="M316.2033 272.3961
L316.0604 272.4676
" />
<path d="M316.7033 273.3247
L316.5604 273.3961
" />
<path d="M316.5604 273.3961
L316.2033 273.3961
" />
<path d="M316.2033 273.3961
L316.0604 273.3247
" />
<path d="M316.0604 273.3247
L315.9890 273.1818
" />
<path d="M315.9890 273.1818
L315.9890 273.0390
" />
<path d="M315.9890 273.0390
L316.0604 272.8961
" />
<path d="M316.0604 272.8961
L316.2033 272.8247
" />
<path d="M316.2033 272.8247
L316.5604 272.8247
" />
<path d="M316.5604 272.8247
L316.7033 272.7533
" />
<path d="M318.0604 273.3961
L318.0604 271.8961
" />
<path d="M318.0604 273.3247
L317.9176 273.3961
" />
<path d="M317.9176 273.3961
L317.6319 273.3961
" />
<path d="M317.6319 273.3961
L317.4890 273.3247
" />
<path d="M317.4890 273.3247
L317.4176 273.2533
" />
<path d="M317.4176 273.2533
L317.3461 273.1104
" />
<path d="M317.3461 273.1104
L317.3461 272.6818
" />
<path d="M317.3461 272.6818
L317.4176 272.5390
" />
<path d="M317.4176 272.5390
L317.4890 272.4676
" />
<path d="M317.4890 272.4676
L317.6319 272.3961
" />
<path d="M317.6319 272.3961
L317.9176 272.3961
" />
<path d="M317.9176 272.3961
L318.0604 272.4676
" />
<path d="M318.4176 273.5390
L319.5604 273.5390
" />
<path d="M319.9176 272.3961
L319.9176 273.8961
" />
<path d="M319.9176 272.4676
L320.0604 272.3961
" />
<path d="M320.0604 272.3961
L320.3461 272.3961
" />
<path d="M320.3461 272.3961
L320.4890 272.4676
" />
<path d="M320.4890 272.4676
L320.5604 272.5390
" />
<path d="M320.5604 272.5390
L320.6319 272.6818
" />
<path d="M320.6319 272.6818
L320.6319 273.1104
" />
<path d="M320.6319 273.1104
L320.5604 273.2533
" />
<path d="M320.5604 273.2533
L320.4890 273.3247
" />
<path d="M320.4890 273.3247
L320.3461 273.3961
" />
<path d="M320.3461 273.3961
L320.0604 273.3961
" />
<path d="M320.0604 273.3961
L319.9176 273.3247
" />
<path d="M321.9176 273.3247
L321.7747 273.3961
" />
<path d="M321.7747 273.3961
L321.4890 273.3961
" />
<path d="M321.4890 273.3961
L321.3461 273.3247
" />
<path d="M321.3461 273.3247
L321.2747 273.2533
" />
<path d="M321.2747 273.2533
L321.2033 273.1104
" />
<path d="M321.2033 273.1104
L321.2033 272.6818
" />
<path d="M321.2033 272.6818
L321.2747 272.5390
" />
<path d="M321.2747 272.5390
L321.3461 272.4676
" />
<path d="M321.3461 272.4676
L321.4890 272.3961
" />
<path d="M321.4890 272.3961
L321.7747 272.3961
" />
<path d="M321.7747 272.3961
L321.9176 272.4676
" />
<path d="M322.5604 273.3961
L322.5604 271.8961
" />
<path d="M322.5604 272.4676
L322.7033 272.3961
" />
<path d="M322.7033 272.3961
L322.9890 272.3961
" />
<path d="M322.9890 272.3961
L323.1319 272.4676
" />
<path d="M323.1319 272.4676
L323.2033 272.5390
" />
<path d="M323.2033 272.5390
L323.2747 272.6818
" />
<path d="M323.2747 272.6818
L323.2747 273.1104
" />
<path d="M323.2747 273.1104
L323.2033 273.2533
" />
<path d="M323.2033 273.2533
L323.1319 273.3247
" />
<path d="M323.1319 273.3247
L322.9890 273.3961
" />
<path d="M322.9890 273.3961
L322.7033 273.3961
" />
<path d="M322.7033 273.3961
L322.5604 273.3247
" />
</g></g>
<g style="fill:#000000; fill-opacity:0.0; 
stroke:#000000; stroke-width:0.0212; stroke-opacity:1; 
stroke-linecap:round; stroke-linejoin:round;">
</g>
<g style="fill:#000000; fill-opacity:0.0; 
stroke:#000000; stroke-width:0.1500; stroke-opacity:1; 
stroke-linecap:round; stroke-linejoin:round;">
<path d="M299.9890 268.5022
L407.9890 268.5022
" />
</g>
<g style="fill:#000000; fill-opacity:0.0; 
stroke:#000000; stroke-width:0.0212; stroke-opacity:1; 
stroke-linecap:round; stroke-linejoin:round;">
</g>
<g style="fill:#000000; fill-opacity:0.0; 
stroke:#000000; stroke-width:0.1500; stroke-opacity:1; 
stroke-linecap:round; stroke-linejoin:round;">
<text x="300.9890" y="270.7522"
textLength="8.1464" font-size="2.0000" lengthAdjust="spacingAndGlyphs"
text-anchor="start" opacity="0">Sheet: </text>
<g class="stroked-text"><desc>Sheet: </desc>
<path d="M301.2747 270.6247
L301.4890 270.6961
" />
<path d="M301.4890 270.6961
L301.8461 270.6961
" />
<path d="M301.8461 270.6961
L301.9890 270.6247
" />
<path d="M301.9890 270.6247
L302.0604 270.5533
" />
<path d="M302.0604 270.5533
L302.1319 270.4104
" />
<path d="M302.1319 270.4104
L302.1319 270.2676
" />
<path d="M302.1319 270.2676
L302.0604 270.1247
" />
<path d="M302.0604 270.1247
L301.9890 270.0533
" />
<path d="M301.9890 270.0533
L301.8461 269.9818
" />
<path d="M301.8461 269.9818
L301.5604 269.9104
" />
<path d="M301.5604 269.9104
L301.4176 269.8390
" />
<path d="M301.4176 269.8390
L301.3461 269.7676
" />
<path d="M301.3461 269.7676
L301.2747 269.6247
" />
<path d="M301.2747 269.6247
L301.2747 269.4818
" />
<path d="M301.2747 269.4818
L301.3461 269.3390
" />
<path d="M301.3461 269.3390
L301.4176 269.2676
" />
<path d="M301.4176 269.2676
L301.5604 269.1961
" />
<path d="M301.5604 269.1961
L301.9176 269.1961
" />
<path d="M301.9176 269.1961
L302.1319 269.2676
" />
<path d="M302.7747 270.6961
L302.7747 269.1961
" />
<path d="M303.4176 270.6961
L303.4176 269.9104
" />
<path d="M303.4176 269.9104
L303.3461 269.7676
" />
<path d="M303.3461 269.7676
L303.2033 269.6961
" />
<path d="M303.2033 269.6961
L302.9890 269.6961
" />
<path d="M302.9890 269.6961
L302.8461 269.7676
" />
<path d="M302.8461 269.7676
L302.7747 269.8390
" />
<path d="M304.7033 270.6247
L304.5604 270.6961
" />
<path d="M304.5604 270.6961
L304.2747 270.6961
" />
<path d="M304.2747 270.6961
L304.1319 270.6247
" />
<path d="M304.1319 270.6247
L304.0604 270.4818
" />
<path d="M304.0604 270.4818
L304.0604 269.9104
" />
<path d="M304.0604 269.9104
L304.1319 269.7676
" />
<path d="M304.1319 269.7676
L304.2747 269.6961
" />
<path d="M304.2747 269.6961
L304.5604 269.6961
" />
<path d="M304.5604 269.6961
L304.7033 269.7676
" />
<path d="M304.7033 269.7676
L304.7747 269.9104
" />
<path d="M304.7747 269.9104
L304.7747 270.0533
" />
<path d="M304.7747 270.0533
L304.0604 270.1961
" />
<path d="M305.9890 270.6247
L305.8461 270.6961
" />
<path d="M305.8461 270.6961
L305.5604 270.6961
" />
<path d="M305.5604 270.6961
L305.4176 270.6247
" />
<path d="M305.4176 270.6247
L305.3461 270.4818
" />
<path d="M305.3461 270.4818
L305.3461 269.9104
" />
<path d="M305.3461 269.9104
L305.4176 269.7676
" />
<path d="M305.4176 269.7676
L305.5604 269.6961
" />
<path d="M305.5604 269.6961
L305.8461 269.6961
" />
<path d="M305.8461 269.6961
L305.9890 269.7676
" />
<path d="M305.9890 269.7676
L306.0604 269.9104
" />
<path d="M306.0604 269.9104
L306.0604 270.0533
" />
<path d="M306.0604 270.0533
L305.3461 270.1961
" />
<path d="M306.4890 269.6961
L307.0604 269.6961
" />
<path d="M306.7033 269.1961
L306.7033 270.4818
" />
<path d="M306.7033 270.4818
L306.7747 270.6247
" />
<path d="M306.7747 270.6247
L306.9176 270.6961
" />
<path d="M306.9176 270.6961
L307.0604 270.6961
" />
<path d="M307.5604 270.5533
L307.6319 270.6247
" />
<path d="M307.6319 270.6247
L307.5604 270.6961
" />
<path d="M307.5604 270.6961
L307.4890 270.6247
" />
<path d="M307.4890 270.6247
L307.5604 270.5533
" />
<path d="M307.5604 270.5533
L307.5604 270.6961
" />
<path d="M307.5604 269.7676
L307.6319 269.8390
" />
<path d="M307.6319 269.8390
L307.5604 269.9104
" />
<path d="M307.5604 269.9104
L307.4890 269.8390
" />
<path d="M307.4890 269.8390
L307.5604 269.7676
" />
<path d="M307.5604 269.7676
L307.5604 269.9104
" />
</g></g>
<g style="fill:#000000; fill-opacity:0.0; 
stroke:#000000; stroke-width:0.0212; stroke-opacity:1; 
stroke-linecap:round; stroke-linejoin:round;">
</g>
<g style="fill:#000000; fill-opacity:0.0; 
stroke:#000000; stroke-width:0.3000; stroke-opacity:1; 
stroke-linecap:round; stroke-linejoin:round;">
<text x="300.9890" y="267.7522"
textLength="10.2357" font-size="2.0000" lengthAdjust="spacingAndGlyphs"
text-anchor="start" opacity="0">Unknown</text>
<g class="stroked-text"><desc>Unknown</desc>
<path d="M301.3461 266.1961
L301.3461 267.4104
" />
<path d="M301.3461 267.4104
L301.4176 267.5533
" />
<path d="M301.4176 267.5533
L301.4890 267.6247
" />
<path d="M301.4890 267.6247
L301.6319 267.6961
" />
<path d="M301.6319 267.6961
L301.9176 267.6961
" />
<path d="M301.9176 267.6961
L302.0604 267.6247
" />
<path d="M302.0604 267.6247
L302.1319 267.5533
" />
<path d="M302.1319 267.5533
L302.2033 267.4104
" />
<path d="M302.2033 267.4104
L302.2033 266.1961
" />
<path d="M302.9176 266.6961
L302.9176 267.6961
" />
<path d="M302.9176 266.8390
L302.9890 266.7676
" />
<path d="M302.9890 266.7676
L303.1319 266.6961
" />
<path d="M303.1319 266.6961
L303.3461 266.6961
" />
<path d="M303.3461 266.6961
L303.4890 266.7676
" />
<path d="M303.4890 266.7676
L303.5604 266.9104
" />
<path d="M303.5604 266.9104
L303.5604 267.6961
" />
<path d="M304.2747 267.6961
L304.2747 266.1961
" />
<path d="M304.4176 267.1247
L304.8461 267.6961
" />
<path d="M304.8461 266.6961
L304.2747 267.2676
" />
<path d="M305.4890 266.6961
L305.4890 267.6961
" />
<path d="M305.4890 266.8390
L305.5604 266.7676
" />
<path d="M305.5604 266.7676
L305.7033 266.6961
" />
<path d="M305.7033 266.6961
L305.9176 266.6961
" />
<path d="M305.9176 266.6961
L306.0604 266.7676
" />
<path d="M306.0604 266.7676
L306.1319 266.9104
" />
<path d="M306.1319 266.9104
L306.1319 267.6961
" />
<path d="M307.0604 267.6961
L306.9176 267.6247
" />
<path d="M306.9176 267.6247
L306.8461 267.5533
" />
<path d="M306.8461 267.5533
L306.7747 267.4104
" />
<path d="M306.7747 267.4104
L306.7747 266.9818
" />
<path d="M306.7747 266.9818
L306.8461 266.8390
" />
<path d="M306.8461 266.8390
L306.9176 266.7676
" />
<path d="M306.9176 266.7676
L307.0604 266.6961
" />
<path d="M307.0604 266.6961
L307.2747 266.6961
" />
<path d="M307.2747 266.6961
L307.4176 266.7676
" />
<path d="M307.4176 266.7676
L307.4890 266.8390
" />
<path d="M307.4890 266.8390
L307.5604 266.9818
" />
<path d="M307.5604 266.9818
L307.5604 267.4104
" />
<path d="M307.5604 267.4104
L307.4890 267.5533
" />
<path d="M307.4890 267.5533
L307.4176 267.6247
" />
<path d="M307.4176 267.6247
L307.2747 267.6961
" />
<path d="M307.2747 267.6961
L307.0604 267.6961
" />
<path d="M308.0604 266.6961
L308.3461 267.6961
" />
<path d="M308.3461 267.6961
L308.6319 266.9818
" />
<path d="M308.6319 266.9818
L308.9176 267.6961
" />
<path d="M308.9176 267.6961
L309.2033 266.6961
" />
<path d="M309.7747 266.6961
L309.7747 267.6961
" />
<path d="M309.7747 266.8390
L309.8461 266.7676
" />
<path d="M309.8461 266.7676
L309.9890 266.6961
" />
<path d="M309.9890 266.6961
L310.2033 266.6961
" />
<path d="M310.2033 266.6961
L310.3461 266.7676
" />
<path d="M310.3461 266.7676
L310.4176 266.9104
" />
<path d="M310.4176 266.9104
L310.4176 267.6961
" />
</g></g>
<g style="fill:#000000; fill-opacity:0.0; 
stroke:#000000; stroke-width:0.0212; stroke-opacity:1; 
stroke-linecap:round; stroke-linejoin:round;">
</g>
<g style="fill:#000000; fill-opacity:0.0; 
stroke:#000000; stroke-width:0.1500; stroke-opacity:1; 
stroke-linecap:round; stroke-linejoin:round;">
<text x="300.9890" y="264.7522"
textLength="0.3750" font-size="2.0000" lengthAdjust="spacingAndGlyphs"
text-anchor="start" opacity="0"></text>
<g class="stroked-text"><desc></desc>
</g></g>
<g style="fill:#000000; fill-opacity:0.0; 
stroke:#000000; stroke-width:0.0212; stroke-opacity:1; 
stroke-linecap:round; stroke-linejoin:round;">
</g>
<g style="fill:#000000; fill-opacity:0.0; 
stroke:#000000; stroke-width:0.1500; stroke-opacity:1; 
stroke-linecap:round; stroke-linejoin:round;">
<text x="300.9890" y="261.7522"
textLength="0.3750" font-size="2.0000" lengthAdjust="spacingAndGlyphs"
text-anchor="start" opacity="0"></text>
<g class="stroked-text"><desc></desc>
</g></g>
<g style="fill:#000000; fill-opacity:0.0; 
stroke:#000000; stroke-width:0.0212; stroke-opacity:1; 
stroke-linecap:round; stroke-linejoin:round;">
</g>
<g style="fill:#000000; fill-opacity:0.0; 
stroke:#000000; stroke-width:0.1500; stroke-opacity:1; 
stroke-linecap:round; stroke-linejoin:round;">
<text x="300.9890" y="258.7522"
textLength="0.3750" font-size="2.0000" lengthAdjust="spacingAndGlyphs"
text-anchor="start" opacity="0"></text>
<g class="stroked-text"><desc></desc>
</g></g>
<g style="fill:#000000; fill-opacity:0.0; 
stroke:#000000; stroke-width:0.0212; stroke-opacity:1; 
stroke-linecap:round; stroke-linejoin:round;">
</g>
<g style="fill:#000000; fill-opacity:0.0; 
stroke:#000000; stroke-width:0.1500; stroke-opacity:1; 
stroke-linecap:round; stroke-linejoin:round;">
<text x="300.9890" y="255.7522"
textLength="0.3750" font-size="2.0000" lengthAdjust="spacingAndGlyphs"
text-anchor="start" opacity="0"></text>
<g class="stroked-text"><desc></desc>
</g></g>
<g style="fill:#000000; fill-opacity:0.0; 
stroke:#000000; stroke-width:0.0212; stroke-opacity:1; 
stroke-linecap:round; stroke-linejoin:round;">
</g>
<g style="fill:#000000; fill-opacity:0.0; 
stroke:#000000; stroke-width:0.1500; stroke-opacity:1; 
stroke-linecap:round; stroke-linejoin:round;">
<path d="M319.9890 278.5022
L319.9890 281.5022
" />
</g>
<g style="fill:#000000; fill-opacity:0.0; 
stroke:#000000; stroke-width:0.0212; stroke-opacity:1; 
stroke-linecap:round; stroke-linejoin:round;">
</g>
<g style="fill:#000000; fill-opacity:0.0; 
stroke:#000000; stroke-width:0.1500; stroke-opacity:1; 
stroke-linecap:round; stroke-linejoin:round;">
<path d="M383.9890 278.5022
L383.9890 285.0022
" />
</g>
<g style="fill:#D0D2CD; fill-opacity:0.0; 
stroke:#D0D2CD; stroke-width:0.1500; stroke-opacity:1; 
stroke-linecap:round; stroke-linejoin:round;">
<path d="M229.8636 135.9681
L172.8636 135.9681
" />
<path d="M156.9628 60.6271
L175.8905 58.9712
" />
<path d="M172.8636 135.9681
L172.8635 117.9681
" />
<path d="M134.2939 64.2757
L153.0052 60.9764
" />
<path d="M179.8636 58.9681
L229.8636 58.9681
" />
<path d="M175.8905 58.9712
L179.8636 58.9681
" />
<path d="M72.2014 86.6444
L112.0291 69.8862
" />
<path d="M126.3788 124.3911
L90.6705 137.3878
" />
<path d="M112.0291 69.8862
L130.3817 64.9686
" />
<path d="M229.8636 135.9681
L229.8636 58.9681
" />
<path d="M130.3817 64.9686
L134.2939 64.2757
" />
<path d="M153.0052 60.9764
L156.9628 60.6271
" />
<path d="M90.6705 137.3878
L72.2014 86.6444
" />
<path d="M172.8635 117.9681
L126.3788 124.3911
" />
<g >
</g>
<g >
</g>
<g >
</g>
<g >
</g>
<g >
</g>
<g >
</g>
<g >
</g>
<g >
</g>
<g >
</g>
<g >
</g>
<g >
</g>
<g >
</g>
<g >
</g>
<g >
</g>
<g >
</g>
<g >
</g>
<g >
</g>
<g >
</g>
<g >
</g>
<g >
</g>
<g >
</g>
<g >
</g>
<g >
</g>
<g >
</g>
<g >
</g>
<g >
</g>
<g >
</g>
<g >
</g>
<g >
</g>
<g >
</g>
<g >
</g>
<g >
</g>
<g >
</g>
<g >
</g>
<g >
</g>
<g >
</g>
<g >
</g>
<g >
</g>
<g >
</g>
<g >
</g>
<g >
</g>
<g >
</g>
<g >
</g>
<g >
</g>
<g >
</g>
<g >
</g>
<g >
</g>
<g >
</g>
<g >
</g>
<g >
</g>
<g >
</g>
<g >
</g>
<g >
</g>
<g >
</g>
</g> 
</svg>
